{"glyphs":{"0":{"ha":755,"x_min":48,"x_max":704,"o":"m 235 800 q 177 638 177 736 l 177 327 q 193 231 177 274 l 115 99 q 48 299 48 183 l 48 659 q 142 889 48 798 q 376 981 235 981 q 596 902 505 981 l 528 788 q 523 794 526 791 q 518 801 521 798 q 500 818 509 810 q 481 833 491 826 q 376 865 436 865 q 235 800 291 865 m 640 855 q 704 659 704 772 l 704 299 q 610 68 704 160 q 376 -24 518 -24 q 159 53 248 -24 l 229 170 q 234 164 233 166 q 376 99 291 99 q 518 163 461 99 q 575 327 575 229 l 575 638 q 572 683 575 662 q 562 724 568 704 l 640 855 z "},"1":{"ha":755,"x_min":159,"x_max":570,"o":"m 479 135 q 485 83 478 102 q 503 56 492 65 q 525 43 513 46 q 547 35 537 39 q 563 24 557 31 q 568 -1 570 16 l 256 -1 q 261 24 255 16 q 277 35 267 31 q 298 43 287 39 q 320 56 310 46 q 338 83 331 65 q 346 135 345 102 l 346 710 q 340 735 346 726 q 328 747 335 743 q 311 750 321 751 l 159 750 l 159 793 q 165 816 159 806 q 181 832 170 825 q 211 842 191 840 q 272 857 242 847 q 324 882 301 866 q 362 920 347 898 q 378 972 376 942 l 437 972 q 458 965 449 970 q 472 950 465 960 q 478 922 478 940 l 478 511 q 479 135 478 342 z "},"2":{"ha":755,"x_min":59,"x_max":718,"o":"m 711 195 q 713 193 713 195 l 713 0 l 176 1 q 90 26 121 1 q 59 100 59 54 q 77 155 59 127 q 127 210 94 183 l 475 490 q 555 581 528 532 q 580 686 580 629 q 527 814 580 764 q 393 866 475 866 q 259 813 312 866 q 205 677 205 760 q 217 603 205 636 q 253 544 229 569 q 287 489 281 516 q 290 440 293 462 q 271 391 286 414 q 122 503 174 431 q 71 675 71 576 q 163 901 71 813 q 399 989 256 989 q 628 905 539 989 q 718 688 718 820 q 673 522 718 599 q 531 371 629 446 q 455 312 494 342 q 382 255 422 286 q 303 193 342 223 q 277 170 286 179 q 267 153 269 160 q 268 141 264 146 q 277 134 271 137 q 322 130 292 128 l 654 130 q 669 142 665 132 q 677 164 673 152 q 688 185 682 176 q 711 195 695 195 z "},"3":{"ha":755,"x_min":64,"x_max":700,"o":"m 621 510 q 700 298 700 435 q 614 83 700 165 q 390 0 529 0 l 250 0 l 64 -1 l 64 192 q 66 195 64 195 q 88 184 81 194 q 99 163 95 175 q 107 141 103 151 q 123 129 112 131 l 349 129 q 509 174 453 129 q 564 304 564 220 q 512 429 564 384 q 370 475 460 475 l 198 475 l 198 564 l 465 814 q 478 832 475 825 q 477 844 481 839 q 453 850 473 850 l 299 850 q 182 850 245 850 q 154 856 167 850 q 132 869 142 861 q 116 889 123 878 q 104 911 109 900 q 89 973 92 939 l 495 973 l 495 972 q 600 947 565 972 q 636 871 636 921 q 624 818 636 843 q 590 772 612 792 l 393 587 q 621 510 540 585 z "},"4":{"ha":755,"x_min":26,"x_max":728,"o":"m 578 228 l 578 127 q 585 79 578 96 q 602 54 592 62 q 622 42 611 45 q 642 35 633 39 q 657 24 651 31 q 661 -1 663 16 l 370 -1 q 374 24 368 16 q 388 35 379 31 q 408 42 397 39 q 428 54 418 45 q 445 80 438 63 q 453 129 452 97 l 453 228 l 119 228 q 48 248 71 228 q 26 313 26 269 q 32 353 26 332 q 40 376 35 364 q 51 399 44 387 q 161 601 109 506 q 205 683 182 642 q 249 763 228 725 q 287 833 269 801 q 315 886 304 865 q 341 923 327 907 q 372 949 356 939 q 404 965 387 959 q 435 973 420 970 q 507 972 470 979 q 543 952 527 965 q 567 922 556 941 q 578 876 578 904 q 578 840 578 870 q 578 766 578 810 q 578 669 578 722 q 578 564 578 616 q 578 465 578 511 q 578 389 578 419 q 515 396 543 388 q 493 405 504 399 q 473 420 481 411 q 458 441 464 429 q 453 471 453 454 l 453 873 l 169 355 l 404 355 l 643 355 l 648 355 q 677 349 665 355 q 698 335 690 344 q 712 314 707 326 q 721 291 718 303 q 726 228 728 263 l 578 228 z "},"5":{"ha":755,"x_min":71,"x_max":706,"o":"m 235 743 q 230 706 235 722 q 216 681 224 691 q 196 665 207 671 q 173 655 184 659 q 111 651 146 648 l 111 975 l 616 975 q 602 912 614 939 q 589 889 596 901 q 570 869 581 878 q 544 855 559 861 q 510 849 529 849 q 471 849 492 849 q 428 848 450 848 q 382 848 406 848 q 338 848 359 848 q 235 849 288 848 l 235 743 m 619 525 q 706 307 706 448 q 616 85 706 168 q 376 2 526 2 l 71 2 l 71 3 l 71 3 l 71 193 q 73 196 71 196 q 95 186 88 195 q 106 165 102 176 q 114 143 110 153 q 130 131 119 133 l 371 131 q 513 176 464 131 q 562 304 562 219 q 513 429 562 383 q 379 475 465 475 l 111 475 l 111 604 l 235 604 l 235 603 l 374 603 q 619 525 532 603 z "},"6":{"ha":755,"x_min":34,"x_max":718,"o":"m 398 673 q 632 579 545 667 q 718 345 718 490 q 622 87 718 189 q 376 -13 525 -13 q 243 10 303 -13 q 134 81 183 33 q 60 191 85 128 q 34 317 34 250 q 66 475 34 397 q 113 567 81 515 q 193 687 145 620 l 397 972 q 442 924 426 950 q 453 899 449 912 q 457 870 458 886 q 451 838 457 854 q 431 802 445 821 q 410 775 422 791 q 386 743 399 760 q 360 708 374 726 q 335 673 347 690 q 275 590 306 633 q 184 441 207 495 q 161 335 161 387 q 222 174 161 237 q 373 109 283 109 q 523 177 461 109 q 585 342 585 243 q 524 498 585 437 q 511 509 518 503 q 496 520 505 515 q 479 530 488 526 q 434 551 452 540 q 406 574 416 562 q 390 598 395 587 q 385 621 385 610 q 398 673 382 647 z "},"7":{"ha":755,"x_min":49,"x_max":693,"o":"m 660 947 q 693 869 693 922 q 687 827 693 850 q 678 800 684 816 q 663 765 672 785 l 549 502 l 377 106 q 374 71 370 83 q 387 52 377 58 q 409 44 396 46 q 433 37 422 41 q 452 25 444 33 q 458 0 459 17 l 108 0 q 115 28 108 18 q 134 43 122 38 q 160 53 146 49 q 190 63 175 56 q 220 81 205 69 q 245 114 234 92 l 254 134 l 559 850 l 155 850 q 118 855 134 850 q 91 869 102 860 q 73 888 80 878 q 60 911 65 899 q 49 972 49 938 l 557 972 q 660 947 627 972 z "},"8":{"ha":755,"x_min":42,"x_max":707,"o":"m 662 453 q 707 292 707 384 q 614 68 707 155 q 374 -19 523 -19 q 134 68 226 -19 q 42 292 42 154 q 87 453 42 385 q 217 557 132 522 q 167 597 189 576 q 132 643 146 619 q 103 749 103 691 q 180 919 103 850 q 374 987 256 987 q 569 919 492 987 q 646 749 646 850 q 638 693 646 720 q 617 643 631 667 q 531 557 589 595 q 662 453 616 521 m 516 162 q 573 294 573 215 q 515 426 573 372 q 391 480 465 475 l 391 607 q 432 618 413 609 q 467 644 451 628 q 505 736 505 682 q 468 829 505 793 q 374 867 430 867 q 281 829 319 867 q 243 736 243 792 q 281 643 243 682 q 349 608 309 615 l 349 479 q 233 426 281 472 q 176 294 176 371 q 232 162 176 215 q 374 109 290 109 q 516 162 459 109 z "},"9":{"ha":755,"x_min":35,"x_max":720,"o":"m 355 306 q 121 399 208 311 q 35 634 35 489 q 132 891 35 792 q 378 991 227 991 q 511 968 451 991 q 620 897 572 944 q 694 788 667 850 q 720 662 720 725 q 688 504 720 583 q 559 292 655 425 l 357 7 q 311 55 328 28 q 300 79 304 66 q 296 108 296 93 q 302 141 296 123 q 323 176 309 158 q 343 203 332 188 q 367 235 355 218 q 393 270 380 252 q 418 305 406 288 q 477 388 446 345 q 535 474 512 437 q 570 538 558 511 q 591 644 591 590 q 531 805 591 742 q 380 869 470 869 q 231 802 292 869 q 169 637 169 735 q 230 481 169 540 q 243 469 235 475 q 257 458 249 463 q 274 449 264 453 q 319 427 301 439 q 347 404 336 416 q 362 380 357 392 q 368 357 367 368 q 355 306 370 332 z "}," ":{"ha":378,"x_min":0,"x_max":0,"o":""},"!":{"ha":378,"x_min":128,"x_max":246,"o":"m 128 966 q 185 949 159 964 q 207 934 196 943 q 225 911 217 925 q 239 880 234 898 q 246 837 245 861 l 246 233 q 189 245 214 230 q 167 262 178 251 q 148 291 157 273 q 135 334 140 309 q 129 393 130 359 q 129 423 129 397 q 128 490 128 450 q 128 582 128 531 q 128 686 128 633 l 128 966 m 131 189 q 182 174 159 185 q 220 147 201 164 q 245 101 239 130 l 245 -9 q 195 -1 218 -10 q 156 24 175 5 q 131 79 138 43 l 131 85 l 131 189 z "},"\"":{"ha":416,"x_min":53,"x_max":359,"o":"m 53 979 q 96 982 75 986 q 135 963 115 979 q 173 912 156 948 l 232 764 q 190 757 212 752 q 170 765 180 759 q 149 782 160 770 q 126 811 138 793 q 104 855 115 829 q 100 865 102 858 q 93 881 97 871 q 84 901 89 890 q 76 922 80 911 q 53 979 65 948 m 180 979 q 224 982 202 986 q 263 963 242 979 q 300 912 283 948 l 359 764 q 317 757 339 752 q 298 765 308 759 q 276 782 288 770 q 254 811 265 793 q 231 855 242 829 q 227 865 230 858 q 220 881 224 871 q 212 901 216 890 q 203 922 208 911 q 180 979 193 948 z "},"#":{"ha":1068,"x_min":52,"x_max":1000,"o":"m 650 589 l 473 589 l 410 410 l 587 410 l 650 589 m 579 886 q 556 821 568 855 q 533 756 544 786 q 509 688 521 722 l 682 688 l 794 996 q 842 974 823 989 q 869 939 859 961 q 866 882 878 916 q 845 823 857 857 q 822 760 833 789 q 796 688 810 724 l 1000 688 q 983 639 997 661 q 948 605 972 620 q 884 589 925 589 l 761 589 l 697 411 l 916 411 q 899 361 912 383 q 862 327 886 342 q 793 312 837 312 l 663 312 q 629 214 646 262 q 614 173 622 194 q 600 130 607 151 q 585 91 592 109 q 573 57 578 72 q 558 32 567 42 q 539 15 550 22 q 518 5 529 9 q 496 1 507 2 q 441 4 470 -2 l 550 312 l 376 312 q 342 216 358 263 q 327 175 334 197 q 312 133 319 154 q 298 94 305 113 q 286 60 292 75 q 272 34 281 44 q 253 16 263 23 q 231 6 243 9 q 209 1 220 3 q 154 4 183 -1 l 261 312 l 52 312 q 66 361 54 339 q 97 395 75 380 q 156 411 118 411 l 298 411 l 361 589 l 136 589 q 149 639 136 616 q 163 657 154 648 q 185 673 172 666 q 217 684 199 680 q 262 688 236 688 l 396 688 l 506 996 q 553 972 534 987 q 569 958 562 966 q 580 939 576 949 q 584 915 584 928 q 579 886 585 901 z "},"$":{"ha":755,"x_min":115,"x_max":659,"o":"m 332 1 l 332 109 l 116 109 q 123 168 115 142 q 134 189 127 178 q 150 208 140 199 q 174 221 160 216 q 207 226 188 226 l 307 226 l 332 226 l 332 483 q 232 542 273 513 q 167 599 191 571 q 118 724 118 654 q 177 859 118 806 q 332 913 237 913 q 343 962 333 940 q 354 979 347 970 q 372 995 361 988 q 396 1006 382 1002 q 429 1010 410 1010 l 429 913 l 620 913 q 611 859 619 882 q 601 839 607 848 q 587 821 595 829 q 565 809 578 814 q 536 804 553 804 l 429 804 l 429 571 q 538 504 493 536 q 608 442 583 472 q 659 309 659 383 q 599 163 659 216 q 436 109 539 109 l 429 109 l 429 1 l 332 1 m 332 614 l 332 804 l 323 804 q 256 781 283 804 q 230 724 230 760 q 253 667 230 693 q 332 614 276 642 m 429 226 l 436 226 q 507 249 481 226 q 533 313 533 273 q 509 378 533 350 q 429 432 485 406 l 429 226 z "},"%":{"ha":1141,"x_min":158,"x_max":991,"o":"m 158 716 q 210 842 158 790 q 336 894 262 894 q 462 842 409 894 q 514 716 514 790 q 462 589 514 643 q 336 538 410 538 q 210 589 261 538 q 158 716 158 643 m 245 716 q 272 652 245 679 q 336 626 298 626 q 400 652 374 626 q 427 716 427 679 q 401 781 427 754 q 336 806 375 806 q 271 781 297 806 q 245 716 245 753 m 635 239 q 686 366 635 315 q 812 417 738 417 q 939 366 887 417 q 991 239 991 315 q 939 113 991 165 q 812 61 886 61 q 686 113 739 61 q 635 239 635 165 m 722 239 q 749 176 722 203 q 812 149 774 149 q 877 176 850 149 q 904 239 904 203 q 877 304 904 277 q 812 330 851 330 q 748 304 774 330 q 728 275 735 290 q 722 239 722 259 m 189 10 q 463 431 339 241 q 533 538 498 484 q 600 642 568 592 q 662 737 633 692 q 714 818 691 782 q 753 878 737 853 q 777 913 770 903 q 828 962 800 948 q 880 978 856 976 q 935 971 907 981 q 672 564 791 749 q 604 459 638 512 q 539 357 570 406 q 478 263 507 308 q 427 182 450 218 q 387 120 404 146 q 361 81 370 94 q 333 45 348 60 q 303 22 318 31 q 275 9 289 14 q 248 3 260 5 q 189 10 218 1 z "},"&":{"ha":964,"x_min":0,"x_max":0,"o":""},"'":{"ha":215,"x_min":52,"x_max":163,"o":"m 163 960 q 162 852 162 901 q 162 810 162 831 q 162 773 162 790 q 162 745 162 756 q 162 730 162 733 q 158 694 163 709 q 146 667 154 678 q 129 649 138 656 q 109 637 119 642 q 52 627 84 626 l 52 855 q 57 892 52 876 q 71 919 62 908 q 89 938 79 930 q 109 950 98 945 q 163 960 132 961 z "},"(":{"ha":533,"x_min":113,"x_max":446,"o":"m 414 -248 q 187 47 261 -105 q 113 373 113 199 q 186 694 113 545 q 414 988 260 844 q 442 935 435 963 q 446 908 445 922 q 442 879 446 894 q 429 846 438 863 q 402 812 419 829 q 295 653 334 735 q 234 371 234 526 q 296 86 234 214 q 334 19 312 52 q 380 -47 355 -14 q 415 -96 402 -73 q 435 -138 429 -119 q 442 -173 441 -157 q 441 -201 443 -189 q 414 -248 435 -229 z "},")":{"ha":533,"x_min":119,"x_max":452,"o":"m 184 -47 q 231 19 209 -14 q 269 86 252 52 q 331 371 331 214 q 270 653 331 526 q 162 812 231 736 q 136 846 145 829 q 122 879 126 863 q 119 908 119 894 q 123 935 119 922 q 151 988 130 963 q 378 694 305 844 q 452 373 452 545 q 433 205 452 286 q 377 47 415 124 q 151 -248 304 -104 q 124 -201 130 -229 q 123 -173 122 -189 q 130 -138 123 -157 q 150 -96 136 -119 q 184 -47 163 -73 z "},"*":{"ha":685,"x_min":86,"x_max":583,"o":"m 460 604 q 421 633 440 618 q 388 659 402 648 q 357 686 371 673 l 385 474 q 330 481 353 473 q 312 491 321 484 q 296 507 302 497 q 288 531 290 517 q 288 564 285 545 q 302 654 297 622 q 307 686 305 671 l 138 556 q 119 606 123 582 q 117 626 117 616 q 121 647 117 637 q 134 665 125 656 q 157 680 142 674 q 204 699 182 690 q 245 715 227 708 q 283 728 265 722 l 86 810 q 117 852 98 838 q 135 862 125 858 q 159 865 146 865 q 187 858 172 864 q 221 838 203 852 q 255 812 239 824 q 283 791 271 800 q 307 771 296 780 l 280 984 q 334 977 311 985 q 352 966 343 972 q 367 950 361 960 q 376 926 373 940 q 376 892 378 911 q 368 840 372 863 q 362 801 365 817 q 357 768 359 783 l 525 903 q 548 852 544 876 q 549 830 550 842 q 541 808 547 819 q 523 788 535 798 q 490 771 511 779 q 442 752 462 761 q 408 738 422 744 l 382 726 l 583 648 q 551 606 568 622 q 512 589 535 593 q 460 604 490 585 z "},"+":{"ha":1157,"x_min":165,"x_max":972,"o":"m 616 735 l 616 569 l 616 460 l 971 460 q 965 414 972 434 q 946 381 960 396 q 905 366 932 367 q 871 366 891 366 q 829 366 852 366 q 781 366 806 366 q 733 366 757 366 l 616 366 l 616 3 q 570 12 591 4 q 552 20 561 15 q 537 33 544 25 q 526 52 530 41 q 521 77 522 62 l 521 366 l 167 366 q 172 413 165 393 q 197 445 179 431 q 255 460 216 459 q 296 460 274 460 q 340 460 317 460 q 384 460 362 460 q 427 460 406 460 q 521 460 474 460 l 521 823 q 568 813 547 822 q 601 788 586 806 q 616 735 616 770 z "},",":{"ha":378,"x_min":85,"x_max":255,"o":"m 255 127 q 236 43 244 80 q 229 11 233 26 q 222 -19 225 -5 q 218 -41 220 -32 q 215 -54 216 -51 q 203 -89 211 -74 q 186 -112 196 -103 q 165 -126 176 -121 q 142 -134 153 -132 q 85 -132 116 -139 l 124 48 q 137 83 129 68 q 156 107 146 98 q 178 121 166 116 q 200 129 189 127 q 255 127 226 134 z "},"-":{"ha":458,"x_min":54,"x_max":389,"o":"m 54 381 q 163 380 114 380 q 203 380 183 380 q 241 380 224 380 q 269 380 258 380 q 283 380 280 380 q 320 377 304 381 q 347 365 336 372 q 366 347 358 357 q 378 327 373 337 q 388 271 389 302 l 159 270 q 122 276 138 271 q 95 289 106 281 q 77 307 84 297 q 64 327 69 317 q 54 381 54 351 z "},".":{"ha":378,"x_min":125,"x_max":239,"o":"m 239 2 q 183 9 208 2 q 144 31 161 16 q 125 74 126 45 l 125 163 q 182 157 157 164 q 221 136 203 151 q 239 92 239 121 l 239 87 l 239 2 z "},"/":{"ha":376,"x_min":-54,"x_max":384,"o":"m -54 -146 q 87 335 23 118 q 123 458 105 397 q 158 577 141 519 q 190 685 175 634 q 217 777 205 736 q 237 846 229 818 q 249 886 245 875 q 264 922 255 907 q 285 948 274 937 q 307 967 296 960 q 330 978 319 974 q 384 987 355 988 q 250 523 311 734 q 215 403 232 463 q 181 286 197 342 q 150 179 165 230 q 124 87 136 128 q 103 16 112 45 q 91 -28 95 -14 q 74 -71 84 -53 q 53 -102 64 -89 q 29 -123 41 -115 q 5 -136 17 -132 q -54 -146 -23 -149 z "},":":{"ha":411,"x_min":154,"x_max":269,"o":"m 269 -14 q 211 -1 236 -10 q 190 8 200 3 q 171 20 179 13 q 159 37 163 28 q 154 58 154 46 l 154 148 q 212 141 186 149 q 233 133 223 138 q 252 120 243 127 q 264 101 260 112 q 269 76 269 90 l 269 71 l 269 -14 m 269 387 q 211 398 236 390 q 190 407 200 401 q 172 419 180 412 q 159 436 163 427 q 154 458 154 446 l 154 549 q 210 543 185 550 q 250 522 232 536 q 269 477 267 507 l 269 472 l 269 471 l 269 387 z "},";":{"ha":411,"x_min":104,"x_max":319,"o":"m 193 468 l 195 473 q 203 497 197 487 q 219 513 210 507 q 239 522 229 519 q 262 527 250 526 q 319 524 288 530 l 304 435 q 279 402 299 412 q 237 387 260 391 q 179 385 211 382 l 193 468 m 273 121 q 254 37 262 75 q 247 4 251 20 q 241 -25 243 -12 q 236 -47 238 -38 q 233 -60 234 -57 q 222 -94 229 -80 q 205 -118 214 -109 q 184 -133 195 -127 q 161 -140 172 -138 q 104 -138 135 -145 l 143 42 q 156 77 148 62 q 175 101 165 92 q 196 116 185 111 q 218 123 208 121 q 273 121 244 129 z "},"<":{"ha":1157,"x_min":185,"x_max":987,"o":"m 976 777 q 977 726 983 751 q 969 704 975 715 q 953 681 963 692 q 927 659 943 670 q 890 640 912 648 q 832 615 868 630 q 753 583 797 601 q 661 545 709 565 q 564 506 612 525 q 325 409 452 460 q 571 309 458 355 q 668 270 619 290 q 758 233 716 250 q 832 203 800 216 q 880 184 864 191 q 925 162 906 174 q 955 138 943 150 q 973 114 966 126 q 981 92 979 102 q 976 42 987 66 l 224 351 q 205 367 214 358 q 192 386 198 374 q 186 414 186 398 q 191 439 185 429 q 205 456 197 450 q 224 469 213 464 l 976 777 z "},"=":{"ha":1157,"x_min":151,"x_max":1004,"o":"m 151 320 q 492 321 338 320 q 623 321 557 321 q 743 321 688 321 q 837 321 798 321 q 892 321 877 321 q 924 316 910 321 q 950 305 939 312 q 969 290 961 298 q 984 272 978 281 q 1004 224 998 251 q 680 225 828 225 q 553 225 616 225 q 435 225 489 225 q 339 225 380 225 q 279 224 298 224 q 212 239 237 224 q 174 272 187 254 q 151 320 157 293 m 151 597 l 492 597 q 623 597 557 597 q 743 597 688 597 q 837 597 798 597 q 892 597 877 597 q 950 582 928 597 q 984 549 972 566 q 1004 500 998 527 q 680 501 828 501 l 279 501 q 212 516 237 500 q 174 549 187 531 q 151 597 157 570 z "},">":{"ha":1157,"x_min":173,"x_max":974,"o":"m 937 465 q 956 452 947 460 q 968 435 963 446 q 974 410 974 425 q 968 382 974 394 q 955 363 962 370 q 936 347 947 354 l 184 38 q 178 87 173 62 q 186 110 180 98 q 204 134 193 122 q 235 158 216 146 q 280 180 253 170 q 328 199 296 186 q 402 229 360 212 q 492 266 444 246 q 589 305 541 286 q 835 405 701 351 q 595 502 707 456 q 499 541 548 521 q 407 579 450 561 q 327 611 363 597 q 270 635 291 626 q 207 677 226 654 q 183 722 188 701 q 184 773 177 747 l 937 465 z "},"?":{"ha":694,"x_min":52,"x_max":642,"o":"m 375 86 l 375 80 q 349 24 368 43 q 310 -1 330 5 q 259 -9 287 -10 l 259 102 q 284 148 265 131 q 323 175 303 165 q 375 191 347 186 l 375 86 m 578 884 q 642 698 642 808 q 572 513 642 583 q 375 437 501 445 l 375 332 l 375 330 l 375 329 q 370 292 375 307 q 356 265 364 276 q 337 247 347 254 q 315 236 326 240 q 257 229 290 227 l 257 536 l 257 537 q 273 537 264 537 q 298 536 281 536 q 453 579 399 536 q 507 701 507 623 q 477 801 507 759 q 470 810 473 806 q 461 819 466 814 q 342 865 415 865 q 310 862 326 865 q 281 856 295 860 q 233 829 253 845 q 227 823 230 826 q 222 817 224 821 l 221 817 q 188 762 199 794 q 175 688 176 730 l 52 688 q 74 810 52 756 q 90 847 80 830 q 113 880 100 865 q 123 893 118 887 q 135 905 129 899 q 349 987 217 987 q 559 905 477 987 q 569 895 564 901 q 578 884 574 890 z "},"@":{"ha":1389,"x_min":136,"x_max":1270,"o":"m 728 978 q 884 957 809 978 q 1021 898 958 936 q 1134 807 1084 860 q 1216 689 1184 753 q 1258 551 1247 625 q 1256 399 1270 477 q 1226 303 1247 347 q 1177 226 1206 260 q 1113 169 1148 192 q 1038 134 1077 145 q 1028 131 1036 133 q 1007 125 1019 128 q 981 120 995 123 q 952 117 966 118 l 951 117 l 939 117 l 887 117 l 856 117 l 856 212 l 856 382 q 808 517 856 465 q 686 568 761 568 q 564 517 612 568 q 516 385 516 465 q 566 251 516 303 q 691 199 614 199 q 758 210 725 199 q 824 247 790 222 l 824 145 q 755 117 791 126 q 719 111 738 113 q 680 109 700 109 q 605 120 644 109 q 570 134 587 126 q 538 153 553 142 q 450 252 480 192 q 427 314 435 281 q 420 383 420 347 q 495 580 420 503 q 686 657 569 657 q 825 619 761 657 q 881 573 857 600 q 922 513 905 547 q 936 482 930 498 q 945 448 941 465 q 950 403 948 429 q 951 340 951 376 l 951 182 q 1031 203 992 187 q 1102 246 1071 219 q 1154 311 1133 273 q 1179 399 1175 349 q 1159 595 1188 503 q 1069 755 1129 687 q 921 864 1008 824 q 728 903 834 903 q 591 885 656 903 q 468 834 525 867 q 363 755 410 802 q 282 653 316 709 q 231 533 249 597 q 212 399 212 469 q 231 265 212 330 q 282 145 249 201 q 363 43 316 89 q 468 -36 410 -3 q 591 -87 525 -69 q 728 -105 656 -105 q 1082 32 941 -105 l 1154 -2 q 1065 -76 1114 -43 q 963 -132 1017 -109 q 850 -168 909 -155 q 728 -180 791 -180 q 570 -160 646 -180 q 429 -101 494 -139 q 309 -11 363 -64 q 216 106 255 42 q 157 245 178 171 q 136 399 136 319 q 157 553 136 479 q 216 691 178 627 q 309 808 255 755 q 429 899 363 861 q 570 957 494 937 q 728 978 646 978 z "},"A":{"ha":833,"x_min":-3,"x_max":826,"o":"m 749 146 q 755 91 749 111 q 770 61 761 71 q 788 47 779 52 q 807 39 798 43 q 821 28 815 35 q 825 3 826 20 q 825 1 825 3 q 821 0 825 0 q 719 0 760 0 q 649 1 678 1 q 601 1 621 1 q 562 1 581 1 q 559 2 559 1 q 558 5 558 3 q 564 28 558 21 q 577 40 569 36 q 595 47 585 43 q 614 62 606 52 q 628 91 623 72 q 635 146 634 111 l 635 456 q 489 456 557 456 l 283 456 q 266 458 270 456 q 262 465 262 461 q 264 471 262 468 q 265 474 266 474 q 333 540 294 518 q 413 570 372 562 q 494 577 454 578 q 566 576 534 577 q 617 580 597 576 q 637 602 637 585 q 637 637 638 612 q 632 692 636 662 q 620 752 628 722 q 596 803 611 782 q 566 836 584 820 q 528 863 549 851 q 483 881 507 874 q 435 888 459 888 q 385 881 410 888 q 337 863 360 874 q 295 836 315 851 q 263 804 276 821 q 210 610 210 737 q 210 455 210 522 q 210 339 210 388 q 210 257 210 290 q 210 201 210 223 q 210 166 210 179 q 210 146 210 153 q 218 91 211 110 q 234 61 224 71 q 255 47 244 51 q 276 39 267 43 q 291 26 285 35 q 295 0 296 18 q 178 0 225 0 q 98 1 131 1 q 42 1 65 1 q -1 1 20 1 q 3 27 -3 19 q 18 39 9 35 q 38 47 27 43 q 59 61 50 51 q 76 91 69 71 q 83 146 83 110 l 83 391 l 83 613 q 174 889 83 788 q 416 991 264 991 q 657 889 566 991 q 748 613 748 788 l 749 146 z "},"B":{"ha":783,"x_min":5,"x_max":741,"o":"m 8 -1 q 5 2 5 -1 q 12 22 6 16 q 26 32 18 29 q 44 37 35 35 q 61 44 54 39 q 74 58 69 49 q 78 84 79 66 l 78 617 q 161 890 78 791 q 391 989 243 989 q 608 911 519 989 q 695 720 695 832 q 668 608 695 659 q 585 522 640 558 q 701 427 659 489 q 741 285 741 364 q 652 79 741 158 q 414 0 562 0 l 255 1 q 279 60 256 33 q 306 83 290 71 q 346 104 321 94 q 403 121 370 113 q 480 132 436 128 q 523 141 505 133 q 558 165 541 149 q 594 219 583 189 q 605 288 605 249 q 591 354 605 325 q 551 404 577 382 q 486 440 526 426 q 401 455 446 455 l 255 456 q 266 511 252 486 q 282 532 272 522 q 310 552 293 543 q 351 568 327 561 q 407 577 374 574 q 422 579 412 578 q 446 583 433 580 q 475 593 460 587 q 505 609 490 599 q 547 653 532 629 q 561 712 561 678 q 551 775 561 747 q 517 827 541 804 q 463 865 494 848 q 395 881 432 881 q 351 876 372 881 q 310 861 330 870 q 275 839 291 852 q 245 812 258 826 q 213 744 220 783 q 205 652 205 704 l 205 0 q 107 -1 150 -1 l 8 -1 z "},"C":{"ha":692,"x_min":44,"x_max":648,"o":"m 290 758 q 176 487 176 658 q 290 216 176 315 q 566 117 393 125 q 592 133 584 118 q 605 165 600 147 q 616 198 610 182 q 640 216 623 213 q 646 215 644 216 q 648 210 648 214 l 648 0 l 610 0 q 420 18 503 0 q 283 68 338 34 q 105 246 166 140 q 44 487 44 353 q 105 726 44 620 q 283 903 166 832 q 420 954 338 937 q 610 972 503 972 l 648 971 l 648 868 q 648 830 648 848 q 648 797 648 812 q 648 773 648 783 q 648 764 648 764 q 646 759 648 760 q 641 758 644 758 q 623 768 630 760 q 612 787 616 776 q 604 810 608 798 q 596 833 601 823 q 586 850 592 843 q 570 857 580 857 q 290 758 395 850 z "},"D":{"ha":869,"x_min":18,"x_max":820,"o":"m 770 729 q 810 613 800 676 q 820 484 820 550 q 756 243 820 352 q 576 66 693 136 q 445 18 521 35 q 401 11 425 14 q 354 5 376 7 q 314 1 331 3 q 291 0 296 0 q 272 0 281 0 q 262 10 262 1 q 269 31 262 16 q 288 61 275 45 q 322 92 301 77 q 372 115 342 107 q 436 136 410 128 q 484 154 463 144 q 527 178 506 163 q 574 217 547 192 q 659 335 629 268 q 689 485 689 402 q 685 567 689 527 q 670 644 680 608 q 641 712 659 680 q 595 768 623 743 q 534 811 572 791 q 455 843 497 830 q 370 864 413 857 q 293 872 328 871 q 237 864 259 872 q 216 840 216 857 l 216 155 l 217 155 l 217 1 l 18 1 q 23 21 18 14 q 36 32 28 28 q 52 37 43 35 q 69 42 61 39 q 82 52 77 45 q 90 71 88 58 q 90 166 90 111 q 90 287 90 222 q 90 421 90 351 q 90 557 90 490 q 89 685 90 625 q 89 793 89 746 q 89 870 89 841 q 90 905 90 900 q 113 944 90 929 q 171 968 136 960 q 249 978 206 976 q 332 978 292 979 q 408 972 373 976 q 460 963 442 968 q 533 936 492 954 q 617 890 574 918 q 701 822 661 861 q 770 729 741 782 z "},"E":{"ha":705,"x_min":44,"x_max":650,"o":"m 642 217 q 648 216 646 216 q 650 210 650 215 l 650 0 l 612 0 q 510 4 557 0 q 422 17 463 9 q 283 68 338 35 q 105 247 166 140 q 67 327 83 287 q 47 414 52 367 l 180 414 q 217 304 189 351 q 290 216 244 257 q 568 117 394 125 q 594 133 586 118 q 607 165 602 147 q 618 198 612 182 q 642 217 625 214 m 650 869 q 650 831 650 850 q 650 798 650 813 q 650 774 650 783 q 650 765 650 765 q 648 759 650 760 q 643 758 646 758 q 625 768 632 760 q 614 787 618 777 q 606 811 609 798 q 598 833 602 823 q 587 850 593 844 q 571 857 581 857 q 290 758 395 850 q 182 564 203 682 q 247 564 212 564 q 316 564 281 564 q 383 564 351 564 q 442 563 416 564 q 485 562 468 563 q 507 561 503 562 q 539 552 522 559 q 573 534 556 545 q 603 508 589 523 q 623 473 617 492 q 624 468 624 471 q 622 462 625 465 q 613 457 620 459 q 593 456 606 456 l 263 456 l 263 456 l 142 456 l 45 456 q 44 469 45 463 q 44 478 44 474 l 44 486 q 105 726 44 619 q 283 904 165 832 q 422 956 338 937 q 612 972 503 972 l 650 972 l 650 869 z "},"F":{"ha":624,"x_min":13,"x_max":623,"o":"m 483 554 q 514 547 496 554 q 549 527 532 539 q 581 497 566 514 q 602 461 595 480 q 602 455 602 458 q 600 450 602 452 q 590 445 597 447 q 570 444 583 444 l 246 444 l 246 554 q 286 554 263 554 q 333 554 309 554 q 381 554 357 554 q 426 554 406 554 q 461 554 446 554 q 483 554 477 554 m 623 945 q 623 892 623 922 q 623 834 623 861 q 623 788 623 807 q 623 768 623 768 q 621 762 623 763 q 616 761 619 762 q 600 771 606 763 q 589 790 593 779 q 581 813 585 801 q 570 837 576 826 q 553 854 564 847 q 527 863 543 862 l 371 863 q 309 848 336 859 q 261 812 281 836 q 229 747 241 787 q 216 648 218 707 l 216 136 q 222 85 217 104 q 235 58 228 67 q 252 45 243 49 q 268 37 260 41 q 279 26 275 33 q 283 3 283 19 q 283 1 283 2 q 279 0 283 0 l 161 0 l 18 0 q 14 1 14 0 q 14 4 14 3 q 18 26 13 19 q 31 37 23 33 q 47 44 39 41 q 64 55 56 47 q 78 76 73 62 q 85 115 84 90 l 85 628 q 91 710 85 671 q 106 783 96 749 q 131 844 116 817 q 165 892 146 872 q 214 934 189 918 q 266 961 239 951 q 318 977 292 972 q 371 984 345 982 l 581 984 q 610 972 597 984 q 623 945 623 961 z "},"G":{"ha":1074,"x_min":77,"x_max":1001,"o":"m 602 528 q 632 528 608 528 q 689 528 656 528 q 763 528 723 528 q 842 528 803 528 q 915 528 881 528 q 970 528 948 528 l 822 417 q 784 417 808 417 q 732 417 760 417 q 672 417 703 417 q 612 418 642 418 q 557 418 583 418 q 515 418 532 418 q 495 419 502 417 q 486 423 488 420 q 483 429 483 426 q 484 435 484 433 q 505 471 491 454 q 536 500 519 488 q 571 520 553 513 q 602 528 589 528 m 1001 498 q 1000 457 1001 484 q 993 393 999 429 q 974 315 987 357 q 935 227 960 272 q 871 138 910 182 q 777 54 833 93 q 664 0 724 17 q 538 -16 604 -16 q 363 22 447 -16 q 214 131 281 59 q 155 208 180 168 q 113 294 130 248 q 77 485 77 386 q 85 583 77 536 q 110 675 92 629 q 151 763 127 721 q 208 842 174 805 q 275 904 240 877 q 358 954 311 930 q 421 978 389 970 q 485 990 454 987 q 546 994 517 994 q 600 991 576 994 q 695 968 650 987 q 779 924 741 949 q 857 857 821 896 q 924 770 892 819 l 849 695 q 826 670 836 681 q 817 661 821 665 q 810 653 813 656 q 802 645 806 649 q 798 645 801 642 q 788 663 789 654 q 791 680 787 672 q 799 696 794 688 q 806 713 804 705 q 805 732 808 722 q 788 753 802 741 q 767 776 778 764 q 747 795 758 785 q 728 811 737 805 q 696 832 711 823 q 666 848 681 841 q 634 861 650 855 q 598 870 617 866 q 555 876 577 875 q 514 874 534 876 q 477 869 494 872 q 448 862 460 865 q 403 843 425 855 q 361 818 380 831 q 293 754 321 791 q 243 675 265 718 q 211 585 222 632 q 201 486 201 537 q 207 411 201 448 q 227 340 213 375 q 300 216 252 273 q 410 135 349 163 q 473 113 441 121 q 538 106 505 106 q 760 195 669 106 q 799 238 782 217 q 828 283 815 259 q 851 335 841 307 q 870 400 861 363 l 1001 498 z "},"H":{"ha":851,"x_min":-3,"x_max":859,"o":"m 221 121 q 232 79 224 94 q 250 57 240 64 q 271 46 260 50 q 290 38 281 43 q 304 26 299 34 q 309 1 309 18 l -1 1 q 3 27 -3 19 q 19 40 9 35 q 40 48 28 44 q 62 62 52 52 q 80 92 73 72 q 87 147 87 111 l 88 147 l 88 845 l 87 845 q 78 892 85 876 q 61 918 71 909 q 40 930 51 926 q 19 938 28 934 q 4 949 10 942 q -1 973 -1 957 q -1 976 -1 975 q 4 977 -1 977 l 305 977 q 309 975 309 977 q 309 972 309 974 q 304 949 309 957 q 289 938 298 942 q 270 930 280 934 q 249 919 259 927 q 232 895 239 911 q 222 850 224 879 l 221 850 l 221 121 m 768 132 q 777 85 770 102 q 794 59 785 68 q 815 47 804 51 q 836 39 827 43 q 851 27 845 35 q 857 3 857 20 q 856 1 857 3 q 851 0 856 0 q 707 0 779 0 q 550 1 634 0 q 546 2 547 1 q 545 5 546 3 q 551 28 545 20 q 566 39 557 35 q 585 47 574 43 q 606 58 596 50 q 624 82 616 66 q 634 127 631 98 l 634 457 l 270 457 q 254 466 255 457 q 262 487 253 474 q 290 515 272 500 q 332 543 308 530 q 385 565 356 556 q 444 573 414 573 q 496 573 476 573 q 529 573 516 573 q 550 573 542 573 q 565 574 557 574 q 583 575 573 574 q 611 576 593 575 q 629 584 625 576 q 635 595 634 591 l 634 854 q 623 897 631 882 q 605 919 615 911 q 584 930 595 927 q 565 938 573 933 q 551 950 556 942 q 547 975 545 958 l 857 975 q 852 948 859 956 q 837 936 846 940 q 815 928 827 932 q 793 915 804 924 q 775 885 783 905 q 768 829 768 865 l 768 132 z "},"I":{"ha":315,"x_min":5,"x_max":306,"o":"m 221 120 q 232 78 224 93 q 249 56 239 63 q 269 45 258 48 q 288 37 279 41 q 301 24 296 33 q 304 -1 306 16 l 7 0 q 11 26 5 18 q 26 38 17 34 q 47 46 36 43 q 68 60 58 50 q 85 90 78 71 q 92 145 92 109 l 94 145 l 94 840 l 92 840 q 83 887 90 871 q 66 913 76 904 q 46 925 57 922 q 27 932 36 928 q 13 944 18 937 q 7 968 7 951 q 8 970 7 969 q 12 971 8 971 l 301 971 q 305 970 304 971 q 306 967 306 968 q 300 944 306 951 q 286 933 295 937 q 267 926 277 929 q 248 914 257 922 q 231 890 238 905 q 222 846 224 874 l 221 846 l 221 120 l 221 120 z "},"J":{"ha":643,"x_min":4,"x_max":649,"o":"m 7 24 q 23 51 12 35 q 54 80 34 66 q 105 107 74 95 q 180 125 136 120 q 197 126 183 125 q 230 127 210 126 q 272 131 249 129 q 316 138 294 134 q 354 148 337 142 q 380 163 372 154 q 431 313 431 214 l 431 850 q 421 895 429 879 q 404 919 414 911 q 384 931 395 928 q 365 939 374 935 q 351 950 357 943 q 346 974 346 958 q 347 977 346 975 q 351 979 347 978 l 515 979 l 644 979 q 648 977 648 979 q 648 975 648 976 q 643 950 649 958 q 629 939 637 943 q 610 931 621 935 q 589 918 599 927 q 572 892 580 909 q 563 845 565 876 l 563 334 q 475 75 563 159 q 418 39 454 53 q 339 18 382 26 q 249 7 296 10 q 158 4 202 4 l 90 4 q 64 4 77 4 q 42 4 52 4 q 26 4 32 4 q 19 4 20 4 q 13 5 16 4 q 7 8 9 6 q 4 14 5 10 q 7 24 4 18 z "},"K":{"ha":790,"x_min":9,"x_max":808,"o":"m 224 437 l 224 119 q 235 77 227 92 q 252 55 242 62 q 271 44 261 47 q 290 37 281 41 q 302 25 298 33 q 307 0 307 17 l 10 0 q 15 26 9 18 q 30 39 20 35 q 50 46 39 43 q 71 59 61 50 q 88 89 81 69 q 96 144 95 109 l 96 144 l 96 842 l 96 842 q 86 889 94 872 q 70 914 79 905 q 49 927 60 923 q 30 935 39 930 q 15 946 21 939 q 10 970 9 954 q 11 972 11 970 q 16 973 11 973 l 142 973 q 213 972 180 972 l 305 972 q 309 971 309 972 q 309 968 309 970 q 304 945 309 952 q 290 934 298 938 q 271 926 281 930 q 251 915 261 923 q 234 891 241 907 q 224 847 227 876 l 224 558 l 224 437 m 256 558 l 334 558 q 448 591 406 558 q 534 727 490 624 q 555 775 543 749 q 577 825 564 797 q 604 884 590 853 q 621 911 610 900 q 645 930 632 922 q 673 942 659 937 q 701 949 687 947 q 770 953 733 956 l 649 676 q 619 616 633 642 q 591 576 605 591 q 524 528 562 543 q 674 446 623 511 q 725 272 725 382 l 725 121 l 725 121 q 735 79 728 94 q 752 56 743 64 q 772 45 762 49 q 790 38 782 42 q 803 26 798 34 q 807 1 808 18 l 679 1 l 517 1 q 520 26 515 18 q 534 38 526 34 q 552 46 542 43 q 572 57 562 50 q 588 81 581 65 q 598 125 595 96 l 598 223 q 555 388 598 339 q 413 437 512 437 l 256 437 l 256 558 z "},"L":{"ha":648,"x_min":-2,"x_max":643,"o":"m 640 21 q 643 11 643 15 q 640 5 642 7 q 634 2 637 3 q 628 1 631 1 q 621 1 627 1 q 605 1 614 1 q 583 1 595 1 q 557 1 570 1 l 490 1 q 398 4 446 1 q 308 15 351 7 q 229 36 265 22 q 172 71 193 50 q 85 331 85 157 l 85 842 q 75 889 83 872 q 58 915 68 906 q 38 927 49 924 q 18 935 27 931 q 4 947 9 939 q -1 972 -2 955 q -1 974 -1 972 q 4 975 -1 975 l 297 975 q 301 973 300 975 q 301 970 301 972 q 296 947 301 954 q 282 935 290 939 q 263 928 273 931 q 243 916 252 924 q 226 891 233 907 q 216 847 218 876 l 216 309 q 267 160 216 212 q 293 145 275 151 q 332 135 311 139 q 375 129 353 131 q 417 125 398 126 q 450 123 437 123 q 467 123 464 123 q 542 105 511 117 q 593 78 573 92 q 624 48 613 63 q 640 21 635 33 z "},"M":{"ha":1267,"x_min":8,"x_max":1271,"o":"m 250 954 q 319 983 276 983 q 347 979 334 983 l 236 136 q 234 80 231 99 q 245 52 237 60 q 265 40 254 43 q 286 35 276 38 q 302 25 296 32 q 307 -1 309 18 l 176 -1 l 9 -1 q 14 25 8 18 q 30 37 20 33 q 53 44 40 41 q 77 57 65 47 q 98 86 89 66 q 113 140 108 105 l 216 865 q 250 954 224 924 m 1171 119 q 1186 76 1177 91 q 1208 54 1196 61 q 1231 43 1219 46 q 1252 36 1242 40 q 1266 24 1261 33 q 1270 -1 1271 16 l 972 -1 q 977 25 970 18 q 993 35 983 32 q 1014 40 1003 38 q 1034 52 1025 43 q 1045 80 1042 61 q 1043 136 1048 100 l 952 793 l 953 793 l 951 800 l 729 87 q 692 12 713 35 q 640 -12 670 -12 q 587 11 608 -12 q 568 41 577 22 q 550 87 558 60 q 468 354 506 230 q 435 461 452 407 q 404 563 418 515 q 377 650 389 611 q 358 712 365 689 l 389 959 q 409 925 399 945 q 423 886 418 905 l 640 194 l 855 886 q 897 959 870 934 q 960 983 923 983 q 1028 954 1003 983 q 1063 865 1055 924 l 1171 119 z "},"N":{"ha":875,"x_min":9,"x_max":876,"o":"m 264 960 q 318 887 292 937 l 626 238 l 626 7 q 597 40 614 19 q 568 84 581 62 l 216 817 l 216 146 q 223 91 216 111 q 239 61 229 71 q 260 47 249 51 q 280 39 271 43 q 294 27 289 35 q 299 1 300 19 l 172 1 l 11 1 q 15 27 9 19 q 30 39 21 35 q 50 47 39 43 q 71 61 61 51 q 86 91 80 71 q 94 146 93 111 l 94 842 q 121 947 94 910 q 199 984 149 984 q 264 960 235 984 m 875 973 q 870 947 876 955 q 856 935 865 939 q 836 927 847 930 q 815 913 825 923 q 799 883 806 903 q 792 827 793 863 l 792 128 q 764 24 792 62 q 689 -13 738 -13 q 679 -12 683 -13 q 669 -10 674 -12 l 669 256 l 668 256 l 668 827 q 661 883 667 863 q 644 913 654 903 q 624 927 635 923 q 603 935 612 930 q 588 947 594 939 q 584 973 583 955 l 875 973 z "},"O":{"ha":1074,"x_min":49,"x_max":1029,"o":"m 49 490 q 85 681 49 590 q 193 843 122 771 q 352 951 263 914 q 539 988 439 988 q 726 950 635 988 q 810 904 770 931 q 885 842 850 878 q 992 680 956 768 q 1029 490 1029 589 q 991 297 1029 387 q 885 136 955 207 q 810 72 850 99 q 726 26 770 45 q 539 -12 637 -12 q 352 26 439 -12 q 193 134 263 63 q 85 297 122 207 q 49 490 49 387 m 180 490 q 186 415 180 452 q 207 344 193 378 q 286 220 234 276 q 341 173 312 194 q 403 139 370 153 q 539 111 469 111 q 675 139 611 111 q 736 173 708 153 q 791 220 765 194 q 836 280 817 249 q 869 345 856 311 q 897 490 897 414 q 890 565 897 529 q 870 635 884 601 q 791 758 844 702 q 736 806 765 786 q 675 841 708 827 q 539 869 611 869 q 402 842 468 869 q 286 760 337 813 q 206 636 234 705 q 180 490 180 568 z "},"P":{"ha":753,"x_min":7,"x_max":718,"o":"m 593 496 q 527 463 562 475 q 464 444 492 450 q 398 433 430 436 l 313 433 q 276 438 288 432 q 267 445 271 441 q 264 455 264 449 q 271 471 265 462 q 289 494 277 481 q 333 524 308 515 q 386 536 359 532 q 441 543 413 540 q 493 554 469 545 q 527 574 510 557 q 557 614 544 591 q 578 662 570 637 q 587 706 587 686 q 537 823 587 778 q 410 869 489 869 q 273 810 325 869 q 222 652 222 751 l 222 133 q 231 84 224 101 q 249 58 239 66 q 269 45 258 49 q 289 37 280 41 q 303 25 298 33 q 307 -1 309 17 l 176 -1 l 9 -1 q 13 26 7 18 q 28 38 19 34 q 49 46 38 42 q 70 60 60 50 q 87 90 80 70 q 94 145 94 109 l 95 145 l 95 623 q 179 891 95 794 q 412 988 264 988 q 631 909 542 988 q 718 714 718 830 q 685 591 718 645 q 645 540 669 564 q 593 496 622 516 z "},"Q":{"ha":1074,"x_min":45,"x_max":1038,"o":"m 1000 678 q 1038 486 1038 586 q 926 165 1038 301 q 629 -13 816 29 l 627 -186 q 568 -159 594 -181 q 546 -135 556 -149 q 527 -102 535 -121 q 513 -56 518 -82 q 509 5 509 -29 q 508 111 509 56 q 508 209 508 165 q 508 281 508 254 q 508 309 508 309 q 554 292 534 303 q 587 266 574 281 q 609 234 601 251 q 622 201 617 218 q 629 115 633 161 q 829 250 755 149 q 905 487 905 352 q 877 634 905 566 q 844 700 863 669 q 798 758 824 731 q 704 828 750 804 q 615 862 657 852 q 535 870 572 871 q 470 863 498 869 q 425 850 442 857 q 403 842 407 843 q 340 806 370 827 q 286 758 311 786 q 205 633 233 703 q 177 487 177 564 q 252 251 177 354 q 293 204 269 227 q 345 163 317 182 q 404 131 373 144 q 465 110 434 117 l 465 -14 q 372 11 416 -6 q 288 51 327 28 q 214 104 248 75 q 154 166 180 134 q 45 486 45 302 q 81 679 45 587 q 191 842 117 769 q 351 953 260 914 q 386 965 359 956 q 452 982 412 975 q 544 989 492 989 q 652 977 595 990 q 771 931 710 963 q 892 842 832 900 q 955 766 929 807 q 1000 678 981 724 z "},"R":{"ha":775,"x_min":-5,"x_max":802,"o":"m 716 132 q 726 85 718 102 q 743 59 733 68 q 763 47 752 50 q 783 39 774 43 q 797 26 791 35 q 801 1 802 18 l 670 1 l 593 1 q 563 1 578 1 q 536 1 548 1 q 515 1 524 1 q 504 1 507 1 q 509 27 503 19 q 523 39 514 35 q 543 47 532 43 q 563 60 553 51 q 580 86 573 68 q 589 136 587 104 l 589 217 q 549 384 589 340 q 522 405 539 395 q 483 421 505 414 q 435 433 460 429 q 384 437 410 437 l 299 437 q 262 441 275 435 q 254 447 257 443 q 251 458 250 452 q 257 475 251 465 q 275 497 262 484 q 319 527 294 518 q 372 539 345 536 q 426 546 399 543 q 478 557 454 549 q 513 581 496 564 q 543 620 530 598 q 564 666 556 642 q 571 709 571 690 q 522 827 571 781 q 396 873 474 873 q 259 814 310 873 q 209 656 209 755 l 209 135 q 218 86 211 103 q 235 59 225 68 q 255 47 245 50 q 275 39 266 43 q 289 26 283 35 q 293 1 294 18 l 163 1 l 85 1 q 56 1 71 1 q 29 1 41 1 q 8 1 17 1 q -3 1 -1 1 q 1 28 -5 20 q 16 40 7 36 q 36 48 25 44 q 57 62 47 52 q 74 92 67 72 q 81 147 81 111 l 81 627 q 165 895 81 797 q 397 993 250 993 q 614 913 527 993 q 702 718 702 834 q 669 594 702 649 q 572 505 635 540 q 682 427 647 484 q 716 267 716 370 l 716 132 l 716 132 z "},"S":{"ha":729,"x_min":56,"x_max":683,"o":"m 56 1 l 56 199 q 59 202 56 201 q 84 191 78 201 q 93 168 90 180 q 101 143 96 155 q 125 130 107 132 l 387 130 q 508 161 467 130 q 549 252 549 192 q 517 334 549 300 q 399 412 486 369 l 237 496 q 104 601 148 541 q 60 736 60 661 q 140 908 60 844 q 233 957 180 940 q 355 973 286 973 l 638 973 q 637 962 638 971 q 630 938 636 952 q 610 908 623 924 q 571 879 596 892 q 506 854 545 865 q 410 842 467 844 l 315 843 q 226 814 259 843 q 193 741 193 787 q 222 667 193 699 q 271 630 237 652 q 359 581 305 609 l 501 509 q 639 401 595 461 q 683 259 683 339 q 599 68 683 136 q 363 1 515 1 l 152 1 l 56 1 z "},"T":{"ha":672,"x_min":-100,"x_max":783,"o":"m 739 973 q 774 968 765 973 q 781 955 783 964 q 765 933 778 946 q 735 906 752 921 q 670 866 705 880 q 604 853 635 852 l 604 853 l 404 853 l 404 140 q 412 88 405 106 q 429 60 419 70 q 450 47 439 51 q 470 39 461 43 q 485 27 479 35 q 490 1 491 19 l 357 1 l 278 1 q 248 1 262 1 q 220 1 233 1 q 199 1 208 1 q 187 1 190 1 q 192 27 186 20 q 207 39 197 35 q 227 47 216 43 q 248 60 237 51 q 265 87 258 69 q 274 138 273 104 l 274 853 l 168 853 l -54 853 q -91 858 -81 853 q -97 871 -100 863 q -81 892 -94 880 q -51 920 -68 905 q 15 960 -20 946 q 81 973 50 975 q 127 973 93 973 q 210 973 162 973 q 316 973 258 973 q 433 973 374 973 l 739 973 l 739 973 z "},"U":{"ha":833,"x_min":-5,"x_max":840,"o":"m 838 969 q 834 943 840 951 q 819 931 828 935 q 799 923 810 926 q 778 910 787 920 q 761 882 768 901 q 753 829 753 863 l 753 362 q 661 88 753 190 q 416 -14 570 -14 q 173 88 263 -14 q 81 362 81 189 l 81 837 q 72 885 79 868 q 55 911 64 903 q 34 924 45 920 q 14 932 23 928 q 0 944 5 936 q -4 970 -5 952 l 294 970 q 290 944 296 951 q 276 931 285 936 q 256 923 267 927 q 235 910 245 920 q 218 883 225 901 q 210 831 211 865 l 210 368 q 262 175 210 242 q 416 109 317 109 q 571 175 517 109 q 625 368 625 243 l 625 838 q 615 886 623 869 q 598 911 608 903 q 578 924 589 920 q 558 931 567 927 q 543 944 549 936 q 539 969 538 951 l 838 969 l 838 969 z "},"V":{"ha":711,"x_min":-85,"x_max":802,"o":"m 342 201 l 286 18 q 243 107 262 47 l 5 880 q -13 905 -3 896 q -33 918 -22 913 q -53 925 -43 922 q -70 931 -62 927 q -81 943 -77 935 q -84 966 -85 950 l 5 966 q 82 966 39 966 l 212 966 q 207 941 214 948 q 190 929 200 933 q 168 923 179 926 q 150 911 157 920 q 140 884 142 902 q 149 831 139 865 l 342 201 m 802 966 q 798 942 802 949 q 786 930 794 934 q 768 923 779 926 q 747 915 758 920 q 726 898 736 909 q 707 865 715 886 l 473 107 q 450 48 462 73 q 425 10 439 24 q 358 -18 399 -18 q 311 -5 332 -18 l 375 203 l 568 829 q 573 885 575 866 q 563 913 570 904 q 545 925 555 922 q 525 930 534 927 q 510 940 516 933 q 505 966 504 947 l 636 966 l 689 966 l 739 966 l 802 966 z "},"W":{"ha":1244,"x_min":-8,"x_max":1256,"o":"m 937 168 l 1027 831 q 1030 887 1033 868 q 1018 916 1027 907 q 999 927 1010 925 q 978 933 987 930 q 961 943 968 936 q 956 968 955 950 l 1255 968 q 1250 942 1256 950 q 1234 930 1244 935 q 1211 923 1223 926 q 1186 910 1198 920 q 1165 882 1175 901 q 1151 827 1155 863 l 1048 102 q 1013 14 1039 44 q 945 -16 987 -16 q 916 -12 928 -16 l 937 168 m 886 -4 q 860 33 872 9 q 841 81 848 58 l 623 773 l 408 81 q 367 9 394 34 q 304 -16 340 -16 q 235 14 260 -16 q 201 102 210 44 l 93 849 q 77 891 87 877 q 56 913 67 906 q 33 924 44 921 q 12 931 21 927 q -3 943 3 935 q -7 968 -8 951 l 292 968 q 287 943 293 950 q 270 933 280 936 q 249 927 260 930 q 230 916 238 925 q 218 887 222 907 q 220 831 215 868 l 311 174 l 312 168 l 534 881 q 572 956 551 931 q 623 979 593 979 q 676 956 656 979 q 714 881 696 935 q 812 560 769 702 q 849 441 831 500 q 881 337 867 383 q 903 261 895 290 q 913 229 912 232 l 886 -4 z "},"X":{"ha":1006,"x_min":7,"x_max":996,"o":"m 390 546 l 81 966 q 141 994 109 989 q 170 995 155 996 q 202 986 185 994 q 237 964 219 979 q 272 925 254 949 l 464 647 l 390 546 m 894 79 q 938 51 918 58 q 970 41 957 44 q 990 31 983 37 q 995 2 996 24 q 982 2 991 2 q 960 2 973 2 q 931 1 947 1 q 899 1 916 1 l 816 1 l 675 1 q 681 27 673 20 q 699 38 688 35 q 722 43 710 41 q 743 56 734 46 q 745 61 745 58 l 720 99 q 713 109 716 104 q 707 118 709 113 l 495 433 l 285 121 q 269 95 278 110 q 252 71 259 81 q 248 64 250 68 q 248 56 245 60 q 268 43 256 46 q 290 38 279 41 q 308 27 300 35 q 313 1 315 20 l 179 1 l 100 1 q 69 1 84 1 q 41 2 54 1 q 20 2 28 2 q 8 2 11 2 q 14 31 7 24 q 34 41 20 37 q 68 53 48 45 q 113 87 88 61 q 361 424 245 267 q 461 559 410 491 q 556 689 511 628 q 637 801 601 751 q 694 882 673 851 q 735 932 715 912 q 774 963 755 951 q 810 979 793 975 q 841 985 827 984 q 905 966 875 985 l 574 525 l 894 79 z "},"Y":{"ha":753,"x_min":79,"x_max":669,"o":"m 669 940 l 669 941 l 669 738 q 611 526 669 607 q 436 416 552 446 l 436 127 q 445 81 438 97 q 462 56 452 64 q 481 44 471 47 q 500 36 492 41 q 514 24 509 32 q 518 -1 519 16 l 231 -1 q 235 25 229 18 q 250 37 241 33 q 269 45 258 41 q 290 58 280 48 q 306 87 299 68 q 313 140 312 106 l 313 140 l 313 416 q 138 526 197 446 q 79 738 79 606 l 79 806 l 79 941 q 89 965 79 960 q 111 965 98 970 q 140 948 124 960 q 170 921 156 936 q 193 891 184 906 q 203 865 202 876 q 205 771 205 806 l 205 736 q 248 579 205 633 q 374 524 292 524 q 500 579 456 524 q 545 736 545 633 q 545 774 545 739 q 546 868 545 808 q 555 894 546 879 q 578 924 565 909 q 608 951 592 939 q 638 968 624 964 q 661 968 652 973 q 669 944 669 963 l 669 940 z "},"Z":{"ha":692,"x_min":35,"x_max":670,"o":"m 587 971 l 506 858 l 79 858 q 87 899 79 881 q 105 928 94 916 q 131 949 117 941 q 159 962 145 957 q 236 971 193 973 l 587 971 m 667 -1 l 667 -1 l 511 -1 l 512 -1 l 174 -1 q 67 24 98 -1 q 35 106 35 50 q 102 243 35 147 l 108 252 l 527 833 l 625 971 q 659 939 648 961 q 669 890 669 916 q 662 837 670 863 q 642 790 654 810 q 620 752 634 774 q 583 699 605 730 l 165 119 l 601 119 q 623 133 618 123 q 631 154 627 143 q 641 175 634 165 q 667 184 647 184 l 667 119 l 667 -1 z "},"[":{"ha":453,"x_min":135,"x_max":391,"o":"m 307 -146 q 337 -151 324 -146 q 359 -162 350 -155 q 374 -178 368 -169 q 384 -195 380 -186 q 391 -243 391 -216 l 135 -243 l 135 968 l 391 968 q 379 921 388 942 q 355 888 371 903 q 311 873 339 873 l 246 873 l 246 -146 l 307 -146 z "},"\\":{"ha":376,"x_min":3,"x_max":441,"o":"m 296 -34 q 283 10 292 -20 q 262 81 274 40 q 236 174 250 123 q 205 281 221 224 q 172 397 189 337 q 137 517 154 458 q 3 982 76 728 q 57 972 31 983 q 79 961 68 968 q 102 943 91 954 q 122 917 113 932 q 138 881 131 901 q 149 841 141 869 q 170 772 157 812 q 197 680 182 731 q 229 571 212 629 q 263 453 245 514 q 300 330 281 391 q 441 -152 363 113 q 382 -142 410 -154 q 357 -129 370 -137 q 334 -107 345 -120 q 312 -76 322 -94 q 296 -34 302 -58 z "},"]":{"ha":453,"x_min":61,"x_max":319,"o":"m 208 -140 l 208 880 l 142 880 q 98 895 114 880 q 75 927 82 909 q 63 975 65 948 l 319 975 l 319 -237 l 63 -237 q 69 -189 61 -210 q 78 -172 73 -180 q 94 -156 84 -163 q 116 -145 103 -149 q 147 -140 130 -140 l 208 -140 z "},"^":{"ha":1389,"x_min":0,"x_max":0,"o":""},"_":{"ha":694,"x_min":-78,"x_max":775,"o":"m -78 95 q 262 96 109 95 q 393 96 328 96 q 513 96 458 96 q 608 96 568 96 q 663 96 648 96 q 695 91 681 96 q 721 80 709 87 q 740 64 732 73 q 755 47 749 56 q 775 -1 769 26 q 450 0 599 0 q 323 0 387 0 q 205 0 260 0 q 110 0 151 0 q 50 -1 68 -1 q -17 14 8 -1 q -56 47 -42 29 q -78 95 -72 68 z "},"`":{"ha":694,"x_min":238,"x_max":417,"o":"m 238 973 q 281 977 260 981 q 320 958 300 973 q 358 907 341 943 l 417 758 q 375 751 397 747 q 355 759 366 753 q 334 777 345 765 q 311 806 323 788 q 289 850 300 823 q 285 859 288 852 q 278 875 282 866 q 270 895 274 884 q 261 917 265 906 q 238 973 250 943 z "},"a":{"ha":804,"x_min":43,"x_max":772,"o":"m 707 63 q 714 47 709 52 q 727 39 720 41 q 742 34 734 36 q 756 30 749 33 q 767 21 763 26 q 772 3 772 15 q 770 1 772 1 l 588 1 l 587 1 l 587 330 q 529 498 587 433 q 376 563 470 563 q 224 499 284 563 q 164 335 164 434 q 226 167 164 233 q 382 102 287 102 q 466 117 426 102 q 507 135 486 124 q 548 162 527 146 l 548 35 q 463 1 506 12 q 416 -7 440 -5 q 368 -10 393 -10 q 275 4 321 -10 q 191 45 229 19 q 81 168 119 94 q 43 332 43 242 q 137 577 43 480 q 375 673 231 673 q 549 626 471 673 q 620 568 589 602 q 670 494 650 533 q 687 455 680 475 q 699 412 694 434 q 707 278 707 366 l 707 63 l 707 63 z "},"b":{"ha":781,"x_min":75,"x_max":739,"o":"m 701 492 q 739 330 739 420 q 645 83 739 179 q 408 -14 550 -14 q 232 35 312 -14 q 111 167 153 82 q 94 205 101 185 q 83 248 87 226 q 75 382 75 293 l 75 875 l 75 964 l 256 964 q 259 961 259 964 q 249 938 258 944 q 229 930 240 932 q 208 922 218 927 q 194 903 197 918 l 194 330 q 252 161 194 226 q 405 98 311 98 q 559 161 500 98 q 618 331 618 226 q 557 495 618 431 q 524 524 542 511 q 486 545 506 536 q 445 557 467 553 q 401 558 423 561 q 322 559 354 550 q 270 583 290 569 q 233 625 247 600 q 319 659 274 648 q 413 670 362 670 q 507 656 460 670 q 591 615 553 640 q 701 492 663 564 z "},"c":{"ha":533,"x_min":43,"x_max":491,"o":"m 241 488 q 166 329 166 427 q 241 171 166 231 q 243 170 241 171 l 240 172 q 274 149 257 159 q 407 113 331 117 l 429 113 q 445 120 439 115 q 452 134 450 126 q 457 151 455 142 q 461 166 458 159 q 470 179 465 174 q 488 184 476 184 q 491 182 491 184 l 490 -1 l 431 -1 l 423 -1 l 401 0 q 149 90 245 7 q 43 331 43 181 q 81 482 43 412 q 188 600 119 552 q 291 646 237 632 q 358 657 323 655 q 431 661 392 659 l 490 661 l 490 547 l 490 478 q 488 475 490 475 q 471 481 477 476 q 462 493 465 486 q 457 509 459 500 q 453 525 456 517 q 445 539 450 533 q 429 547 439 545 q 322 533 368 550 q 241 488 276 516 z "},"d":{"ha":781,"x_min":51,"x_max":716,"o":"m 89 488 q 199 612 127 561 q 283 652 237 637 q 378 667 330 667 q 471 656 428 667 q 557 621 516 644 q 519 580 543 597 q 468 556 500 566 q 389 555 436 547 q 345 554 367 557 q 304 542 323 550 q 266 520 284 533 q 233 492 248 507 q 172 328 172 429 q 231 158 172 223 q 386 94 290 94 q 538 158 479 94 q 596 326 596 222 l 596 899 q 583 919 593 914 q 561 926 572 924 q 541 935 550 929 q 531 958 532 941 q 534 960 531 960 l 716 960 l 716 871 l 716 378 q 714 300 716 334 q 707 245 711 267 q 680 163 699 201 q 558 31 637 79 q 382 -18 479 -18 q 145 80 239 -18 q 51 326 51 178 q 89 488 51 414 z "},"e":{"ha":753,"x_min":45,"x_max":707,"o":"m 578 216 q 633 257 609 244 q 673 273 657 269 q 707 275 692 278 q 691 211 701 240 q 668 156 682 181 q 638 108 655 130 q 598 65 621 85 q 380 -17 508 -17 q 293 -5 336 -17 q 212 30 250 7 q 90 157 134 77 q 45 328 45 235 q 52 395 45 363 q 71 459 58 428 q 144 571 96 521 q 252 646 192 620 q 381 671 315 671 q 561 618 481 671 q 689 465 640 565 l 256 224 q 256 284 249 254 q 283 339 262 310 q 351 393 304 368 q 363 401 354 395 q 386 414 372 406 q 414 430 399 421 q 446 448 430 439 q 527 494 483 469 q 460 543 498 526 q 380 560 425 560 q 230 494 291 560 q 169 330 169 427 q 230 166 169 232 q 380 99 291 99 q 521 155 465 99 q 551 186 540 171 q 578 216 562 201 z "},"f":{"ha":537,"x_min":2,"x_max":570,"o":"m 198 125 q 206 79 199 96 q 222 54 213 62 q 241 42 231 45 q 259 35 251 39 q 273 24 268 31 q 277 0 277 16 l 3 0 q 7 24 2 16 q 20 35 12 31 q 39 42 28 39 q 58 54 49 45 q 73 80 66 63 q 81 128 79 97 l 81 719 q 151 903 81 842 q 360 965 219 965 l 418 965 l 436 965 q 450 965 444 965 q 460 965 456 964 q 518 947 496 964 q 551 908 540 929 q 570 852 565 883 l 431 852 l 363 852 q 238 814 277 852 q 198 698 198 778 l 198 125 m 431 661 q 489 643 467 660 q 524 604 511 625 q 543 549 537 580 l 238 549 l 238 661 l 431 661 z "},"g":{"ha":781,"x_min":48,"x_max":700,"o":"m 700 31 q 611 -228 700 -133 q 508 -302 566 -275 q 372 -330 449 -330 q 346 -330 363 -330 q 307 -330 329 -330 q 262 -330 286 -330 q 219 -329 239 -330 q 187 -328 200 -329 q 173 -325 174 -327 q 187 -263 176 -287 q 215 -228 198 -240 q 253 -210 231 -215 q 298 -203 274 -205 q 350 -200 323 -201 q 405 -194 377 -199 q 459 -177 432 -189 q 513 -142 487 -165 q 562 -73 541 -113 q 583 20 583 -33 l 583 328 q 525 500 583 434 q 375 566 467 566 q 225 500 284 566 q 175 333 167 436 q 185 286 177 308 q 207 245 194 264 q 234 211 219 227 q 264 185 249 196 q 323 161 287 169 q 397 149 359 153 q 469 144 435 145 q 523 143 503 144 l 517 18 q 485 12 511 14 q 421 12 458 9 q 338 24 383 15 q 249 51 293 33 q 164 96 204 68 q 98 165 124 124 q 61 242 75 201 q 48 330 48 283 q 140 580 48 481 q 374 679 233 679 q 545 630 467 679 q 664 496 622 582 q 692 412 684 456 q 700 275 700 366 l 700 31 z "},"h":{"ha":772,"x_min":1,"x_max":726,"o":"m 647 117 q 655 74 648 89 q 670 51 661 58 q 689 40 680 43 q 708 33 699 37 q 721 22 716 29 q 725 0 726 16 l 604 0 l 451 0 q 455 22 450 15 q 468 33 460 29 q 486 39 476 37 q 505 50 496 42 q 520 72 514 58 q 529 113 527 86 l 529 355 q 484 473 529 427 q 431 507 460 495 q 366 518 402 518 q 248 473 295 518 q 244 468 246 470 q 239 463 241 466 l 239 600 q 366 625 294 625 q 570 546 494 625 q 646 334 646 469 l 646 117 l 647 117 m 199 122 q 208 78 201 94 q 223 55 214 63 q 242 44 232 47 q 260 37 252 41 q 273 25 268 33 q 277 1 277 18 l 3 1 q 6 24 1 17 q 19 36 11 32 q 36 42 26 39 q 55 53 45 45 q 71 74 64 60 q 80 113 77 87 l 80 966 q 140 951 113 968 q 161 930 151 943 q 180 898 172 918 q 194 849 189 878 q 199 783 199 821 l 199 122 z "},"i":{"ha":363,"x_min":50,"x_max":332,"o":"m 250 134 q 257 83 251 101 q 273 56 264 65 q 293 43 282 46 q 312 35 303 39 q 326 24 321 31 q 330 -1 332 16 l 52 -1 q 56 24 50 16 q 70 35 61 31 q 89 42 79 39 q 109 55 100 46 q 124 82 118 64 q 132 134 131 100 l 132 661 q 194 637 167 660 q 216 611 205 627 q 235 572 227 595 q 248 516 243 548 q 250 440 252 484 l 250 134 m 248 724 q 197 741 220 729 q 158 767 176 750 q 133 813 139 785 l 133 924 q 184 916 161 924 q 204 906 194 913 q 222 890 214 900 q 238 867 231 881 q 248 836 245 854 l 248 829 l 248 724 z "},"j":{"ha":283,"x_min":-244,"x_max":203,"o":"m 198 712 q 146 728 170 717 q 108 755 127 738 q 83 801 89 772 l 83 911 q 134 904 111 912 q 173 878 154 897 q 198 823 191 860 l 198 817 l 198 712 m 202 350 l 202 -5 q 193 -100 201 -55 q 185 -139 190 -119 q 172 -177 180 -159 q 155 -212 165 -195 q 132 -239 144 -228 q 47 -284 95 -269 q -71 -300 -1 -300 l -244 -300 q -226 -237 -239 -260 q -192 -204 -213 -215 q -144 -189 -172 -193 q -83 -184 -116 -186 q -30 -177 -55 -182 q 12 -166 -9 -173 q 43 -150 33 -160 q 74 -101 64 -130 q 83 -31 83 -72 l 83 656 q 146 632 119 655 q 168 606 157 622 q 187 567 179 591 q 199 511 195 543 q 202 435 203 478 l 202 350 z "},"k":{"ha":706,"x_min":3,"x_max":692,"o":"m 614 116 q 623 74 616 89 q 639 52 630 60 q 657 41 648 45 q 675 34 667 38 q 687 23 683 31 q 691 -1 692 16 l 418 -1 q 422 24 417 16 q 436 35 427 31 q 454 42 444 39 q 474 55 465 45 q 489 82 483 64 q 496 133 495 100 l 496 133 q 496 168 496 146 q 496 215 496 190 q 494 267 495 241 q 491 315 493 293 q 486 353 489 338 q 480 374 484 369 q 453 395 469 386 q 409 410 437 404 q 341 419 382 416 q 241 422 300 422 l 241 543 q 278 545 260 543 q 315 551 297 547 q 348 561 332 555 q 373 575 363 567 q 390 595 380 581 q 413 629 401 609 q 440 673 426 649 q 467 722 454 697 q 492 772 480 747 q 513 817 504 796 q 531 843 520 831 q 555 861 542 854 q 582 873 568 869 q 610 881 596 878 q 680 884 643 887 l 574 661 q 516 561 543 591 q 448 513 488 529 q 512 493 486 507 q 560 460 538 480 q 570 448 564 456 q 583 425 576 439 q 595 391 589 410 q 604 347 601 371 q 608 286 606 318 q 611 222 610 254 q 613 163 612 191 q 614 116 614 135 m 201 120 q 209 76 203 92 q 225 53 216 61 q 244 42 234 45 q 262 35 254 39 q 275 24 270 31 q 278 0 279 16 l 5 0 q 8 23 3 16 q 21 35 13 31 q 38 41 28 39 q 56 52 47 44 q 72 73 65 59 q 82 112 79 86 l 82 964 q 142 949 115 967 q 163 929 153 942 q 182 896 174 916 q 196 848 191 876 q 201 782 201 820 q 201 748 201 779 q 201 671 201 718 q 201 565 201 624 q 201 444 201 505 l 201 120 z "},"l":{"ha":332,"x_min":26,"x_max":302,"o":"m 223 120 q 232 76 225 92 q 248 53 239 60 q 266 41 256 45 q 284 34 276 38 q 297 23 292 31 q 301 -1 302 16 l 167 -1 q 117 -1 141 -1 q 73 0 92 -1 q 41 0 54 0 q 27 0 28 0 q 31 23 26 16 q 43 34 35 31 q 60 41 51 38 q 79 51 70 44 q 95 72 88 58 q 104 111 102 85 l 104 964 q 164 949 138 966 q 186 928 175 941 q 205 896 197 916 q 218 847 213 876 q 223 781 223 819 l 223 120 l 223 120 z "},"m":{"ha":1079,"x_min":-7,"x_max":1076,"o":"m 528 618 q 503 584 515 602 q 485 549 494 568 q 472 509 475 529 q 454 526 466 517 q 426 542 441 534 q 391 554 410 549 q 354 559 372 559 q 237 509 282 559 q 191 382 191 460 l 191 113 q 200 73 193 87 q 216 52 207 59 q 235 42 225 45 q 252 35 244 39 q 264 23 260 31 q 268 0 269 16 l -6 0 q -2 24 -7 16 q 12 35 3 31 q 30 42 20 39 q 50 54 41 45 q 65 80 58 63 q 73 128 71 97 l 73 360 q 149 589 73 504 q 354 673 227 673 q 528 618 457 673 m 555 589 q 743 673 626 673 q 931 589 861 673 q 1002 360 1002 504 l 1002 128 q 1009 80 1003 97 q 1023 54 1015 63 q 1041 42 1031 45 q 1058 35 1050 39 q 1071 24 1066 31 q 1074 0 1076 16 l 823 0 q 826 23 821 16 q 837 35 830 31 q 853 42 844 39 q 870 52 862 45 q 885 73 878 59 q 893 113 891 87 l 893 382 q 851 509 893 461 q 743 559 810 559 q 635 509 677 559 q 593 382 593 461 l 593 144 q 581 69 593 102 q 569 42 576 55 q 549 18 561 28 q 522 1 538 7 q 486 -5 507 -5 l 486 360 q 555 589 486 505 z "},"n":{"ha":711,"x_min":-9,"x_max":712,"o":"m -8 -1 q -4 23 -9 16 q 9 35 1 31 q 28 42 18 39 q 47 54 39 45 q 63 79 56 62 q 71 127 69 96 l 71 360 q 148 589 71 504 q 353 673 224 673 q 557 589 480 673 q 633 360 633 505 l 633 125 q 641 79 634 95 q 656 54 648 62 q 675 42 665 45 q 694 35 686 39 q 707 23 703 31 q 711 -1 712 16 l 591 -1 l 437 -1 q 441 23 436 16 q 454 35 446 31 q 472 42 463 39 q 491 53 482 45 q 507 77 500 61 q 515 121 513 92 l 515 382 q 470 509 515 460 q 353 558 424 558 q 235 509 281 558 q 189 382 189 459 l 189 113 q 198 73 191 87 q 214 51 205 58 q 233 41 223 44 q 250 34 242 38 q 262 22 258 30 q 266 -1 267 15 l -8 -1 z "},"o":{"ha":755,"x_min":44,"x_max":713,"o":"m 44 332 q 70 463 44 399 q 144 574 95 524 q 252 648 192 623 q 378 673 311 673 q 507 648 448 673 q 614 574 568 623 q 688 463 663 525 q 713 332 713 402 q 688 199 713 261 q 614 87 662 135 q 507 14 568 39 q 378 -12 446 -12 q 252 14 313 -12 q 144 87 192 39 q 70 199 95 137 q 44 332 44 262 m 168 333 q 229 170 168 237 q 378 102 292 102 q 528 170 466 102 q 590 333 590 237 q 528 496 590 428 q 378 562 466 562 q 229 496 292 562 q 168 333 168 428 z "},"p":{"ha":781,"x_min":-7,"x_max":736,"o":"m 642 576 q 736 330 736 479 q 698 168 736 240 q 588 45 660 94 q 504 4 551 19 q 457 -7 480 -3 q 410 -10 434 -10 q 316 1 359 -10 q 231 35 273 12 q 267 76 244 59 q 319 99 287 90 q 398 101 351 109 q 484 115 443 96 q 555 165 524 133 q 616 328 616 228 q 556 498 616 434 q 401 562 498 562 q 250 498 307 562 q 191 330 191 435 l 191 -197 q 201 -234 194 -221 q 217 -254 208 -248 q 235 -264 226 -261 q 252 -271 245 -267 q 264 -283 260 -275 q 268 -306 269 -290 l -6 -306 q -2 -282 -7 -290 q 11 -271 3 -275 q 28 -264 18 -267 q 47 -254 38 -261 q 62 -232 56 -246 q 71 -190 69 -217 l 71 278 q 74 356 71 323 q 80 412 76 389 q 108 492 88 455 q 229 625 149 576 q 404 673 309 673 q 642 576 547 673 z "},"q":{"ha":781,"x_min":43,"x_max":786,"o":"m 137 576 q 375 673 232 673 q 550 625 470 673 q 671 492 630 576 q 699 412 691 455 q 708 278 708 368 l 708 -227 q 717 -268 710 -254 q 732 -291 724 -283 q 751 -301 741 -298 q 769 -309 761 -304 q 781 -320 777 -313 q 785 -343 786 -327 l 511 -343 q 515 -320 511 -328 q 527 -309 519 -313 q 545 -301 535 -304 q 563 -292 554 -298 q 579 -271 572 -285 q 589 -233 586 -258 l 589 330 q 530 498 589 433 q 378 562 472 562 q 223 498 281 562 q 164 328 164 433 q 224 165 164 229 q 296 115 255 133 q 381 101 336 96 q 460 99 428 109 q 511 76 492 90 q 549 35 534 59 q 463 1 507 12 q 370 -10 420 -10 q 322 -7 346 -10 q 276 4 299 -3 q 191 45 231 18 q 81 168 119 96 q 43 330 43 242 q 137 576 43 479 z "},"r":{"ha":505,"x_min":1,"x_max":544,"o":"m 273 648 q 367 669 324 668 q 442 661 409 671 q 497 634 475 651 q 532 601 520 617 q 544 572 543 584 q 532 559 544 559 q 500 559 515 559 q 475 559 486 559 l 451 559 q 391 556 420 559 q 336 547 362 553 q 289 529 310 541 q 253 501 267 518 q 213 425 227 471 q 199 313 199 378 l 199 113 q 208 74 201 87 q 224 53 215 60 q 243 42 233 45 q 260 35 252 39 q 272 24 268 31 q 276 1 277 16 l 2 1 q 6 24 1 17 q 19 36 11 32 q 37 43 27 40 q 56 54 47 46 q 72 78 65 62 q 80 123 78 94 l 80 661 l 189 661 l 189 564 q 273 648 220 623 z "},"s":{"ha":602,"x_min":50,"x_max":555,"o":"m 50 -1 l 50 157 q 52 159 50 159 q 70 151 66 158 q 77 135 75 144 q 83 119 79 127 q 100 110 87 112 l 312 110 q 363 111 340 110 q 401 123 387 113 q 423 142 416 134 q 429 169 429 151 q 424 196 430 184 q 406 219 417 208 q 388 232 400 225 q 362 245 376 238 q 330 259 347 252 q 298 273 313 266 l 180 330 q 85 401 116 361 q 54 494 54 441 q 111 611 54 568 q 178 644 140 633 q 267 656 216 656 l 521 659 q 520 649 521 657 q 516 630 520 642 q 504 606 513 619 q 477 582 495 593 q 432 563 460 571 q 363 554 405 555 l 259 552 q 195 532 219 552 q 179 515 184 523 q 175 492 175 508 q 178 470 175 478 q 192 452 182 463 q 205 443 197 446 q 224 434 213 439 q 250 424 235 430 q 284 409 264 418 l 373 374 q 439 340 407 358 q 492 307 471 322 q 519 278 507 296 q 539 242 531 261 q 551 203 547 222 q 555 171 555 184 q 537 99 555 129 q 488 45 518 69 q 447 25 473 34 q 392 11 422 16 q 331 2 362 5 q 271 -1 299 -1 l 119 -1 l 50 -1 z "},"t":{"ha":437,"x_min":74,"x_max":406,"o":"m 225 665 l 239 665 q 264 664 252 664 l 296 664 q 354 646 332 663 q 387 607 376 628 q 406 551 401 583 l 252 551 l 224 551 l 225 665 m 391 161 q 393 159 393 160 l 393 1 l 393 1 l 353 1 q 339 1 346 1 q 325 1 332 1 l 323 1 q 144 62 205 7 q 74 246 74 123 l 74 707 l 74 709 l 74 736 q 93 797 75 774 q 134 831 111 819 q 193 851 159 846 l 193 690 l 193 661 l 193 267 q 231 151 193 187 q 346 114 268 116 q 360 124 357 117 q 366 139 364 132 q 373 154 368 147 q 391 161 377 160 z "},"u":{"ha":711,"x_min":73,"x_max":635,"o":"m 635 300 q 596 125 635 197 l 596 126 q 559 72 581 96 q 354 -12 481 -12 q 149 72 227 -12 l 149 73 l 149 72 q 128 97 138 84 q 111 125 119 111 q 73 300 73 197 l 73 663 q 132 647 105 663 q 153 629 142 640 q 172 600 163 617 q 185 559 180 583 q 190 503 190 535 l 190 279 l 191 279 q 237 152 191 200 q 354 102 282 102 q 472 152 427 102 l 471 152 q 484 167 479 159 q 494 184 490 175 q 517 279 517 226 l 518 279 l 518 503 q 523 559 518 535 q 536 600 528 583 q 554 629 544 617 q 576 647 565 640 q 635 663 602 663 l 635 300 l 635 300 z "},"v":{"ha":624,"x_min":-5,"x_max":621,"o":"m 614 665 q 618 664 616 665 q 618 655 621 661 q 606 625 614 646 q 584 567 598 605 l 420 111 q 374 16 399 43 q 308 -12 347 -12 q 243 16 269 -12 q 222 53 230 29 q 203 110 214 76 l 203 109 l 33 562 q 10 620 18 600 q -2 649 1 640 q -3 658 -5 655 q 1 659 -1 659 q 64 648 33 661 q 92 633 77 642 q 119 610 106 624 q 144 576 132 595 q 166 530 157 556 l 310 157 l 448 532 q 468 579 456 559 q 494 613 480 599 q 522 637 507 627 q 549 652 536 646 q 614 665 581 666 z "},"w":{"ha":1079,"x_min":4,"x_max":1072,"o":"m 1065 665 q 1069 664 1067 665 q 1069 655 1072 661 q 1057 626 1065 646 q 1035 567 1048 606 l 871 111 q 824 16 850 43 q 759 -12 798 -12 q 693 16 719 -12 q 673 53 681 30 q 654 110 665 76 l 653 110 l 539 412 l 431 107 q 383 13 409 39 q 317 -15 357 -15 q 252 12 278 -15 q 232 49 239 26 q 213 106 224 73 l 212 106 l 43 558 q 20 616 28 596 q 7 646 12 636 q 7 654 4 652 q 11 656 8 656 q 75 644 43 657 q 102 630 87 639 q 129 606 116 621 q 155 572 142 592 q 176 526 167 553 l 319 153 l 457 529 q 469 557 463 545 q 481 581 475 570 q 527 615 504 608 q 548 616 537 618 q 570 605 559 614 q 594 578 582 596 q 617 530 606 560 l 761 157 l 898 532 q 919 579 907 559 q 944 613 931 599 q 972 637 958 627 q 1000 652 986 646 q 1065 665 1031 666 z "},"x":{"ha":663,"x_min":3,"x_max":663,"o":"m 385 1 q 392 26 385 18 q 407 36 399 33 q 424 41 416 39 q 436 48 433 42 q 437 66 440 54 q 420 104 435 79 l 331 239 l 245 109 q 225 68 229 82 q 225 49 222 55 q 237 41 229 43 q 253 36 245 39 q 269 25 262 33 q 276 1 275 18 l 3 1 q 10 27 5 21 q 24 36 15 33 q 48 45 34 39 q 83 75 62 52 q 98 95 90 83 q 117 120 106 106 q 168 191 139 151 q 230 276 197 231 q 245 297 237 286 q 261 318 253 307 l 37 627 l 49 637 q 54 642 50 638 q 66 650 58 646 q 86 658 75 654 q 111 661 97 661 q 132 659 121 661 q 155 650 143 656 q 199 607 179 636 l 325 422 l 330 415 q 367 467 349 441 q 399 515 385 492 q 427 556 414 538 q 447 587 439 574 q 476 623 462 608 q 506 646 491 637 q 534 659 520 656 q 559 663 547 663 q 579 661 570 663 q 595 655 589 659 q 610 647 608 649 l 623 636 l 404 332 l 574 92 q 603 61 591 71 q 625 45 615 50 q 641 38 634 40 q 651 32 647 35 q 659 22 656 29 q 663 1 661 15 l 524 1 q 472 1 497 1 q 428 1 448 1 q 396 1 408 1 q 385 1 385 1 z "},"y":{"ha":711,"x_min":20,"x_max":701,"o":"m 700 637 q 692 607 701 614 q 669 596 683 600 q 640 584 655 592 q 612 552 624 576 l 454 139 l 454 138 l 276 -312 q 254 -370 261 -350 q 243 -400 246 -391 q 237 -407 240 -407 q 233 -406 235 -407 q 194 -353 208 -384 q 184 -324 188 -340 q 179 -288 180 -308 q 183 -246 179 -269 q 199 -197 188 -223 l 275 -7 q 271 -3 273 -5 q 267 2 269 -1 q 220 96 240 31 l 56 553 q 34 611 42 591 q 22 641 26 631 q 21 646 20 644 q 22 650 21 648 q 26 651 24 651 q 91 638 59 652 q 119 623 104 632 q 146 598 133 613 q 171 564 159 584 q 193 517 183 544 l 332 137 l 471 505 q 479 556 480 538 q 470 583 477 574 q 452 594 463 591 q 431 601 441 597 q 414 611 421 604 q 409 637 408 618 l 536 637 l 700 637 l 700 637 z "},"z":{"ha":579,"x_min":28,"x_max":539,"o":"m 324 657 l 420 656 q 433 655 427 656 q 439 651 437 654 q 438 645 441 649 q 419 620 433 637 q 390 587 406 604 q 357 557 374 570 q 328 544 340 545 q 236 544 285 544 q 144 545 186 545 q 72 545 101 545 q 41 545 43 545 q 48 581 41 566 q 66 609 55 597 q 92 629 77 621 q 121 642 106 637 q 202 657 157 654 l 324 657 m 539 0 l 539 -1 l 414 -1 l 414 0 l 140 0 q 54 16 81 0 q 28 72 28 33 q 29 88 28 79 q 32 109 29 97 q 42 134 35 121 q 62 164 49 148 l 67 170 l 406 563 q 441 605 425 587 q 468 633 455 621 q 486 644 481 646 q 513 626 501 639 q 532 597 526 613 q 537 565 538 581 q 526 535 536 548 q 508 506 521 525 q 477 467 494 488 l 163 111 l 486 111 q 503 120 499 113 q 510 134 507 127 q 518 148 513 142 q 539 154 523 154 l 539 111 l 539 0 z "},"{":{"ha":694,"x_min":0,"x_max":0,"o":""},"|":{"ha":694,"x_min":295,"x_max":398,"o":"m 296 -339 q 295 231 295 -26 l 295 874 q 312 944 296 918 q 347 985 328 970 q 398 1009 370 1002 l 398 457 q 398 315 398 386 q 398 178 398 244 q 398 53 398 112 q 398 -55 398 -7 q 398 -136 398 -102 q 398 -184 398 -170 q 382 -266 398 -235 q 347 -313 367 -296 q 296 -339 325 -332 z "},"}":{"ha":694,"x_min":0,"x_max":0,"o":""},"~":{"ha":1157,"x_min":0,"x_max":0,"o":""},"":{"ha":833,"x_min":-3,"x_max":826,"o":"m 749 146 q 755 91 749 111 q 770 61 761 71 q 788 47 779 52 q 807 39 798 43 q 821 28 815 35 q 825 3 826 20 q 825 1 825 3 q 821 0 825 0 q 719 0 760 0 q 649 1 678 1 q 601 1 621 1 q 562 1 581 1 q 559 2 559 1 q 558 5 558 3 q 564 28 558 21 q 577 40 569 36 q 595 47 585 43 q 614 62 606 52 q 628 91 623 72 q 635 146 634 111 l 635 456 q 489 456 557 456 l 283 456 q 266 458 270 456 q 262 465 262 461 q 264 471 262 468 q 265 474 266 474 q 333 540 294 518 q 413 570 372 562 q 494 577 454 578 q 566 576 534 577 q 617 580 597 576 q 637 602 637 585 q 637 637 638 612 q 632 692 636 662 q 620 752 628 722 q 596 803 611 782 q 566 836 584 820 q 528 863 549 851 q 483 881 507 874 q 435 888 459 888 q 385 881 410 888 q 337 863 360 874 q 295 836 315 851 q 263 804 276 821 q 210 610 210 737 q 210 455 210 522 q 210 339 210 388 q 210 257 210 290 q 210 201 210 223 q 210 166 210 179 q 210 146 210 153 q 218 91 211 110 q 234 61 224 71 q 255 47 244 51 q 276 39 267 43 q 291 26 285 35 q 295 0 296 18 q 178 0 225 0 q 98 1 131 1 q 42 1 65 1 q -1 1 20 1 q 3 27 -3 19 q 18 39 9 35 q 38 47 27 43 q 59 61 50 51 q 76 91 69 71 q 83 146 83 110 l 83 391 l 83 613 q 174 889 83 788 q 416 991 264 991 q 657 889 566 991 q 748 613 748 788 l 749 146 m 468 1169 q 488 1217 468 1196 q 536 1238 509 1238 q 583 1217 563 1238 q 602 1169 602 1197 q 583 1121 602 1141 q 536 1101 564 1101 q 488 1121 507 1101 q 468 1169 468 1141 m 231 1169 q 250 1217 231 1197 q 297 1238 270 1238 q 345 1217 324 1238 q 365 1169 365 1196 q 345 1121 365 1141 q 297 1101 326 1101 q 250 1121 269 1101 q 231 1169 231 1141 z "},"":{"ha":833,"x_min":79,"x_max":754,"o":"m 325 1179 q 352 1115 325 1141 q 416 1089 378 1089 q 481 1115 454 1089 q 507 1179 507 1141 q 481 1244 507 1217 q 416 1271 454 1271 q 352 1244 378 1271 q 325 1179 325 1217 m 258 1181 q 304 1292 258 1247 q 416 1337 350 1337 q 529 1292 484 1337 q 574 1181 574 1247 q 528 1068 574 1114 q 416 1022 483 1022 q 304 1068 350 1022 q 258 1181 258 1114 m 625 0 l 625 446 l 248 446 l 248 568 l 625 568 l 625 607 q 571 801 625 734 q 416 868 517 868 q 262 801 315 868 q 208 607 208 734 l 208 0 l 79 0 l 79 610 q 171 885 79 783 q 416 987 263 987 q 662 885 570 987 q 754 610 754 783 l 754 0 l 625 0 z "},"":{"ha":692,"x_min":31,"x_max":635,"o":"m 277 758 q 163 487 163 658 q 277 216 163 315 q 553 117 380 125 q 579 133 571 118 q 592 165 587 147 q 604 198 597 182 q 627 216 610 213 q 633 215 631 216 q 635 210 635 214 l 635 0 l 597 0 q 408 18 490 0 q 270 68 325 34 q 92 246 153 140 q 31 487 31 353 q 92 726 31 620 q 270 903 153 832 q 408 954 325 937 q 597 972 490 972 l 635 971 l 635 868 q 635 830 635 848 q 635 797 635 812 q 635 773 635 783 q 635 764 635 764 q 633 759 635 760 q 628 758 631 758 q 610 768 617 760 q 599 787 604 776 q 591 810 595 798 q 584 833 588 823 q 573 850 579 843 q 557 857 567 857 q 277 758 382 850 z "},"":{"ha":705,"x_min":44,"x_max":650,"o":"m 642 217 q 648 216 646 216 q 650 210 650 215 l 650 0 l 612 0 q 510 4 557 0 q 422 17 463 9 q 283 68 338 35 q 105 247 166 140 q 67 327 83 287 q 47 414 52 367 l 180 414 q 217 304 189 351 q 290 216 244 257 q 568 117 394 125 q 594 133 586 118 q 607 165 602 147 q 618 198 612 182 q 642 217 625 214 m 650 869 q 650 831 650 850 q 650 798 650 813 q 650 774 650 783 q 650 765 650 765 q 648 759 650 760 q 643 758 646 758 q 625 768 632 760 q 614 787 618 777 q 606 811 609 798 q 598 833 602 823 q 587 850 593 844 q 571 857 581 857 q 290 758 395 850 q 182 564 203 682 q 247 564 212 564 q 316 564 281 564 q 383 564 351 564 q 442 563 416 564 q 485 562 468 563 q 507 561 503 562 q 539 552 522 559 q 573 534 556 545 q 603 508 589 523 q 623 473 617 492 q 624 468 624 471 q 622 462 625 465 q 613 457 620 459 q 593 456 606 456 l 263 456 l 263 456 l 142 456 l 45 456 q 44 469 45 463 q 44 478 44 474 l 44 486 q 105 726 44 619 q 283 904 165 832 q 422 956 338 937 q 612 972 503 972 l 650 972 l 650 869 m 650 1261 l 516 1096 q 464 1046 489 1061 q 420 1027 439 1031 q 377 1027 397 1022 l 479 1199 q 504 1230 491 1217 q 532 1250 517 1242 q 560 1261 546 1257 q 588 1266 574 1265 q 650 1261 619 1269 z "},"":{"ha":875,"x_min":12,"x_max":878,"o":"m 505 1089 q 416 1089 461 1089 q 333 1089 370 1089 q 272 1090 296 1090 q 245 1091 248 1090 q 257 1127 248 1112 q 277 1153 265 1142 q 304 1171 290 1164 q 334 1183 319 1179 q 411 1192 368 1193 l 520 1192 l 668 1191 q 644 1140 663 1162 q 624 1121 636 1131 q 595 1104 612 1112 q 556 1093 578 1097 q 505 1089 534 1089 m 267 961 q 319 888 295 937 l 627 241 l 627 7 q 599 41 616 20 q 570 84 582 62 l 218 817 l 218 146 q 225 91 218 111 q 241 61 231 71 q 262 47 251 51 q 281 39 273 43 q 296 27 290 35 q 300 1 302 19 l 174 1 l 13 1 q 17 27 12 19 q 32 39 23 35 q 52 47 41 43 q 72 61 62 51 q 89 91 82 71 q 96 146 95 111 l 96 843 q 123 948 96 912 q 201 985 150 985 q 267 961 237 985 m 877 974 q 872 947 878 956 q 858 935 867 939 q 838 927 849 930 q 818 913 827 923 q 801 883 808 903 q 794 827 795 863 l 794 128 q 767 24 794 63 q 691 -13 740 -13 q 681 -12 685 -13 q 671 -10 676 -12 l 670 827 q 663 883 669 863 q 646 913 656 903 q 626 927 637 923 q 605 935 614 931 q 590 947 596 939 q 586 974 585 956 l 749 974 l 877 974 z "},"":{"ha":1074,"x_min":49,"x_max":1029,"o":"m 49 490 q 85 681 49 590 q 193 843 122 771 q 352 951 263 914 q 539 988 439 988 q 726 950 635 988 q 810 904 770 931 q 885 842 850 878 q 992 680 956 768 q 1029 490 1029 589 q 991 297 1029 387 q 885 136 955 207 q 810 72 850 99 q 726 26 770 45 q 539 -12 637 -12 q 352 26 439 -12 q 193 134 263 63 q 85 297 122 207 q 49 490 49 387 m 180 490 q 186 415 180 452 q 207 344 193 378 q 286 220 234 276 q 341 173 312 194 q 403 139 370 153 q 539 111 469 111 q 675 139 611 111 q 736 173 708 153 q 791 220 765 194 q 836 280 817 249 q 869 345 856 311 q 897 490 897 414 q 890 565 897 529 q 870 635 884 601 q 791 758 844 702 q 736 806 765 786 q 675 841 708 827 q 539 869 611 869 q 402 842 468 869 q 286 760 337 813 q 206 636 234 705 q 180 490 180 568 m 589 1169 q 610 1217 589 1196 q 657 1238 630 1238 q 704 1217 684 1238 q 724 1169 724 1197 q 705 1121 724 1141 q 657 1101 686 1101 q 609 1121 629 1101 q 589 1169 589 1141 m 352 1169 q 372 1217 352 1197 q 418 1238 391 1238 q 466 1217 446 1238 q 486 1169 486 1196 q 467 1121 486 1141 q 418 1101 447 1101 q 371 1121 390 1101 q 352 1169 352 1141 z "},"":{"ha":833,"x_min":-14,"x_max":831,"o":"m 830 969 q 826 943 831 951 q 811 931 820 935 q 790 923 802 926 q 769 910 779 920 q 752 882 760 901 q 745 829 745 863 l 745 362 q 653 88 745 190 q 408 -14 562 -14 q 165 88 255 -14 q 73 362 73 189 l 73 837 q 64 885 71 868 q 46 911 56 903 q 26 924 37 920 q 6 932 15 928 q -8 944 -3 936 q -12 970 -14 952 l 286 970 q 282 944 288 951 q 268 931 277 936 q 248 923 258 927 q 227 910 237 920 q 210 883 217 901 q 201 831 203 865 l 201 368 q 254 175 201 242 q 408 109 309 109 q 563 175 509 109 q 616 368 616 243 l 616 838 q 607 886 614 869 q 590 911 600 903 q 570 924 581 920 q 550 931 559 927 q 535 944 541 936 q 531 969 530 951 l 830 969 l 830 969 m 468 1169 q 488 1217 468 1196 q 536 1238 509 1238 q 583 1217 563 1238 q 602 1169 602 1197 q 583 1121 602 1141 q 536 1101 564 1101 q 488 1121 507 1101 q 468 1169 468 1141 m 231 1169 q 250 1217 231 1197 q 297 1238 270 1238 q 345 1217 324 1238 q 365 1169 365 1196 q 345 1121 365 1141 q 297 1101 326 1101 q 250 1121 269 1101 q 231 1169 231 1141 z "},"":{"ha":781,"x_min":43,"x_max":772,"o":"m 568 941 l 433 777 q 381 727 406 742 q 337 708 357 712 q 294 708 315 703 l 397 880 q 421 910 408 898 q 449 930 435 922 q 477 942 463 938 q 505 947 492 945 q 568 941 536 949 m 707 63 l 707 278 q 699 412 707 366 q 687 455 694 434 q 670 494 680 475 q 620 568 650 533 q 549 626 589 602 q 375 673 471 673 q 137 577 231 673 q 43 332 43 480 q 81 168 43 242 q 191 45 119 94 q 275 4 229 19 q 368 -10 321 -10 q 416 -7 393 -10 q 463 1 440 -5 q 548 35 506 12 l 548 162 q 507 135 527 146 q 466 117 486 124 q 382 102 426 102 q 226 167 287 102 q 164 335 164 233 q 224 499 164 434 q 376 563 284 563 q 529 498 470 563 q 587 330 587 433 l 587 1 l 588 1 l 770 1 q 772 3 772 1 q 767 21 772 15 q 756 30 763 26 q 742 34 749 33 q 727 39 734 36 q 714 47 720 41 q 707 63 709 52 z "},"":{"ha":781,"x_min":43,"x_max":772,"o":"m 707 63 q 714 47 709 52 q 727 39 720 41 q 742 34 734 36 q 756 30 749 33 q 767 21 763 26 q 772 3 772 15 q 770 1 772 1 l 588 1 l 587 1 l 587 330 q 529 498 587 433 q 376 563 470 563 q 224 499 284 563 q 164 335 164 434 q 226 167 164 233 q 382 102 287 102 q 466 117 426 102 q 507 135 486 124 q 548 162 527 146 l 548 35 q 463 1 506 12 q 416 -7 440 -5 q 368 -10 393 -10 q 275 4 321 -10 q 191 45 229 19 q 81 168 119 94 q 43 332 43 242 q 137 577 43 480 q 375 673 231 673 q 549 626 471 673 q 620 568 589 602 q 670 494 650 533 q 687 455 680 475 q 699 412 694 434 q 707 278 707 366 l 707 63 l 707 63 m 281 973 q 324 977 302 981 q 363 958 342 973 q 401 907 384 943 l 460 758 q 418 751 439 747 q 398 759 408 753 q 377 777 388 765 q 354 806 366 788 q 332 850 342 823 q 328 859 330 852 q 321 875 325 866 q 312 895 317 884 q 304 917 308 906 q 281 973 293 943 z "},"":{"ha":781,"x_min":0,"x_max":0,"o":""},"":{"ha":781,"x_min":43,"x_max":772,"o":"m 707 63 q 714 47 709 52 q 727 39 720 41 q 742 34 734 36 q 756 30 749 33 q 767 21 763 26 q 772 3 772 15 q 770 1 772 1 l 588 1 l 587 1 l 587 330 q 529 498 587 433 q 376 563 470 563 q 224 499 284 563 q 164 335 164 434 q 226 167 164 233 q 382 102 287 102 q 466 117 426 102 q 507 135 486 124 q 548 162 527 146 l 548 35 q 463 1 506 12 q 416 -7 440 -5 q 368 -10 393 -10 q 275 4 321 -10 q 191 45 229 19 q 81 168 119 94 q 43 332 43 242 q 137 577 43 480 q 375 673 231 673 q 549 626 471 673 q 620 568 589 602 q 670 494 650 533 q 687 455 680 475 q 699 412 694 434 q 707 278 707 366 l 707 63 l 707 63 m 441 850 q 462 898 441 877 q 509 918 482 918 q 556 898 536 918 q 576 850 576 878 q 557 802 576 821 q 509 782 538 782 q 461 802 481 782 q 441 850 441 821 m 204 850 q 224 898 204 878 q 271 918 243 918 q 318 898 298 918 q 338 850 338 877 q 319 802 338 821 q 271 782 299 782 q 223 802 242 782 q 204 850 204 821 z "},"":{"ha":781,"x_min":43,"x_max":772,"o":"m 707 63 q 714 47 709 52 q 727 39 720 41 q 742 34 734 36 q 756 30 749 33 q 767 21 763 26 q 772 3 772 15 q 770 1 772 1 l 588 1 l 587 1 l 587 330 q 529 498 587 433 q 376 563 470 563 q 224 499 284 563 q 164 335 164 434 q 226 167 164 233 q 382 102 287 102 q 466 117 426 102 q 507 135 486 124 q 548 162 527 146 l 548 35 q 463 1 506 12 q 416 -7 440 -5 q 368 -10 393 -10 q 275 4 321 -10 q 191 45 229 19 q 81 168 119 94 q 43 332 43 242 q 137 577 43 480 q 375 673 231 673 q 549 626 471 673 q 620 568 589 602 q 670 494 650 533 q 687 455 680 475 q 699 412 694 434 q 707 278 707 366 l 707 63 l 707 63 z "},"":{"ha":781,"x_min":43,"x_max":710,"o":"m 237 892 q 286 1011 237 962 q 406 1060 335 1060 q 525 1011 476 1060 q 574 892 574 962 q 525 772 574 821 q 406 724 476 724 q 286 772 335 724 q 237 892 237 821 m 309 892 q 337 823 309 851 q 406 794 365 794 q 474 823 446 794 q 501 892 501 851 q 474 960 501 932 q 406 987 446 987 q 336 960 364 987 q 309 892 309 932 m 590 0 l 590 332 q 531 501 590 436 q 378 566 472 566 q 224 502 284 566 q 164 336 164 437 q 226 168 164 233 q 383 102 288 102 q 468 117 427 102 q 550 163 509 132 l 550 35 q 464 0 509 12 q 370 -11 419 -11 q 275 4 322 -11 q 191 45 229 18 q 81 169 119 94 q 43 334 43 243 q 137 580 43 483 q 376 677 231 677 q 551 629 472 677 q 673 497 631 581 q 702 414 693 459 q 710 279 710 369 l 710 0 l 590 0 z "},"":{"ha":533,"x_min":43,"x_max":491,"o":"m 241 488 q 166 329 166 427 q 241 171 166 231 q 243 170 241 171 l 240 172 q 274 149 257 159 q 407 113 331 117 l 429 113 q 445 120 439 115 q 452 134 450 126 q 457 151 455 142 q 461 166 458 159 q 470 179 465 174 q 488 184 476 184 q 491 182 491 184 l 490 -1 l 431 -1 l 423 -1 l 401 0 q 149 90 245 7 q 43 331 43 181 q 81 482 43 412 q 188 600 119 552 q 291 646 237 632 q 358 657 323 655 q 431 661 392 659 l 490 661 l 490 547 l 490 478 q 488 475 490 475 q 471 481 477 476 q 462 493 465 486 q 457 509 459 500 q 453 525 456 517 q 445 539 450 533 q 429 547 439 545 q 322 533 368 550 q 241 488 276 516 z "},"":{"ha":753,"x_min":45,"x_max":707,"o":"m 537 941 l 403 777 q 351 727 376 742 q 307 708 326 712 q 264 708 284 703 l 366 880 q 391 910 378 898 q 418 930 404 922 q 447 942 433 938 q 475 947 461 945 q 537 941 506 949 m 578 216 q 633 257 609 244 q 673 273 657 269 q 707 275 692 278 q 691 211 701 240 q 668 156 682 181 q 638 108 655 130 q 598 65 621 85 q 380 -17 508 -17 q 293 -5 336 -17 q 212 30 250 7 q 90 157 134 77 q 45 328 45 235 q 52 395 45 363 q 71 459 58 428 q 144 571 96 521 q 252 646 192 620 q 381 671 315 671 q 561 618 481 671 q 689 465 640 565 l 256 224 q 256 284 249 254 q 283 339 262 310 q 351 393 304 368 q 363 401 354 395 q 386 414 372 406 q 414 430 399 421 q 446 448 430 439 q 527 494 483 469 q 460 543 498 526 q 380 560 425 560 q 230 494 291 560 q 169 330 169 427 q 230 166 169 232 q 380 99 291 99 q 521 155 465 99 q 551 186 540 171 q 578 216 562 201 z "},"":{"ha":753,"x_min":45,"x_max":707,"o":"m 578 216 q 633 257 609 244 q 673 273 657 269 q 707 275 692 278 q 691 211 701 240 q 668 156 682 181 q 638 108 655 130 q 598 65 621 85 q 380 -17 508 -17 q 293 -5 336 -17 q 212 30 250 7 q 90 157 134 77 q 45 328 45 235 q 52 395 45 363 q 71 459 58 428 q 144 571 96 521 q 252 646 192 620 q 381 671 315 671 q 561 618 481 671 q 689 465 640 565 l 256 224 q 256 284 249 254 q 283 339 262 310 q 351 393 304 368 q 363 401 354 395 q 386 414 372 406 q 414 430 399 421 q 446 448 430 439 q 527 494 483 469 q 460 543 498 526 q 380 560 425 560 q 230 494 291 560 q 169 330 169 427 q 230 166 169 232 q 380 99 291 99 q 521 155 465 99 q 551 186 540 171 q 578 216 562 201 m 267 973 q 311 977 289 981 q 350 958 329 973 q 387 907 370 943 l 446 758 q 404 751 426 747 q 385 759 395 753 q 363 777 374 765 q 340 806 352 788 q 318 850 329 823 q 314 859 317 852 q 307 875 311 866 q 299 895 303 884 q 290 917 294 906 q 267 973 279 943 z "},"":{"ha":753,"x_min":0,"x_max":0,"o":""},"":{"ha":753,"x_min":45,"x_max":707,"o":"m 578 216 q 633 257 609 244 q 673 273 657 269 q 707 275 692 278 q 691 211 701 240 q 668 156 682 181 q 638 108 655 130 q 598 65 621 85 q 380 -17 508 -17 q 293 -5 336 -17 q 212 30 250 7 q 90 157 134 77 q 45 328 45 235 q 52 395 45 363 q 71 459 58 428 q 144 571 96 521 q 252 646 192 620 q 381 671 315 671 q 561 618 481 671 q 689 465 640 565 l 256 224 q 256 284 249 254 q 283 339 262 310 q 351 393 304 368 q 363 401 354 395 q 386 414 372 406 q 414 430 399 421 q 446 448 430 439 q 527 494 483 469 q 460 543 498 526 q 380 560 425 560 q 230 494 291 560 q 169 330 169 427 q 230 166 169 232 q 380 99 291 99 q 521 155 465 99 q 551 186 540 171 q 578 216 562 201 m 428 850 q 448 898 428 877 q 496 918 469 918 q 543 898 523 918 q 562 850 562 878 q 543 802 562 821 q 496 782 524 782 q 448 802 467 782 q 428 850 428 821 m 191 850 q 210 898 191 878 q 257 918 230 918 q 304 898 284 918 q 325 850 325 877 q 305 802 325 821 q 257 782 286 782 q 210 802 229 782 q 191 850 191 821 z "},"":{"ha":283,"x_min":4,"x_max":359,"o":"m 204 134 l 204 440 q 201 516 205 484 q 189 572 197 548 q 170 611 181 595 q 148 637 159 627 q 85 661 121 660 l 85 134 q 78 82 85 100 q 63 55 72 64 q 43 42 54 46 q 24 35 33 39 q 9 24 15 31 q 5 -1 4 16 l 284 -1 q 280 24 286 16 q 266 35 275 31 q 247 43 257 39 q 227 56 236 46 q 211 83 218 65 q 204 134 205 101 m 359 941 l 225 777 q 173 727 198 742 q 129 708 149 712 q 86 708 106 703 l 189 880 q 213 910 200 898 q 241 930 227 922 q 269 942 255 938 q 297 947 283 945 q 359 941 328 949 z "},"":{"ha":283,"x_min":-1,"x_max":280,"o":"m 199 134 q 206 83 199 101 q 221 56 212 65 q 241 43 231 46 q 260 35 252 39 q 275 24 269 31 q 279 -1 280 16 l 0 -1 q 4 24 -1 16 q 18 35 9 31 q 38 42 27 39 q 57 55 48 46 q 73 82 66 64 q 80 134 79 100 l 80 661 q 142 637 115 660 q 165 611 154 627 q 184 572 176 595 q 196 516 192 548 q 199 440 200 484 l 199 134 m 33 986 q 76 989 54 994 q 115 971 94 986 q 153 920 136 956 l 212 771 q 170 764 191 760 q 150 772 160 766 q 129 789 140 778 q 106 819 117 801 q 83 863 94 836 q 79 872 82 865 q 73 888 77 879 q 64 908 68 897 q 56 930 60 919 q 33 986 45 956 z "},"":{"ha":283,"x_min":0,"x_max":0,"o":""},"":{"ha":283,"x_min":-43,"x_max":329,"o":"m 82 0 l 82 665 l 201 665 l 201 0 l 82 0 m 195 850 q 215 898 195 877 q 262 918 235 918 q 309 898 290 918 q 329 850 329 878 q 310 802 329 821 q 262 782 291 782 q 214 802 234 782 q 195 850 195 821 m -43 850 q -23 898 -43 878 q 24 918 -3 918 q 71 898 51 918 q 92 850 92 877 q 72 802 92 821 q 24 782 52 782 q -24 802 -5 782 q -43 850 -43 821 z "},"":{"ha":711,"x_min":-7,"x_max":714,"o":"m 407 859 l 532 857 q 511 807 528 829 q 494 789 505 798 q 470 773 484 780 q 437 762 456 766 q 394 758 418 758 q 319 757 357 758 q 250 757 281 757 q 198 758 219 758 q 176 759 178 758 q 185 794 178 779 q 203 820 193 809 q 225 838 213 831 q 250 849 238 845 q 315 859 279 859 l 407 859 m -5 1 q -2 25 -7 18 q 12 36 3 32 q 31 43 20 40 q 50 55 41 47 q 65 81 58 64 q 73 129 71 98 l 73 361 q 149 590 73 505 q 355 674 227 674 q 559 590 482 674 q 635 361 635 505 l 635 126 q 643 80 636 96 q 659 55 650 64 q 677 43 667 47 q 696 36 688 40 q 709 24 704 32 q 713 1 714 17 l 593 1 l 439 1 q 443 24 438 17 q 456 36 448 32 q 474 43 465 40 q 493 54 484 46 q 509 78 503 62 q 517 123 515 94 l 517 383 q 472 511 517 461 q 355 559 426 559 q 237 511 283 559 q 191 383 191 460 l 191 114 q 200 74 193 88 q 216 53 207 60 q 235 42 225 45 q 252 35 244 39 q 264 24 260 31 q 268 1 269 16 l 147 1 l -5 1 z "},"":{"ha":755,"x_min":44,"x_max":713,"o":"m 607 941 l 473 777 q 421 727 446 742 q 376 708 396 712 q 334 708 354 703 l 436 880 q 461 910 448 898 q 488 930 474 922 q 517 942 503 938 q 545 947 531 945 q 607 941 576 949 m 44 332 q 70 463 44 399 q 144 574 95 524 q 252 648 192 623 q 378 673 311 673 q 507 648 448 673 q 614 574 568 623 q 688 463 663 525 q 713 332 713 402 q 688 199 713 261 q 614 87 662 135 q 507 14 568 39 q 378 -12 446 -12 q 252 14 313 -12 q 144 87 192 39 q 70 199 95 137 q 44 332 44 262 m 168 333 q 229 170 168 237 q 378 102 292 102 q 528 170 466 102 q 590 333 590 237 q 528 496 590 428 q 378 562 466 562 q 229 496 292 562 q 168 333 168 428 z "},"":{"ha":755,"x_min":44,"x_max":713,"o":"m 44 332 q 70 463 44 399 q 144 574 95 524 q 252 648 192 623 q 378 673 311 673 q 507 648 448 673 q 614 574 568 623 q 688 463 663 525 q 713 332 713 402 q 688 199 713 261 q 614 87 662 135 q 507 14 568 39 q 378 -12 446 -12 q 252 14 313 -12 q 144 87 192 39 q 70 199 95 137 q 44 332 44 262 m 168 333 q 229 170 168 237 q 378 102 292 102 q 528 170 466 102 q 590 333 590 237 q 528 496 590 428 q 378 562 466 562 q 229 496 292 562 q 168 333 168 428 m 269 973 q 312 977 290 981 q 351 958 330 973 q 389 907 372 943 l 448 758 q 406 751 427 747 q 386 759 396 753 q 365 777 376 765 q 342 806 353 788 q 319 850 330 823 q 315 859 318 852 q 309 875 313 866 q 300 895 304 884 q 292 917 296 906 q 269 973 281 943 z "},"":{"ha":755,"x_min":0,"x_max":0,"o":""},"":{"ha":755,"x_min":44,"x_max":713,"o":"m 44 332 q 70 463 44 399 q 144 574 95 524 q 252 648 192 623 q 378 673 311 673 q 507 648 448 673 q 614 574 568 623 q 688 463 663 525 q 713 332 713 402 q 688 199 713 261 q 614 87 662 135 q 507 14 568 39 q 378 -12 446 -12 q 252 14 313 -12 q 144 87 192 39 q 70 199 95 137 q 44 332 44 262 m 168 333 q 229 170 168 237 q 378 102 292 102 q 528 170 466 102 q 590 333 590 237 q 528 496 590 428 q 378 562 466 562 q 229 496 292 562 q 168 333 168 428 m 429 850 q 450 898 429 877 q 497 918 470 918 q 544 898 524 918 q 564 850 564 878 q 545 802 564 821 q 497 782 526 782 q 449 802 469 782 q 429 850 429 821 m 192 850 q 212 898 192 878 q 258 918 231 918 q 306 898 286 918 q 326 850 326 877 q 307 802 326 821 q 258 782 287 782 q 211 802 230 782 q 192 850 192 821 z "},"":{"ha":755,"x_min":44,"x_max":713,"o":"m 44 332 q 70 463 44 399 q 144 574 95 524 q 252 648 192 623 q 378 673 311 673 q 507 648 448 673 q 614 574 568 623 q 688 463 663 525 q 713 332 713 402 q 688 199 713 261 q 614 87 662 135 q 507 14 568 39 q 378 -12 446 -12 q 252 14 313 -12 q 144 87 192 39 q 70 199 95 137 q 44 332 44 262 m 168 333 q 229 170 168 237 q 378 102 292 102 q 528 170 466 102 q 590 333 590 237 q 528 496 590 428 q 378 562 466 562 q 229 496 292 562 q 168 333 168 428 z "},"":{"ha":711,"x_min":74,"x_max":637,"o":"m 564 941 l 430 777 q 378 727 403 742 q 334 708 353 712 q 291 708 311 703 l 393 880 q 418 910 405 898 q 446 930 431 922 q 474 942 460 938 q 502 947 488 945 q 564 941 533 949 m 637 300 l 637 663 q 578 647 604 663 q 556 629 566 640 q 537 600 545 617 q 524 559 529 583 q 519 503 519 535 l 519 279 l 519 279 q 496 184 519 226 q 486 167 491 175 q 473 152 480 159 l 473 152 q 355 102 428 102 q 238 152 283 102 q 192 279 192 200 l 191 279 l 191 503 q 186 559 191 535 q 173 600 182 583 q 154 629 165 617 q 133 647 144 640 q 74 663 106 663 l 74 300 q 113 125 74 197 q 130 97 120 111 q 150 72 139 84 l 151 73 l 151 72 q 355 -12 228 -12 q 560 72 483 -12 q 597 126 582 96 l 597 125 q 637 300 637 197 z "},"":{"ha":711,"x_min":73,"x_max":635,"o":"m 635 300 q 596 125 635 197 l 596 126 q 559 72 581 96 q 354 -12 481 -12 q 149 72 227 -12 l 149 73 l 149 72 q 128 97 138 84 q 111 125 119 111 q 73 300 73 197 l 73 663 q 132 647 105 663 q 153 629 142 640 q 172 600 163 617 q 185 559 180 583 q 190 503 190 535 l 190 279 l 191 279 q 237 152 191 200 q 354 102 282 102 q 472 152 427 102 l 471 152 q 484 167 479 159 q 494 184 490 175 q 517 279 517 226 l 518 279 l 518 503 q 523 559 518 535 q 536 600 528 583 q 554 629 544 617 q 576 647 565 640 q 635 663 602 663 l 635 300 l 635 300 m 246 973 q 290 977 268 981 q 329 958 308 973 q 366 907 349 943 l 425 758 q 383 751 405 747 q 363 759 374 753 q 342 777 353 765 q 319 806 331 788 q 297 850 308 823 q 293 859 296 852 q 286 875 290 866 q 278 895 282 884 q 269 917 273 906 q 246 973 258 943 z "},"":{"ha":711,"x_min":0,"x_max":0,"o":""},"":{"ha":711,"x_min":73,"x_max":635,"o":"m 635 300 q 596 125 635 197 l 596 126 q 559 72 581 96 q 354 -12 481 -12 q 149 72 227 -12 l 149 73 l 149 72 q 128 97 138 84 q 111 125 119 111 q 73 300 73 197 l 73 663 q 132 647 105 663 q 153 629 142 640 q 172 600 163 617 q 185 559 180 583 q 190 503 190 535 l 190 279 l 191 279 q 237 152 191 200 q 354 102 282 102 q 472 152 427 102 l 471 152 q 484 167 479 159 q 494 184 490 175 q 517 279 517 226 l 518 279 l 518 503 q 523 559 518 535 q 536 600 528 583 q 554 629 544 617 q 576 647 565 640 q 635 663 602 663 l 635 300 l 635 300 m 293 762 q 237 770 262 762 q 197 791 215 777 q 179 834 180 806 l 179 924 q 235 917 210 924 q 275 896 257 911 q 293 852 292 881 l 293 847 l 293 762 m 532 765 q 475 772 500 765 q 436 794 454 779 q 418 837 418 808 l 418 926 q 474 920 449 927 q 513 899 496 913 q 532 854 531 884 l 532 850 l 532 765 z "},"":{"ha":1557,"x_min":9,"x_max":1544,"o":"m 1506 475 q 1544 316 1544 401 q 1451 74 1544 170 q 1218 -21 1359 -21 q 1046 26 1124 -21 q 926 156 967 74 q 899 236 907 192 q 893 290 895 258 q 891 367 891 323 l 891 407 q 878 459 888 435 q 852 502 869 482 q 746 551 810 551 q 640 502 681 551 q 599 377 599 454 l 599 142 q 587 69 599 102 q 575 42 583 56 q 556 19 567 29 q 529 3 545 9 q 493 -3 513 -3 l 493 356 q 562 580 493 498 q 746 663 630 663 q 891 618 831 663 l 891 939 l 1069 939 q 1072 936 1072 939 q 1063 914 1072 920 q 1043 906 1054 909 q 1021 898 1031 903 q 1008 879 1011 894 l 1008 316 q 1065 151 1008 214 q 1215 88 1122 88 q 1367 151 1310 88 q 1425 317 1425 215 q 1365 478 1425 416 q 1295 527 1335 509 q 1211 541 1256 545 q 1134 542 1164 533 q 1083 566 1103 551 q 1047 606 1061 583 q 1131 640 1086 628 q 1223 650 1173 650 q 1315 636 1269 650 q 1359 619 1338 629 q 1398 596 1379 610 q 1506 475 1468 548 m 364 663 q 534 608 467 663 q 510 575 522 593 q 492 541 500 559 q 479 502 483 522 q 462 518 474 509 q 434 534 450 527 q 400 546 418 541 q 364 551 382 551 q 248 502 294 551 q 203 377 203 454 l 203 113 q 212 74 205 87 q 228 53 219 60 q 246 42 237 45 q 263 36 256 39 q 275 24 271 32 q 279 1 279 17 l 161 1 l 10 1 q 14 25 9 18 q 27 36 19 33 q 46 43 36 40 q 64 55 56 47 q 80 81 73 64 q 87 128 86 98 l 87 128 l 87 356 q 163 580 87 497 q 364 663 237 663 z "},"":{"ha":457,"x_min":33,"x_max":424,"o":"m 359 793 q 322 886 359 848 q 229 924 284 924 q 136 886 174 924 q 97 793 97 848 q 136 699 97 738 q 229 660 174 660 q 322 699 284 660 q 359 793 359 738 m 229 987 q 367 930 309 987 q 424 791 424 873 q 367 654 424 711 q 228 597 310 597 q 90 654 146 597 q 33 791 33 710 q 91 930 33 873 q 229 987 148 987 z "},"":{"ha":755,"x_min":0,"x_max":0,"o":""},"":{"ha":755,"x_min":0,"x_max":0,"o":""},"":{"ha":694,"x_min":0,"x_max":0,"o":""},"":{"ha":819,"x_min":262,"x_max":521,"o":"m 521 248 q 393 265 450 248 q 345 284 368 272 q 304 313 322 296 q 274 355 286 331 q 262 411 263 379 l 262 614 q 391 598 334 615 q 438 579 415 591 q 479 550 461 568 q 509 508 498 532 q 521 451 520 484 l 521 440 l 521 248 z "},"":{"ha":694,"x_min":45,"x_max":650,"o":"m 650 945 l 568 945 l 568 0 l 493 0 l 493 945 l 374 945 l 374 0 l 297 0 l 297 530 q 113 600 182 536 q 45 766 45 664 q 118 938 45 873 q 311 1003 191 1003 l 650 1003 l 650 945 z "},"":{"ha":778,"x_min":4,"x_max":733,"o":"m 83 0 l 83 526 l 4 526 l 4 639 l 83 639 l 83 717 q 152 914 83 843 q 340 985 220 985 q 511 928 444 985 q 578 787 578 872 q 541 676 578 722 q 416 589 503 630 l 517 546 q 676 428 619 503 q 733 262 733 353 q 647 70 733 139 q 404 0 560 0 l 250 0 l 250 115 l 412 115 q 556 158 503 115 q 610 272 610 200 q 572 373 610 330 q 440 460 534 416 q 408 475 429 465 q 283 585 283 531 q 387 689 283 634 l 395 693 q 439 730 425 709 q 454 778 454 751 q 422 843 454 817 q 343 869 391 869 q 238 826 273 869 q 203 694 203 783 l 203 0 l 83 0 z "},"":{"ha":1157,"x_min":79,"x_max":1079,"o":"m 572 717 l 485 717 l 485 529 l 575 529 q 685 550 652 529 q 718 619 718 572 q 684 694 718 671 q 572 717 649 717 m 591 786 q 769 747 709 786 q 828 631 828 708 q 794 530 828 570 q 699 478 760 490 l 825 220 l 705 220 l 590 461 l 485 461 l 485 220 l 378 220 l 378 786 l 591 786 m 1013 489 q 981 659 1013 580 q 889 799 949 739 q 748 895 827 862 q 579 928 669 928 q 413 896 491 928 q 277 804 335 864 q 179 659 213 740 q 144 493 144 578 q 177 330 144 408 q 272 189 210 252 q 412 93 333 127 q 575 60 491 60 q 742 92 663 60 q 886 187 821 125 q 980 325 947 247 q 1013 489 1013 402 m 578 993 q 772 955 680 993 q 935 844 863 917 q 1042 683 1004 774 q 1079 493 1079 592 q 1042 301 1079 391 q 933 142 1004 211 q 767 32 859 70 q 578 -7 675 -7 q 388 32 478 -7 q 225 143 297 70 q 117 305 154 215 q 79 493 79 395 q 118 685 79 592 q 231 851 157 777 q 388 957 299 921 q 578 993 476 993 z "},"":{"ha":1157,"x_min":79,"x_max":1079,"o":"m 714 615 q 669 695 705 667 q 575 724 633 724 q 463 662 504 724 q 422 493 422 601 q 465 327 422 387 q 582 268 507 268 q 674 300 637 268 q 721 387 711 332 l 819 387 q 746 244 813 299 q 578 189 680 189 q 384 271 454 189 q 314 497 314 352 q 388 716 314 633 q 582 799 462 799 q 742 748 678 799 q 814 615 806 697 l 714 615 m 1013 493 q 980 660 1013 581 q 888 800 948 739 q 746 895 825 863 q 579 928 667 928 q 414 896 492 928 q 275 803 336 864 q 178 660 212 740 q 144 493 144 579 q 178 329 144 408 q 273 187 211 250 q 414 93 336 125 q 579 60 492 60 q 743 93 664 60 q 888 189 823 126 q 981 327 949 249 q 1013 493 1013 404 m 578 993 q 771 956 681 993 q 933 847 862 919 q 1041 685 1004 777 q 1079 493 1079 593 q 1042 302 1079 392 q 935 143 1005 212 q 768 32 860 71 q 578 -7 676 -7 q 389 31 479 -7 q 227 142 298 69 q 117 303 155 213 q 79 493 79 394 q 117 684 79 593 q 228 848 155 775 q 388 956 298 919 q 578 993 477 993 z "},"":{"ha":1157,"x_min":199,"x_max":962,"o":"m 528 985 q 542 983 538 985 q 545 978 546 981 q 539 970 544 975 q 527 959 534 965 q 502 943 515 948 q 475 938 488 937 l 397 938 l 397 659 q 403 632 397 639 q 415 622 409 625 q 427 617 422 619 q 431 604 431 614 l 378 604 l 347 604 q 325 604 336 604 q 312 604 314 604 q 316 617 311 614 q 328 622 321 619 q 339 631 334 625 q 346 658 345 638 l 346 938 l 218 938 q 203 940 207 938 q 201 945 199 941 q 207 953 202 948 q 219 964 212 958 q 244 980 231 975 q 271 985 258 985 l 528 985 m 592 919 l 556 659 q 555 636 554 644 q 560 625 557 629 q 567 621 563 622 q 575 619 572 620 q 582 615 579 618 q 584 605 585 612 l 532 605 l 467 605 q 472 618 467 616 q 484 623 477 621 q 498 632 491 625 q 507 660 505 640 l 548 945 q 562 979 552 967 q 589 991 572 991 q 600 989 594 991 l 592 919 m 601 895 q 603 919 601 904 q 606 949 604 934 q 612 985 609 966 q 622 971 617 981 q 629 952 626 962 l 715 681 l 798 952 q 806 969 802 962 q 815 981 810 976 q 840 991 825 991 q 867 979 857 991 q 880 945 876 968 l 922 652 q 932 630 926 635 q 946 622 939 625 q 957 617 953 620 q 961 605 962 615 l 844 605 q 849 617 844 616 q 861 621 854 619 q 871 630 867 623 q 872 659 876 637 l 873 659 l 837 916 l 836 919 l 749 639 q 734 610 743 620 q 715 601 726 601 q 694 610 702 601 q 679 639 686 617 q 640 764 657 709 q 626 811 633 788 q 613 852 619 833 q 604 882 608 870 q 601 895 601 893 z "},"":{"ha":694,"x_min":262,"x_max":535,"o":"m 535 941 l 401 777 q 349 727 374 742 q 304 708 324 712 q 262 708 282 703 l 364 880 q 389 910 376 898 q 416 930 402 922 q 445 942 431 938 q 473 947 459 945 q 535 941 504 949 z "},"":{"ha":694,"x_min":161,"x_max":533,"o":"m 399 850 q 419 898 399 877 q 467 918 439 918 q 513 898 494 918 q 533 850 533 878 q 514 802 533 821 q 467 782 495 782 q 418 802 438 782 q 399 850 399 821 m 161 850 q 181 898 161 878 q 228 918 201 918 q 275 898 255 918 q 296 850 296 877 q 276 802 296 821 q 228 782 256 782 q 180 802 199 782 q 161 850 161 821 z "},"":{"ha":1157,"x_min":172,"x_max":985,"o":"m 890 754 l 764 595 l 985 595 l 985 503 l 703 503 l 564 325 l 985 325 l 985 233 l 504 233 l 335 18 l 264 75 l 389 233 l 172 233 l 172 325 l 449 325 l 587 503 l 172 503 l 172 595 l 648 595 l 819 810 l 890 754 z "},"":{"ha":1283,"x_min":0,"x_max":0,"o":""},"":{"ha":1074,"x_min":0,"x_max":0,"o":""},"":{"ha":1157,"x_min":150,"x_max":1008,"o":"m 621 379 q 699 289 654 319 q 802 258 745 258 q 913 304 870 258 q 957 421 957 350 q 917 535 957 490 q 817 581 877 581 q 716 535 761 581 q 621 379 671 489 m 538 452 q 459 541 505 511 q 357 571 414 571 q 244 526 288 571 q 201 410 201 481 q 241 296 201 341 q 342 250 281 250 q 443 296 397 250 q 538 452 488 342 m 586 328 q 485 193 538 236 q 368 150 432 150 q 213 225 276 150 q 150 414 150 301 q 207 606 150 532 q 354 679 263 679 q 470 636 418 679 q 571 500 522 593 q 671 638 617 593 q 790 682 724 682 q 945 606 881 682 q 1008 416 1008 530 q 952 225 1008 298 q 804 153 895 153 q 690 193 741 153 q 586 328 640 233 z "},"":{"ha":1157,"x_min":0,"x_max":0,"o":""},"":{"ha":1157,"x_min":178,"x_max":981,"o":"m 981 110 l 981 16 l 178 16 l 178 110 l 981 110 m 979 718 l 345 509 l 979 301 l 979 200 l 178 468 l 178 550 l 979 818 l 979 718 z "},"":{"ha":1157,"x_min":178,"x_max":981,"o":"m 981 110 l 981 16 l 178 16 l 178 110 l 981 110 m 981 550 l 981 468 l 178 200 l 178 301 l 814 509 l 178 718 l 178 818 l 981 550 z "},"":{"ha":772,"x_min":0,"x_max":0,"o":""},"":{"ha":781,"x_min":0,"x_max":0,"o":""},"":{"ha":718,"x_min":71,"x_max":652,"o":"m 513 421 q 528 535 523 480 q 533 642 533 591 q 508 773 533 729 q 435 818 484 818 q 349 779 397 818 q 275 739 300 739 q 235 754 251 739 q 218 790 218 769 q 267 865 218 832 q 385 899 316 899 q 579 793 507 899 q 652 510 652 688 q 554 133 652 283 q 311 -17 456 -17 q 139 56 208 -17 q 71 240 71 130 q 145 461 71 374 q 330 549 220 549 q 443 518 399 549 q 513 421 487 487 m 479 335 q 450 456 479 414 q 367 498 420 498 q 245 411 293 498 q 197 183 197 323 q 227 63 197 104 q 310 21 256 21 q 432 109 384 21 q 479 335 479 197 z "},"":{"ha":936,"x_min":17,"x_max":908,"o":"m 37 999 l 890 999 l 890 868 l 240 868 l 696 382 l 225 -136 l 908 -136 l 908 -267 l 17 -267 l 17 -165 l 509 378 l 37 879 l 37 999 z "},"":{"ha":1051,"x_min":106,"x_max":945,"o":"m 106 999 l 945 999 l 945 -267 l 782 -267 l 782 860 l 268 860 l 268 -267 l 106 -267 l 106 999 z "},"":{"ha":818,"x_min":-21,"x_max":810,"o":"m 786 619 l 663 619 l 591 289 q 576 208 581 239 q 571 161 571 176 q 587 105 571 122 q 640 89 603 89 q 667 91 652 89 q 708 96 683 92 l 688 0 q 649 -8 667 -5 q 612 -11 630 -11 q 491 24 532 -11 q 450 126 450 58 q 457 206 450 157 q 488 364 465 255 l 542 619 l 321 619 l 189 0 l 66 0 l 199 619 l 171 619 q 114 597 134 619 q 87 529 94 576 l -21 529 q 46 684 -2 642 q 207 726 95 726 l 810 726 l 786 619 z "},"":{"ha":724,"x_min":32,"x_max":690,"o":"m 211 -178 q 292 289 283 -178 q 294 401 294 362 q 367 901 302 750 q 568 1051 431 1051 q 656 1023 623 1051 q 690 950 690 994 q 669 892 690 913 q 610 871 647 871 q 562 884 581 871 q 535 920 543 897 q 528 955 531 930 q 514 979 525 979 q 432 559 441 979 q 427 354 429 429 q 351 -111 415 29 q 154 -252 287 -252 q 66 -223 100 -252 q 32 -151 32 -195 q 55 -92 32 -113 q 119 -71 78 -71 q 158 -80 142 -71 q 184 -109 174 -90 q 195 -150 191 -121 q 211 -178 198 -178 z "},"":{"ha":586,"x_min":27,"x_max":566,"o":"m 517 545 q 527 529 519 533 q 543 524 534 526 q 558 517 551 522 q 566 501 565 513 q 564 499 566 499 l 429 499 l 429 499 l 429 743 q 386 867 429 819 q 273 914 342 914 q 160 867 205 914 q 116 746 116 820 q 161 622 116 670 q 277 574 208 574 q 339 585 309 574 q 370 598 355 590 q 400 618 385 607 l 400 524 q 369 510 385 516 q 336 499 353 503 q 267 491 304 491 q 232 494 250 491 q 198 502 215 496 q 136 532 164 511 q 55 623 83 568 q 27 745 27 678 q 96 925 27 854 q 272 996 165 996 q 401 962 342 996 q 453 918 430 944 q 490 864 475 892 q 503 835 498 850 q 511 804 508 819 q 517 704 517 770 l 517 545 l 517 545 z "},"":{"ha":567,"x_min":32,"x_max":536,"o":"m 123 741 q 170 625 123 672 q 283 578 217 578 q 396 625 350 578 q 443 741 443 672 q 396 854 443 808 q 283 901 350 901 q 170 854 217 901 q 123 741 123 808 m 32 739 q 51 832 32 789 q 107 909 70 876 q 188 963 142 945 q 283 981 233 981 q 380 962 334 981 q 461 909 426 944 q 517 831 498 876 q 536 739 536 787 q 517 645 536 690 q 461 567 497 601 q 380 515 426 533 q 283 497 335 497 q 187 515 232 497 q 107 567 142 532 q 51 645 70 602 q 32 739 32 689 z "},"":{"ha":1061,"x_min":53,"x_max":1008,"o":"m 1008 121 l 1008 0 l 602 0 l 602 121 q 789 299 722 186 q 856 549 856 412 q 766 810 856 711 q 530 908 677 908 q 294 809 384 908 q 204 549 204 711 q 272 299 204 412 q 460 121 339 186 l 460 0 l 53 0 l 53 121 l 269 121 q 113 316 162 215 q 64 542 64 417 q 194 891 64 758 q 530 1025 323 1025 q 866 891 736 1025 q 997 549 997 758 q 949 317 997 417 q 791 121 901 216 l 1008 121 z "},"":{"ha":1223,"x_min":0,"x_max":0,"o":""},"":{"ha":755,"x_min":16,"x_max":733,"o":"m 200 208 l 500 525 q 441 556 471 546 q 379 567 411 567 q 229 499 292 567 q 165 336 165 431 q 174 267 165 298 q 200 208 182 235 m 16 14 l 114 118 q 60 219 78 165 q 41 332 41 272 q 66 463 41 401 q 138 574 91 525 q 249 652 186 625 q 378 679 311 679 q 484 661 433 679 q 579 607 535 643 l 673 705 l 733 648 l 639 550 q 695 447 677 500 q 714 334 714 393 q 615 86 714 184 q 364 -12 515 -12 q 266 5 314 -12 q 172 58 218 23 l 75 -43 l 16 14 m 555 463 l 254 146 q 311 115 280 125 q 376 104 342 104 q 529 170 469 104 q 590 335 590 235 q 582 401 590 370 q 555 463 573 433 z "},"":{"ha":694,"x_min":50,"x_max":640,"o":"m 317 891 l 317 897 q 342 953 323 935 q 381 979 361 971 q 432 986 404 987 l 432 876 q 407 829 426 847 q 368 802 388 812 q 317 787 345 791 l 317 891 m 113 93 q 50 279 50 169 q 120 464 50 395 q 316 541 191 534 l 316 645 l 316 648 l 316 648 q 321 685 316 669 q 335 712 327 701 q 354 730 344 723 q 376 741 365 737 q 434 749 401 751 l 434 441 q 418 441 427 441 q 393 441 410 441 q 238 398 292 441 q 184 277 184 355 q 214 176 184 218 q 230 159 221 167 q 349 113 277 113 q 410 122 382 113 q 436 133 424 126 q 458 149 448 140 q 464 154 462 151 q 470 160 467 157 l 471 160 q 503 215 492 183 q 516 289 515 248 l 640 289 q 618 167 639 222 q 601 130 611 147 q 578 97 591 113 q 556 73 568 83 q 342 -9 474 -9 q 132 72 214 -9 q 122 82 127 77 q 113 93 117 87 z "},"":{"ha":378,"x_min":136,"x_max":254,"o":"m 254 5 q 197 22 222 7 q 175 37 186 28 q 156 60 165 46 q 142 91 147 73 q 136 134 136 109 l 136 738 q 193 726 168 741 q 215 709 204 720 q 234 680 225 698 q 248 637 242 662 q 254 578 253 612 l 254 5 m 251 782 q 200 798 223 786 q 161 824 180 807 q 137 869 142 841 l 137 980 q 187 972 164 981 q 225 947 207 965 q 251 892 244 928 l 251 886 l 251 782 z "},"":{"ha":1157,"x_min":0,"x_max":0,"o":""},"":{"ha":885,"x_min":41,"x_max":885,"o":"m 757 1126 l 885 1126 l 885 1061 l 807 1061 l 404 -28 l 359 -28 l 143 571 l 58 541 l 41 595 l 233 661 l 407 180 l 757 1126 z "},"":{"ha":755,"x_min":0,"x_max":0,"o":""},"":{"ha":1157,"x_min":121,"x_max":1038,"o":"m 1038 292 q 902 219 966 242 q 774 196 838 196 q 581 242 709 196 q 382 288 452 288 q 266 263 326 288 q 121 180 205 239 l 121 286 q 259 360 194 336 q 383 385 324 385 q 590 338 461 385 q 775 292 719 292 q 895 316 835 292 q 1038 397 956 340 l 1038 292 m 1038 542 q 902 469 966 492 q 774 446 838 446 q 581 492 709 446 q 382 538 452 538 q 266 513 326 538 q 121 431 205 489 l 121 536 q 258 609 193 585 q 383 633 323 633 q 590 588 462 633 q 775 542 719 542 q 894 565 834 542 q 1038 647 954 589 l 1038 542 z "},"":{"ha":929,"x_min":-4,"x_max":933,"o":"m 464 856 l 180 121 l 747 121 l 464 856 m 389 999 l 541 999 l 933 0 l -4 0 l 389 999 z "},"":{"ha":707,"x_min":0,"x_max":0,"o":""},"":{"ha":707,"x_min":78,"x_max":612,"o":"m 332 125 l 501 343 l 332 558 l 441 558 l 612 343 l 441 125 l 332 125 m 78 125 l 248 343 l 78 558 l 187 558 l 358 343 l 187 125 l 78 125 z "},"":{"ha":1389,"x_min":-49,"x_max":991,"o":"m 65 2 q 9 9 34 2 q -31 31 -13 16 q -49 74 -48 45 l -49 163 q 7 157 -18 164 q 47 136 29 151 q 65 92 64 121 l 65 87 l 65 2 m 526 2 q 470 9 495 2 q 431 31 448 16 q 412 74 413 45 l 412 163 q 469 157 444 164 q 508 136 490 151 q 526 92 526 121 l 526 87 l 526 2 m 991 2 q 935 9 960 2 q 895 31 913 16 q 877 74 878 45 l 877 163 q 933 157 908 164 q 972 136 955 151 q 991 92 990 121 l 991 87 l 991 2 z "},"":{"ha":755,"x_min":0,"x_max":0,"o":""},"":{"ha":833,"x_min":-3,"x_max":826,"o":"m 749 146 q 755 91 749 111 q 770 61 761 71 q 788 47 779 52 q 807 39 798 43 q 821 28 815 35 q 825 3 826 20 q 825 1 825 3 q 821 0 825 0 q 719 0 760 0 q 649 1 678 1 q 601 1 621 1 q 562 1 581 1 q 559 2 559 1 q 558 5 558 3 q 564 28 558 21 q 577 40 569 36 q 595 47 585 43 q 614 62 606 52 q 628 91 623 72 q 635 146 634 111 l 635 456 q 489 456 557 456 l 283 456 q 266 458 270 456 q 262 465 262 461 q 264 471 262 468 q 265 474 266 474 q 333 540 294 518 q 413 570 372 562 q 494 577 454 578 q 566 576 534 577 q 617 580 597 576 q 637 602 637 585 q 637 637 638 612 q 632 692 636 662 q 620 752 628 722 q 596 803 611 782 q 566 836 584 820 q 528 863 549 851 q 483 881 507 874 q 435 888 459 888 q 385 881 410 888 q 337 863 360 874 q 295 836 315 851 q 263 804 276 821 q 210 610 210 737 q 210 455 210 522 q 210 339 210 388 q 210 257 210 290 q 210 201 210 223 q 210 166 210 179 q 210 146 210 153 q 218 91 211 110 q 234 61 224 71 q 255 47 244 51 q 276 39 267 43 q 291 26 285 35 q 295 0 296 18 q 178 0 225 0 q 98 1 131 1 q 42 1 65 1 q -1 1 20 1 q 3 27 -3 19 q 18 39 9 35 q 38 47 27 43 q 59 61 50 51 q 76 91 69 71 q 83 146 83 110 l 83 391 l 83 613 q 174 889 83 788 q 416 991 264 991 q 657 889 566 991 q 748 613 748 788 l 749 146 m 307 1293 q 351 1296 329 1300 q 390 1277 369 1293 q 427 1226 410 1262 l 486 1078 q 444 1071 466 1066 q 425 1079 435 1073 q 403 1096 414 1084 q 380 1125 392 1107 q 358 1169 369 1143 q 354 1179 357 1172 q 347 1195 351 1185 q 339 1215 343 1204 q 330 1236 334 1225 q 307 1293 319 1262 z "},"":{"ha":833,"x_min":-3,"x_max":826,"o":"m 749 146 q 755 91 749 111 q 770 61 761 71 q 788 47 779 52 q 807 39 798 43 q 821 28 815 35 q 825 3 826 20 q 825 1 825 3 q 821 0 825 0 q 719 0 760 0 q 649 1 678 1 q 601 1 621 1 q 562 1 581 1 q 559 2 559 1 q 558 5 558 3 q 564 28 558 21 q 577 40 569 36 q 595 47 585 43 q 614 62 606 52 q 628 91 623 72 q 635 146 634 111 l 635 456 q 489 456 557 456 l 283 456 q 266 458 270 456 q 262 465 262 461 q 264 471 262 468 q 265 474 266 474 q 333 540 294 518 q 413 570 372 562 q 494 577 454 578 q 566 576 534 577 q 617 580 597 576 q 637 602 637 585 q 637 637 638 612 q 632 692 636 662 q 620 752 628 722 q 596 803 611 782 q 566 836 584 820 q 528 863 549 851 q 483 881 507 874 q 435 888 459 888 q 385 881 410 888 q 337 863 360 874 q 295 836 315 851 q 263 804 276 821 q 210 610 210 737 q 210 455 210 522 q 210 339 210 388 q 210 257 210 290 q 210 201 210 223 q 210 166 210 179 q 210 146 210 153 q 218 91 211 110 q 234 61 224 71 q 255 47 244 51 q 276 39 267 43 q 291 26 285 35 q 295 0 296 18 q 178 0 225 0 q 98 1 131 1 q 42 1 65 1 q -1 1 20 1 q 3 27 -3 19 q 18 39 9 35 q 38 47 27 43 q 59 61 50 51 q 76 91 69 71 q 83 146 83 110 l 83 391 l 83 613 q 174 889 83 788 q 416 991 264 991 q 657 889 566 991 q 748 613 748 788 l 749 146 z "},"":{"ha":1074,"x_min":49,"x_max":1029,"o":"m 49 490 q 85 681 49 590 q 193 843 122 771 q 352 951 263 914 q 539 988 439 988 q 726 950 635 988 q 810 904 770 931 q 885 842 850 878 q 992 680 956 768 q 1029 490 1029 589 q 991 297 1029 387 q 885 136 955 207 q 810 72 850 99 q 726 26 770 45 q 539 -12 637 -12 q 352 26 439 -12 q 193 134 263 63 q 85 297 122 207 q 49 490 49 387 m 180 490 q 186 415 180 452 q 207 344 193 378 q 286 220 234 276 q 341 173 312 194 q 403 139 370 153 q 539 111 469 111 q 675 139 611 111 q 736 173 708 153 q 791 220 765 194 q 836 280 817 249 q 869 345 856 311 q 897 490 897 414 q 890 565 897 529 q 870 635 884 601 q 791 758 844 702 q 736 806 765 786 q 675 841 708 827 q 539 869 611 869 q 402 842 468 869 q 286 760 337 813 q 206 636 234 705 q 180 490 180 568 z "},"":{"ha":1553,"x_min":0,"x_max":0,"o":""},"":{"ha":1296,"x_min":0,"x_max":0,"o":""},"":{"ha":694,"x_min":-14,"x_max":711,"o":"m -14 389 l 262 389 q 370 389 316 389 q 469 390 423 389 q 550 390 515 390 q 600 390 584 390 q 657 374 635 389 q 691 341 679 359 q 711 293 705 319 q 450 294 571 294 l 114 294 q 47 308 72 293 q 8 341 22 323 q -14 389 -8 362 z "},"":{"ha":1389,"x_min":9,"x_max":1396,"o":"m 9 395 q 616 395 345 395 q 770 395 694 395 q 918 395 847 395 q 1051 396 989 395 q 1162 396 1114 396 q 1242 396 1211 396 q 1284 396 1274 396 q 1316 391 1302 395 q 1342 380 1331 387 q 1361 364 1353 373 q 1376 347 1370 355 q 1396 299 1390 326 q 804 300 1070 300 q 653 300 728 300 q 508 300 578 300 q 376 300 438 300 q 265 300 314 300 q 183 299 216 300 q 138 299 150 299 q 71 314 96 298 q 32 347 45 329 q 9 395 16 368 z "},"":{"ha":585,"x_min":191,"x_max":497,"o":"m 497 945 q 474 888 484 914 q 466 867 470 878 q 457 847 461 856 q 451 831 454 838 q 447 821 448 824 q 424 777 435 795 q 402 748 413 760 q 380 731 391 737 q 361 724 370 726 q 319 730 339 719 l 378 878 q 415 930 394 915 q 454 948 435 945 q 497 945 475 952 m 370 945 q 347 888 357 914 q 338 867 342 878 q 330 847 334 856 q 323 831 326 838 q 319 821 321 824 q 297 777 308 795 q 274 748 286 760 q 253 731 263 737 q 233 724 242 726 q 191 730 212 719 l 250 878 q 288 930 267 915 q 327 948 309 945 q 370 945 349 952 z "},"":{"ha":585,"x_min":161,"x_max":467,"o":"m 467 935 q 444 878 454 903 q 435 856 439 867 q 427 836 431 845 q 420 820 423 827 q 416 810 417 813 q 394 766 405 784 q 371 738 382 749 q 350 721 360 726 q 330 713 339 715 q 288 720 309 708 l 347 867 q 384 919 363 904 q 423 937 405 934 q 467 935 445 941 m 340 935 q 317 878 327 903 q 308 856 312 867 q 299 836 303 845 q 293 820 296 827 q 289 810 290 813 q 266 766 277 784 q 244 738 255 749 q 222 721 233 726 q 203 713 212 715 q 161 720 181 708 l 220 867 q 257 919 236 904 q 296 937 278 934 q 340 935 318 941 z "},"":{"ha":378,"x_min":111,"x_max":281,"o":"m 281 948 q 262 864 270 901 q 255 832 258 848 q 248 803 251 816 q 243 780 245 789 q 241 768 241 770 q 229 733 237 747 q 212 709 222 718 q 191 695 202 700 q 168 688 179 690 q 111 690 142 682 l 150 869 q 163 904 155 890 q 182 928 172 919 q 203 943 192 937 q 226 950 215 948 q 281 948 252 956 z "},"":{"ha":378,"x_min":115,"x_max":285,"o":"m 285 958 q 266 874 274 911 q 259 842 262 858 q 252 813 255 826 q 248 790 250 800 q 245 778 245 781 q 233 743 241 758 q 216 719 226 728 q 195 705 206 710 q 172 698 183 700 q 115 700 146 692 l 154 880 q 167 915 159 900 q 186 938 176 929 q 208 953 196 947 q 230 960 219 958 q 285 958 256 966 z "},"":{"ha":1157,"x_min":173,"x_max":991,"o":"m 173 461 l 880 461 q 937 445 916 460 q 971 413 959 431 q 991 366 985 392 q 684 367 825 367 q 563 367 623 367 q 451 367 503 367 q 359 367 399 367 q 301 366 319 366 q 234 381 259 366 q 195 414 209 396 q 173 461 179 435 m 635 578 q 579 585 604 578 q 540 607 557 592 q 522 650 522 621 l 522 739 q 578 732 553 740 q 617 711 600 726 q 635 667 635 696 l 635 663 l 635 578 m 632 77 q 576 84 601 77 q 536 105 554 91 q 518 149 519 120 l 518 238 q 574 231 549 239 q 614 210 596 225 q 632 166 631 195 l 632 161 l 632 77 z "},"":{"ha":686,"x_min":4,"x_max":682,"o":"m 343 956 l 82 401 l 343 -158 l 604 401 l 343 956 m 343 1121 l 682 401 l 343 -323 l 4 401 l 343 1121 z "},"":{"ha":711,"x_min":20,"x_max":701,"o":"m 700 637 q 692 607 701 614 q 669 596 683 600 q 640 584 655 592 q 612 552 624 576 l 454 139 l 454 138 l 276 -312 q 254 -370 261 -350 q 243 -400 246 -391 q 237 -407 240 -407 q 233 -406 235 -407 q 194 -353 208 -384 q 184 -324 188 -340 q 179 -288 180 -308 q 183 -246 179 -269 q 199 -197 188 -223 l 275 -7 q 271 -3 273 -5 q 267 2 269 -1 q 220 96 240 31 l 56 553 q 34 611 42 591 q 22 641 26 631 q 21 646 20 644 q 22 650 21 648 q 26 651 24 651 q 91 638 59 652 q 119 623 104 632 q 146 598 133 613 q 171 564 159 584 q 193 517 183 544 l 332 137 l 471 505 q 479 556 480 538 q 470 583 477 574 q 452 594 463 591 q 431 601 441 597 q 414 611 421 604 q 409 637 408 618 l 536 637 l 700 637 l 700 637 m 407 850 q 427 898 407 877 q 475 918 448 918 q 522 898 502 918 q 541 850 541 878 q 522 802 541 821 q 475 782 503 782 q 427 802 446 782 q 407 850 407 821 m 170 850 q 189 898 170 878 q 236 918 209 918 q 283 898 263 918 q 304 850 304 877 q 284 802 304 821 q 236 782 264 782 q 189 802 208 782 q 170 850 170 821 z "},"":{"ha":753,"x_min":79,"x_max":669,"o":"m 669 940 l 669 941 l 669 738 q 611 526 669 607 q 436 416 552 446 l 436 127 q 445 81 438 97 q 462 56 452 64 q 481 44 471 47 q 500 36 492 41 q 514 24 509 32 q 518 -1 519 16 l 231 -1 q 235 25 229 18 q 250 37 241 33 q 269 45 258 41 q 290 58 280 48 q 306 87 299 68 q 313 140 312 106 l 313 140 l 313 416 q 138 526 197 446 q 79 738 79 606 l 79 806 l 79 941 q 89 965 79 960 q 111 965 98 970 q 140 948 124 960 q 170 921 156 936 q 193 891 184 906 q 203 865 202 876 q 205 771 205 806 l 205 736 q 248 579 205 633 q 374 524 292 524 q 500 579 456 524 q 545 736 545 633 q 545 774 545 739 q 546 868 545 808 q 555 894 546 879 q 578 924 565 909 q 608 951 592 939 q 638 968 624 964 q 661 968 652 973 q 669 944 669 963 l 669 940 m 428 1169 q 448 1217 428 1196 q 496 1238 469 1238 q 543 1217 523 1238 q 562 1169 562 1197 q 543 1121 562 1141 q 496 1101 524 1101 q 448 1121 467 1101 q 428 1169 428 1141 m 191 1169 q 210 1217 191 1197 q 257 1238 230 1238 q 304 1217 284 1238 q 325 1169 325 1196 q 305 1121 325 1141 q 257 1101 286 1101 q 210 1121 229 1101 q 191 1169 191 1141 z "},"":{"ha":232,"x_min":-232,"x_max":463,"o":"m -232 0 l 370 971 l 463 971 l -132 0 l -232 0 z "},"":{"ha":755,"x_min":0,"x_max":0,"o":""},"":{"ha":453,"x_min":0,"x_max":0,"o":""},"":{"ha":453,"x_min":0,"x_max":0,"o":""},"":{"ha":708,"x_min":53,"x_max":671,"o":"m 591 99 q 598 60 592 74 q 614 40 605 47 q 634 31 623 33 q 653 26 644 29 q 666 18 661 24 q 671 0 671 13 l 536 0 l 397 0 q 400 18 395 13 q 414 26 406 24 q 433 31 422 28 q 452 39 443 33 q 467 60 461 46 q 474 98 473 73 l 475 496 l 589 496 q 589 474 589 493 q 589 427 589 456 q 590 363 589 399 q 590 292 590 328 q 591 99 591 205 m 497 649 q 551 631 533 648 q 576 593 569 614 q 585 539 585 570 l 473 539 l 473 648 q 491 648 486 648 q 497 649 496 648 m 246 123 q 254 77 248 93 q 270 53 260 61 q 289 41 279 44 q 306 34 298 38 q 319 23 314 30 q 323 -1 324 16 l 54 -1 q 58 23 53 16 q 72 34 63 31 q 90 41 80 38 q 109 53 100 44 q 124 78 117 61 q 131 125 130 95 l 131 706 q 199 887 131 827 q 406 947 268 947 l 503 947 q 560 929 538 947 q 593 891 581 912 q 612 836 606 867 l 475 836 l 408 836 q 285 800 324 836 q 246 685 246 762 l 246 123 m 220 649 q 263 649 235 649 q 325 648 292 648 q 389 648 358 648 q 439 648 420 648 l 439 539 l 220 539 l 220 649 z "},"":{"ha":708,"x_min":82,"x_max":628,"o":"m 509 0 l 509 971 l 628 971 l 628 0 l 509 0 m 82 0 l 82 724 q 152 909 82 848 q 363 971 222 971 l 435 971 l 435 857 l 366 857 q 240 820 279 857 q 200 703 200 783 l 200 665 l 435 665 l 435 553 l 200 553 l 200 0 l 82 0 z "},"":{"ha":1558,"x_min":5,"x_max":1544,"o":"m 359 662 q 530 608 463 662 q 505 574 517 592 q 487 540 496 559 q 475 501 478 521 q 456 517 469 509 q 429 533 444 526 q 395 545 413 540 q 359 549 377 549 q 243 501 289 549 q 198 376 198 452 l 198 112 q 208 73 201 86 q 223 52 214 59 q 241 42 232 45 q 258 35 251 39 q 270 23 266 31 q 274 1 275 16 l 156 1 l 5 1 q 9 24 5 17 q 23 36 14 32 q 41 43 31 39 q 60 55 51 46 q 75 80 68 63 q 82 127 81 97 l 83 127 l 83 355 q 158 579 83 496 q 359 662 233 662 m 1451 572 q 1544 330 1544 475 q 1506 170 1544 243 q 1460 104 1487 134 q 1398 50 1433 74 q 1315 9 1361 24 q 1223 -5 1269 -5 q 1131 6 1173 -5 q 1088 20 1109 12 q 1047 39 1067 28 q 1083 80 1061 63 q 1134 103 1103 94 q 1211 105 1164 113 q 1295 118 1255 100 q 1365 167 1335 136 q 1425 328 1425 231 q 1367 494 1425 431 q 1215 557 1308 557 q 1065 494 1123 557 q 1008 330 1008 432 l 1008 -187 q 1017 -224 1010 -212 q 1033 -244 1024 -237 q 1051 -254 1042 -252 q 1067 -261 1060 -257 q 1079 -272 1075 -265 q 1083 -295 1084 -279 l 965 -295 l 814 -295 q 818 -272 813 -279 q 830 -261 823 -264 q 848 -254 838 -257 q 866 -243 857 -251 q 882 -222 875 -236 q 890 -181 888 -208 l 891 378 q 880 447 891 417 q 847 501 868 477 q 741 549 806 549 q 635 501 675 549 q 594 376 594 453 l 594 142 q 583 69 594 102 q 570 42 578 56 q 551 19 562 29 q 524 2 539 9 q 488 -4 508 -4 l 488 355 q 557 579 488 496 q 741 662 625 662 q 926 579 857 662 q 955 536 942 561 q 1046 620 992 587 q 1217 667 1123 667 q 1451 572 1360 667 z "},"":{"ha":378,"x_min":109,"x_max":269,"o":"m 109 494 q 132 552 109 528 q 189 575 155 575 q 246 552 223 575 q 269 494 269 528 q 246 438 269 461 q 189 415 222 415 q 132 438 155 415 q 109 494 109 461 z "},"":{"ha":378,"x_min":90,"x_max":260,"o":"m 260 128 q 241 44 249 81 q 234 12 237 28 q 227 -17 230 -4 q 222 -40 224 -31 q 220 -52 220 -50 q 208 -87 216 -73 q 191 -111 201 -102 q 170 -125 181 -120 q 147 -132 158 -130 q 90 -130 121 -138 l 129 50 q 142 84 134 70 q 161 108 151 99 q 182 123 171 117 q 205 130 194 128 q 260 128 231 136 z "},"":{"ha":585,"x_min":127,"x_max":433,"o":"m 433 109 q 410 52 420 78 q 401 31 406 41 q 393 11 397 20 q 386 -5 389 1 q 382 -15 383 -12 q 360 -59 371 -41 q 337 -88 349 -77 q 316 -105 326 -99 q 296 -113 305 -111 q 254 -106 275 -117 l 313 42 q 350 94 330 79 q 389 112 371 109 q 433 109 411 116 m 306 109 q 283 52 293 78 q 274 31 278 41 q 266 11 269 20 q 259 -5 262 1 q 255 -15 256 -12 q 232 -59 243 -41 q 210 -88 221 -77 q 188 -105 199 -99 q 169 -113 178 -111 q 127 -106 147 -117 l 186 42 q 223 94 202 79 q 262 112 244 109 q 306 109 284 116 z "},"":{"ha":1141,"x_min":33,"x_max":1115,"o":"m 1115 294 q 1076 122 1115 193 l 1076 122 q 1039 70 1060 93 q 839 -13 965 -13 q 673 37 740 -13 l 673 7 q 585 -247 673 -155 q 484 -320 541 -294 q 350 -347 426 -347 q 325 -347 342 -347 q 287 -347 308 -347 q 243 -347 266 -347 q 201 -347 220 -347 q 169 -345 182 -346 q 155 -342 157 -344 q 177 -268 160 -292 q 220 -234 194 -243 q 278 -223 245 -224 q 347 -219 311 -222 q 418 -205 382 -216 q 489 -163 455 -194 q 537 -95 517 -134 q 557 -3 557 -56 l 557 299 q 501 468 557 402 q 354 532 444 532 q 207 469 264 532 q 157 304 149 405 q 168 258 159 280 q 189 218 176 237 q 216 185 201 200 q 245 159 231 170 q 281 141 260 149 q 326 130 302 134 q 375 123 350 125 q 424 120 401 121 q 467 118 447 119 q 499 117 486 118 l 494 -6 q 461 -12 487 -9 q 398 -11 435 -14 q 317 0 361 -8 q 229 26 273 9 q 147 71 186 43 q 81 139 108 98 q 46 215 59 174 q 33 301 33 256 q 123 547 33 450 q 353 644 214 644 q 521 595 444 644 q 537 584 524 593 q 567 559 550 575 q 602 522 583 543 q 636 472 621 500 q 662 411 652 444 q 673 340 672 378 l 677 273 q 723 148 677 195 q 839 99 768 99 q 954 148 909 99 q 977 179 968 163 q 993 222 987 199 q 999 273 999 245 l 999 492 q 1004 548 999 524 q 1017 589 1008 572 q 1035 617 1025 606 q 1057 635 1046 628 q 1114 650 1082 651 l 1114 294 l 1115 294 z "},"":{"ha":833,"x_min":0,"x_max":0,"o":""},"":{"ha":705,"x_min":0,"x_max":0,"o":""},"":{"ha":833,"x_min":-3,"x_max":826,"o":"m 749 146 q 755 91 749 111 q 770 61 761 71 q 788 47 779 52 q 807 39 798 43 q 821 28 815 35 q 825 3 826 20 q 825 1 825 3 q 821 0 825 0 q 719 0 760 0 q 649 1 678 1 q 601 1 621 1 q 562 1 581 1 q 559 2 559 1 q 558 5 558 3 q 564 28 558 21 q 577 40 569 36 q 595 47 585 43 q 614 62 606 52 q 628 91 623 72 q 635 146 634 111 l 635 456 q 489 456 557 456 l 283 456 q 266 458 270 456 q 262 465 262 461 q 264 471 262 468 q 265 474 266 474 q 333 540 294 518 q 413 570 372 562 q 494 577 454 578 q 566 576 534 577 q 617 580 597 576 q 637 602 637 585 q 637 637 638 612 q 632 692 636 662 q 620 752 628 722 q 596 803 611 782 q 566 836 584 820 q 528 863 549 851 q 483 881 507 874 q 435 888 459 888 q 385 881 410 888 q 337 863 360 874 q 295 836 315 851 q 263 804 276 821 q 210 610 210 737 q 210 455 210 522 q 210 339 210 388 q 210 257 210 290 q 210 201 210 223 q 210 166 210 179 q 210 146 210 153 q 218 91 211 110 q 234 61 224 71 q 255 47 244 51 q 276 39 267 43 q 291 26 285 35 q 295 0 296 18 q 178 0 225 0 q 98 1 131 1 q 42 1 65 1 q -1 1 20 1 q 3 27 -3 19 q 18 39 9 35 q 38 47 27 43 q 59 61 50 51 q 76 91 69 71 q 83 146 83 110 l 83 391 l 83 613 q 174 889 83 788 q 416 991 264 991 q 657 889 566 991 q 748 613 748 788 l 749 146 m 690 1267 l 556 1103 q 504 1053 529 1068 q 460 1034 479 1038 q 417 1034 437 1029 l 519 1206 q 544 1236 531 1224 q 572 1256 557 1249 q 600 1268 586 1264 q 628 1273 614 1272 q 690 1267 659 1276 z "},"":{"ha":705,"x_min":44,"x_max":650,"o":"m 642 217 q 648 216 646 216 q 650 210 650 215 l 650 0 l 612 0 q 510 4 557 0 q 422 17 463 9 q 283 68 338 35 q 105 247 166 140 q 67 327 83 287 q 47 414 52 367 l 180 414 q 217 304 189 351 q 290 216 244 257 q 568 117 394 125 q 594 133 586 118 q 607 165 602 147 q 618 198 612 182 q 642 217 625 214 m 650 869 q 650 831 650 850 q 650 798 650 813 q 650 774 650 783 q 650 765 650 765 q 648 759 650 760 q 643 758 646 758 q 625 768 632 760 q 614 787 618 777 q 606 811 609 798 q 598 833 602 823 q 587 850 593 844 q 571 857 581 857 q 290 758 395 850 q 182 564 203 682 q 247 564 212 564 q 316 564 281 564 q 383 564 351 564 q 442 563 416 564 q 485 562 468 563 q 507 561 503 562 q 539 552 522 559 q 573 534 556 545 q 603 508 589 523 q 623 473 617 492 q 624 468 624 471 q 622 462 625 465 q 613 457 620 459 q 593 456 606 456 l 263 456 l 263 456 l 142 456 l 45 456 q 44 469 45 463 q 44 478 44 474 l 44 486 q 105 726 44 619 q 283 904 165 832 q 422 956 338 937 q 612 972 503 972 l 650 972 l 650 869 m 514 1169 q 534 1217 514 1196 q 582 1238 555 1238 q 629 1217 609 1238 q 648 1169 648 1197 q 629 1121 648 1141 q 582 1101 610 1101 q 534 1121 553 1101 q 514 1169 514 1141 m 277 1169 q 296 1217 277 1197 q 343 1238 316 1238 q 391 1217 370 1238 q 411 1169 411 1196 q 391 1121 411 1141 q 343 1101 372 1101 q 296 1121 315 1101 q 277 1169 277 1141 z "},"":{"ha":705,"x_min":44,"x_max":650,"o":"m 642 217 q 648 216 646 216 q 650 210 650 215 l 650 0 l 612 0 q 510 4 557 0 q 422 17 463 9 q 283 68 338 35 q 105 247 166 140 q 67 327 83 287 q 47 414 52 367 l 180 414 q 217 304 189 351 q 290 216 244 257 q 568 117 394 125 q 594 133 586 118 q 607 165 602 147 q 618 198 612 182 q 642 217 625 214 m 650 869 q 650 831 650 850 q 650 798 650 813 q 650 774 650 783 q 650 765 650 765 q 648 759 650 760 q 643 758 646 758 q 625 768 632 760 q 614 787 618 777 q 606 811 609 798 q 598 833 602 823 q 587 850 593 844 q 571 857 581 857 q 290 758 395 850 q 182 564 203 682 q 247 564 212 564 q 316 564 281 564 q 383 564 351 564 q 442 563 416 564 q 485 562 468 563 q 507 561 503 562 q 539 552 522 559 q 573 534 556 545 q 603 508 589 523 q 623 473 617 492 q 624 468 624 471 q 622 462 625 465 q 613 457 620 459 q 593 456 606 456 l 263 456 l 263 456 l 142 456 l 45 456 q 44 469 45 463 q 44 478 44 474 l 44 486 q 105 726 44 619 q 283 904 165 832 q 422 956 338 937 q 612 972 503 972 l 650 972 l 650 869 m 353 1293 q 397 1296 375 1300 q 436 1277 415 1293 q 473 1226 456 1262 l 532 1078 q 490 1071 512 1066 q 471 1079 481 1073 q 449 1096 460 1084 q 427 1125 438 1107 q 404 1169 415 1143 q 400 1179 403 1172 q 393 1195 397 1185 q 385 1215 389 1204 q 376 1236 380 1225 q 353 1293 366 1262 z "},"":{"ha":315,"x_min":5,"x_max":412,"o":"m 221 120 q 232 78 224 93 q 249 56 239 63 q 269 45 258 48 q 288 37 279 41 q 301 24 296 33 q 304 -1 306 16 l 7 0 q 11 26 5 18 q 26 38 17 34 q 47 46 36 43 q 68 60 58 50 q 85 90 78 71 q 92 145 92 109 l 94 145 l 94 840 l 92 840 q 83 887 90 871 q 66 913 76 904 q 46 925 57 922 q 27 932 36 928 q 13 944 18 937 q 7 968 7 951 q 8 970 7 969 q 12 971 8 971 l 301 971 q 305 970 304 971 q 306 967 306 968 q 300 944 306 951 q 286 933 295 937 q 267 926 277 929 q 248 914 257 922 q 231 890 238 905 q 222 846 224 874 l 221 846 l 221 120 l 221 120 m 412 1257 l 277 1093 q 225 1043 250 1058 q 181 1024 201 1028 q 138 1024 159 1019 l 241 1196 q 266 1226 252 1214 q 293 1246 279 1238 q 321 1258 307 1254 q 349 1263 336 1261 q 412 1257 380 1265 z "},"":{"ha":315,"x_min":0,"x_max":0,"o":""},"":{"ha":315,"x_min":-26,"x_max":345,"o":"m 221 120 q 232 78 224 93 q 249 56 239 63 q 269 45 258 48 q 288 37 279 41 q 301 24 296 33 q 304 -1 306 16 l 7 0 q 11 26 5 18 q 26 38 17 34 q 47 46 36 43 q 68 60 58 50 q 85 90 78 71 q 92 145 92 109 l 94 145 l 94 840 l 92 840 q 83 887 90 871 q 66 913 76 904 q 46 925 57 922 q 27 932 36 928 q 13 944 18 937 q 7 968 7 951 q 8 970 7 969 q 12 971 8 971 l 301 971 q 305 970 304 971 q 306 967 306 968 q 300 944 306 951 q 286 933 295 937 q 267 926 277 929 q 248 914 257 922 q 231 890 238 905 q 222 846 224 874 l 221 846 l 221 120 l 221 120 m 211 1169 q 231 1217 211 1196 q 279 1238 252 1238 q 326 1217 306 1238 q 345 1169 345 1197 q 326 1121 345 1141 q 279 1101 307 1101 q 231 1121 250 1101 q 211 1169 211 1141 m -26 1169 q -7 1217 -26 1197 q 40 1238 13 1238 q 87 1217 67 1238 q 108 1169 108 1196 q 88 1121 108 1141 q 40 1101 68 1101 q -7 1121 12 1101 q -26 1169 -26 1141 z "},"":{"ha":315,"x_min":5,"x_max":306,"o":"m 221 120 q 232 78 224 93 q 249 56 239 63 q 269 45 258 48 q 288 37 279 41 q 301 24 296 33 q 304 -1 306 16 l 7 0 q 11 26 5 18 q 26 38 17 34 q 47 46 36 43 q 68 60 58 50 q 85 90 78 71 q 92 145 92 109 l 94 145 l 94 840 l 92 840 q 83 887 90 871 q 66 913 76 904 q 46 925 57 922 q 27 932 36 928 q 13 944 18 937 q 7 968 7 951 q 8 970 7 969 q 12 971 8 971 l 301 971 q 305 970 304 971 q 306 967 306 968 q 300 944 306 951 q 286 933 295 937 q 267 926 277 929 q 248 914 257 922 q 231 890 238 905 q 222 846 224 874 l 221 846 l 221 120 l 221 120 m 50 1293 q 94 1296 72 1300 q 133 1277 112 1293 q 170 1226 153 1262 l 229 1078 q 187 1071 209 1066 q 168 1079 178 1073 q 146 1096 157 1084 q 123 1125 135 1107 q 101 1169 112 1143 q 97 1179 100 1172 q 90 1195 94 1185 q 82 1215 86 1204 q 73 1236 77 1225 q 50 1293 62 1262 z "},"":{"ha":1074,"x_min":49,"x_max":1029,"o":"m 49 490 q 85 681 49 590 q 193 843 122 771 q 352 951 263 914 q 539 988 439 988 q 726 950 635 988 q 810 904 770 931 q 885 842 850 878 q 992 680 956 768 q 1029 490 1029 589 q 991 297 1029 387 q 885 136 955 207 q 810 72 850 99 q 726 26 770 45 q 539 -12 637 -12 q 352 26 439 -12 q 193 134 263 63 q 85 297 122 207 q 49 490 49 387 m 180 490 q 186 415 180 452 q 207 344 193 378 q 286 220 234 276 q 341 173 312 194 q 403 139 370 153 q 539 111 469 111 q 675 139 611 111 q 736 173 708 153 q 791 220 765 194 q 836 280 817 249 q 869 345 856 311 q 897 490 897 414 q 890 565 897 529 q 870 635 884 601 q 791 758 844 702 q 736 806 765 786 q 675 841 708 827 q 539 869 611 869 q 402 842 468 869 q 286 760 337 813 q 206 636 234 705 q 180 490 180 568 m 732 1261 l 597 1096 q 546 1046 570 1061 q 501 1027 521 1031 q 458 1027 479 1022 l 561 1199 q 586 1230 572 1217 q 613 1250 599 1242 q 642 1261 627 1257 q 669 1266 656 1265 q 732 1261 701 1269 z "},"":{"ha":1074,"x_min":0,"x_max":0,"o":""},"":{"ha":1097,"x_min":77,"x_max":1021,"o":"m 567 825 q 566 834 566 829 q 566 850 566 840 q 630 1005 566 934 q 790 1095 694 1077 q 791 1079 791 1088 q 791 1053 791 1070 q 721 893 791 964 q 583 823 651 823 l 578 823 q 573 824 576 823 q 567 825 570 825 m 1021 273 q 882 41 943 106 q 743 -24 820 -24 q 654 -1 709 -24 q 571 21 599 21 q 482 -1 541 21 q 396 -24 424 -24 q 309 6 353 -24 q 221 96 265 36 q 114 296 152 191 q 77 500 77 401 q 161 742 77 648 q 380 835 246 835 q 486 812 427 835 q 570 789 545 789 q 652 812 593 789 q 755 836 711 836 q 890 809 830 836 q 999 725 949 782 q 896 626 930 681 q 863 503 863 572 q 903 367 863 426 q 1021 273 944 308 z "},"":{"ha":1074,"x_min":49,"x_max":1029,"o":"m 49 490 q 85 681 49 590 q 193 843 122 771 q 352 951 263 914 q 539 988 439 988 q 726 950 635 988 q 810 904 770 931 q 885 842 850 878 q 992 680 956 768 q 1029 490 1029 589 q 991 297 1029 387 q 885 136 955 207 q 810 72 850 99 q 726 26 770 45 q 539 -12 637 -12 q 352 26 439 -12 q 193 134 263 63 q 85 297 122 207 q 49 490 49 387 m 180 490 q 186 415 180 452 q 207 344 193 378 q 286 220 234 276 q 341 173 312 194 q 403 139 370 153 q 539 111 469 111 q 675 139 611 111 q 736 173 708 153 q 791 220 765 194 q 836 280 817 249 q 869 345 856 311 q 897 490 897 414 q 890 565 897 529 q 870 635 884 601 q 791 758 844 702 q 736 806 765 786 q 675 841 708 827 q 539 869 611 869 q 402 842 468 869 q 286 760 337 813 q 206 636 234 705 q 180 490 180 568 m 429 1293 q 472 1296 450 1300 q 511 1277 490 1293 q 549 1226 532 1262 l 608 1078 q 566 1071 587 1066 q 546 1079 556 1073 q 525 1096 536 1084 q 502 1125 513 1107 q 479 1169 490 1143 q 475 1179 478 1172 q 469 1195 473 1185 q 460 1215 465 1204 q 452 1236 456 1225 q 429 1293 441 1262 z "},"":{"ha":833,"x_min":-2,"x_max":843,"o":"m 842 969 q 837 943 843 951 q 822 931 831 935 q 802 923 813 926 q 781 910 791 920 q 764 882 771 901 q 756 829 757 863 l 756 362 q 665 88 756 190 q 420 -14 573 -14 q 176 88 267 -14 q 84 362 84 189 l 84 837 q 75 885 83 868 q 58 911 68 903 q 37 924 48 920 q 18 932 26 928 q 3 944 9 936 q -1 970 -2 952 l 298 970 q 294 944 299 951 q 279 931 288 936 q 259 923 270 927 q 238 910 248 920 q 221 883 229 901 q 213 831 214 865 l 213 368 q 266 175 213 242 q 420 109 320 109 q 574 175 520 109 q 628 368 628 243 l 628 838 q 619 886 626 869 q 602 911 612 903 q 581 924 592 920 q 561 931 570 927 q 547 944 552 936 q 543 969 541 951 l 842 969 l 842 969 m 684 1261 l 550 1096 q 498 1046 523 1061 q 454 1027 473 1031 q 411 1027 431 1022 l 513 1199 q 538 1230 525 1217 q 566 1250 551 1242 q 594 1261 580 1257 q 622 1266 608 1265 q 684 1261 653 1269 z "},"":{"ha":833,"x_min":0,"x_max":0,"o":""},"":{"ha":833,"x_min":-2,"x_max":843,"o":"m 842 969 q 837 943 843 951 q 822 931 831 935 q 802 923 813 926 q 781 910 791 920 q 764 882 771 901 q 756 829 757 863 l 756 362 q 665 88 756 190 q 420 -14 573 -14 q 176 88 267 -14 q 84 362 84 189 l 84 837 q 75 885 83 868 q 58 911 68 903 q 37 924 48 920 q 18 932 26 928 q 3 944 9 936 q -1 970 -2 952 l 298 970 q 294 944 299 951 q 279 931 288 936 q 259 923 270 927 q 238 910 248 920 q 221 883 229 901 q 213 831 214 865 l 213 368 q 266 175 213 242 q 420 109 320 109 q 574 175 520 109 q 628 368 628 243 l 628 838 q 619 886 626 869 q 602 911 612 903 q 581 924 592 920 q 561 931 570 927 q 547 944 552 936 q 543 969 541 951 l 842 969 l 842 969 m 307 1293 q 351 1296 329 1300 q 390 1277 369 1293 q 427 1226 410 1262 l 486 1078 q 444 1071 466 1066 q 425 1079 435 1073 q 403 1096 414 1084 q 380 1125 392 1107 q 358 1169 369 1143 q 354 1179 357 1172 q 347 1195 351 1185 q 339 1215 343 1204 q 330 1236 334 1225 q 307 1293 319 1262 z "},"":{"ha":283,"x_min":82,"x_max":201,"o":"m 82 0 l 82 665 l 201 665 l 201 0 l 82 0 z "},"":{"ha":1127,"x_min":25,"x_max":1115,"o":"m 1115 297 q 1077 125 1115 197 l 1076 125 q 1040 73 1061 97 q 839 -10 964 -10 q 681 35 747 -10 l 681 -180 q 689 -225 682 -210 q 705 -249 696 -241 q 724 -260 714 -256 q 743 -267 734 -263 q 756 -278 751 -271 q 760 -301 761 -285 q 749 -301 758 -301 q 730 -301 741 -301 q 705 -302 718 -302 q 677 -302 691 -302 l 604 -302 l 481 -302 q 485 -278 479 -286 q 498 -267 490 -271 q 517 -260 507 -263 q 536 -248 527 -256 q 552 -224 545 -240 q 560 -178 559 -208 l 561 -178 l 561 323 q 503 488 561 424 q 353 551 445 551 q 281 540 313 551 q 205 489 239 525 q 146 322 146 426 q 206 161 146 223 q 240 132 222 145 q 280 111 259 119 q 350 98 313 99 q 357 98 351 98 q 372 99 363 98 q 388 100 380 100 q 401 102 396 101 q 441 113 422 106 q 522 158 483 128 l 521 32 q 491 17 505 23 q 461 6 477 12 q 450 2 456 4 q 438 -1 444 1 q 345 -12 395 -12 q 254 3 299 -12 q 210 20 231 10 q 171 43 189 29 q 62 163 100 92 q 25 323 25 235 q 117 565 25 470 q 239 643 170 619 q 353 661 291 661 q 526 614 448 661 q 645 484 603 568 q 672 404 664 448 q 679 349 676 382 q 681 273 681 317 l 681 241 q 723 151 688 189 q 839 102 769 102 q 954 151 909 102 q 977 182 968 166 q 999 276 999 222 l 1000 276 l 1000 496 q 1004 551 1000 527 q 1017 591 1009 574 q 1035 620 1025 608 q 1057 637 1046 631 q 1115 653 1082 654 l 1115 297 l 1115 297 z "},"":{"ha":694,"x_min":0,"x_max":0,"o":""},"":{"ha":694,"x_min":136,"x_max":499,"o":"m 138 891 q 260 890 205 890 q 306 890 283 890 q 347 890 328 890 q 378 890 366 890 q 394 890 391 890 q 431 888 415 891 q 457 879 446 884 q 476 865 469 873 q 488 849 484 857 q 498 805 499 830 l 243 804 q 178 820 200 806 q 147 849 156 833 q 138 891 136 867 z "},"":{"ha":694,"x_min":156,"x_max":539,"o":"m 156 953 l 216 953 q 252 878 221 901 q 347 854 283 854 q 443 878 412 854 q 478 953 473 901 l 539 953 q 486 813 532 857 q 347 770 439 770 q 209 814 255 770 q 156 953 162 859 z "},"":{"ha":694,"x_min":279,"x_max":415,"o":"m 279 861 q 300 908 279 888 q 347 928 320 928 q 395 908 374 928 q 415 861 415 888 q 395 812 415 832 q 347 793 376 793 q 299 812 319 793 q 279 861 279 832 z "},"":{"ha":694,"x_min":179,"x_max":515,"o":"m 252 908 q 279 839 252 867 q 347 811 307 811 q 416 839 388 811 q 444 908 444 867 q 416 977 444 949 q 347 1006 388 1006 q 279 978 306 1006 q 252 908 252 949 m 179 908 q 228 1028 179 979 q 347 1076 277 1076 q 467 1028 418 1076 q 515 908 515 979 q 467 789 515 838 q 347 741 418 741 q 228 789 277 741 q 179 908 179 838 z "},"":{"ha":694,"x_min":0,"x_max":0,"o":""},"":{"ha":694,"x_min":218,"x_max":612,"o":"m 393 754 l 507 990 l 612 990 l 450 754 l 393 754 m 218 754 l 318 990 l 425 990 l 275 754 l 218 754 z "},"":{"ha":694,"x_min":240,"x_max":444,"o":"m 416 0 q 347 -80 370 -43 q 325 -151 325 -117 q 340 -194 325 -182 q 390 -207 355 -207 l 444 -207 l 444 -294 l 392 -294 q 277 -267 315 -294 q 240 -183 240 -240 q 268 -98 240 -139 q 368 0 296 -58 l 416 0 z "},"":{"ha":694,"x_min":153,"x_max":541,"o":"m 153 979 l 225 979 l 347 815 l 468 979 l 541 979 l 407 743 l 286 743 l 153 979 z "},"":{"ha":582,"x_min":7,"x_max":585,"o":"m 86 410 l 7 355 l 7 450 l 86 509 l 86 971 l 215 971 l 215 581 l 403 713 l 403 614 l 215 484 l 215 318 q 264 171 215 222 q 407 119 314 119 l 585 119 l 585 0 l 429 0 q 171 84 256 0 q 86 339 86 168 l 86 410 z "},"":{"ha":296,"x_min":7,"x_max":289,"o":"m 87 0 l 87 425 l 7 371 l 7 449 l 87 505 l 87 971 l 208 971 l 208 570 l 289 624 l 289 545 l 208 490 l 208 0 l 87 0 z "},"":{"ha":729,"x_min":0,"x_max":0,"o":""},"":{"ha":602,"x_min":0,"x_max":0,"o":""},"":{"ha":692,"x_min":0,"x_max":0,"o":""},"":{"ha":579,"x_min":0,"x_max":0,"o":""},"":{"ha":694,"x_min":0,"x_max":0,"o":""},"":{"ha":876,"x_min":0,"x_max":0,"o":""},"":{"ha":755,"x_min":0,"x_max":0,"o":""},"":{"ha":753,"x_min":79,"x_max":669,"o":"m 669 940 l 669 941 l 669 738 q 611 526 669 607 q 436 416 552 446 l 436 127 q 445 81 438 97 q 462 56 452 64 q 481 44 471 47 q 500 36 492 41 q 514 24 509 32 q 518 -1 519 16 l 231 -1 q 235 25 229 18 q 250 37 241 33 q 269 45 258 41 q 290 58 280 48 q 306 87 299 68 q 313 140 312 106 l 313 140 l 313 416 q 138 526 197 446 q 79 738 79 606 l 79 806 l 79 941 q 89 965 79 960 q 111 965 98 970 q 140 948 124 960 q 170 921 156 936 q 193 891 184 906 q 203 865 202 876 q 205 771 205 806 l 205 736 q 248 579 205 633 q 374 524 292 524 q 500 579 456 524 q 545 736 545 633 q 545 774 545 739 q 546 868 545 808 q 555 894 546 879 q 578 924 565 909 q 608 951 592 939 q 638 968 624 964 q 661 968 652 973 q 669 944 669 963 l 669 940 m 568 1261 l 433 1096 q 381 1046 406 1061 q 337 1027 357 1031 q 294 1027 315 1022 l 397 1199 q 421 1230 408 1217 q 449 1250 435 1242 q 477 1261 463 1257 q 505 1266 492 1265 q 568 1261 536 1269 z "},"":{"ha":711,"x_min":20,"x_max":701,"o":"m 700 637 q 692 607 701 614 q 669 596 683 600 q 640 584 655 592 q 612 552 624 576 l 454 139 l 454 138 l 276 -312 q 254 -370 261 -350 q 243 -400 246 -391 q 237 -407 240 -407 q 233 -406 235 -407 q 194 -353 208 -384 q 184 -324 188 -340 q 179 -288 180 -308 q 183 -246 179 -269 q 199 -197 188 -223 l 275 -7 q 271 -3 273 -5 q 267 2 269 -1 q 220 96 240 31 l 56 553 q 34 611 42 591 q 22 641 26 631 q 21 646 20 644 q 22 650 21 648 q 26 651 24 651 q 91 638 59 652 q 119 623 104 632 q 146 598 133 613 q 171 564 159 584 q 193 517 183 544 l 332 137 l 471 505 q 479 556 480 538 q 470 583 477 574 q 452 594 463 591 q 431 601 441 597 q 414 611 421 604 q 409 637 408 618 l 536 637 l 700 637 l 700 637 m 543 941 l 409 777 q 357 727 382 742 q 313 708 332 712 q 270 708 290 703 l 372 880 q 397 910 384 898 q 425 930 410 922 q 453 942 439 938 q 481 947 467 945 q 543 941 512 949 z "},"":{"ha":753,"x_min":0,"x_max":0,"o":""},"":{"ha":781,"x_min":0,"x_max":0,"o":""},"":{"ha":1157,"x_min":172,"x_max":985,"o":"m 985 463 l 985 367 l 172 367 l 172 463 l 985 463 z "},"":{"ha":1157,"x_min":212,"x_max":956,"o":"m 366 718 q 393 689 378 706 q 427 652 409 671 q 463 612 444 633 q 500 572 481 592 q 588 476 542 526 l 900 762 q 932 716 921 739 q 939 695 937 706 q 940 672 941 684 q 934 649 939 661 q 917 626 928 637 q 888 599 905 614 q 851 565 871 583 q 809 527 831 547 q 766 488 787 507 q 663 394 718 443 l 956 74 q 908 43 932 54 q 886 37 898 39 q 862 36 874 35 q 837 43 850 37 q 812 62 825 50 q 790 86 804 71 q 758 121 776 102 q 720 163 740 141 q 680 207 699 185 q 579 317 633 258 l 267 31 q 234 76 243 52 q 229 99 230 86 q 231 125 227 111 q 243 154 234 138 q 269 184 252 169 q 305 218 286 200 q 344 253 324 235 q 383 289 363 271 q 420 323 403 307 q 504 399 463 361 l 212 719 q 260 749 235 740 q 284 754 271 753 q 310 752 296 755 q 338 741 323 749 q 366 718 352 733 z "},"":{"ha":498,"x_min":114,"x_max":317,"o":"m 229 389 l 229 899 l 114 899 l 140 971 l 317 971 l 317 389 l 229 389 z "},"":{"ha":498,"x_min":36,"x_max":471,"o":"m 144 467 l 468 467 l 468 389 l 114 389 q 56 405 77 389 q 36 449 36 420 q 48 481 36 464 q 82 515 60 498 l 311 682 q 363 737 347 709 q 379 799 379 765 q 345 876 379 846 q 257 907 310 907 q 168 875 203 907 q 134 794 134 844 q 165 715 134 745 q 252 677 196 684 l 176 624 q 79 690 113 646 q 45 793 45 734 q 105 928 45 875 q 260 982 166 982 q 411 931 352 982 q 471 800 471 880 q 441 702 471 747 q 347 611 412 656 l 144 467 z "},"":{"ha":498,"x_min":43,"x_max":463,"o":"m 58 971 l 326 971 q 396 956 372 971 q 419 911 419 941 q 412 879 419 895 q 390 851 404 863 l 260 741 q 410 694 357 739 q 463 567 463 649 q 406 438 463 488 q 257 389 349 389 l 43 389 l 43 467 l 231 467 q 336 493 300 467 q 372 571 372 520 q 338 646 372 618 q 244 673 304 673 l 131 673 l 131 728 l 332 899 l 58 899 l 58 971 z "},"":{"ha":1183,"x_min":107,"x_max":1171,"o":"m 999 0 l 999 127 l 787 127 q 743 139 757 127 q 729 175 729 151 q 733 197 729 186 q 745 224 736 209 l 942 543 l 1032 543 l 819 199 l 999 199 l 999 429 l 1076 554 l 1076 199 l 1171 199 l 1171 127 l 1076 127 l 1076 0 l 999 0 m 244 0 l 846 971 l 939 971 l 345 0 l 244 0 m 216 427 l 216 901 l 107 901 l 134 970 l 300 970 l 300 427 l 216 427 z "},"":{"ha":1183,"x_min":107,"x_max":1157,"o":"m 846 72 l 1154 72 l 1154 0 l 817 0 q 763 15 782 0 q 743 56 743 29 q 754 86 743 70 q 786 118 765 102 l 1006 273 q 1055 325 1039 298 q 1071 383 1071 351 q 1038 455 1071 427 q 953 484 1004 484 q 868 454 902 484 q 835 379 835 424 q 865 304 835 333 q 949 269 895 275 l 876 218 q 783 281 815 240 q 750 378 750 322 q 809 503 750 454 q 957 553 867 553 q 1101 506 1044 553 q 1157 385 1157 458 q 1129 292 1157 334 q 1040 207 1101 250 l 846 72 m 244 0 l 846 971 l 939 971 l 345 0 l 244 0 m 216 427 l 216 901 l 107 901 l 134 970 l 300 970 l 300 427 l 216 427 z "},"":{"ha":1183,"x_min":41,"x_max":1171,"o":"m 999 0 l 999 127 l 787 127 q 743 139 757 127 q 729 175 729 151 q 733 197 729 186 q 745 224 736 209 l 942 543 l 1032 543 l 819 199 l 999 199 l 999 429 l 1076 554 l 1076 199 l 1171 199 l 1171 127 l 1076 127 l 1076 0 l 999 0 m 244 0 l 846 971 l 939 971 l 345 0 l 244 0 m 56 970 l 311 970 q 378 956 355 970 q 401 914 401 941 q 394 884 401 899 q 372 859 386 869 l 248 754 q 391 711 341 753 q 441 593 441 669 q 387 473 441 519 q 245 427 333 427 l 41 427 l 41 498 l 221 498 q 320 524 286 498 q 355 597 355 550 q 323 667 355 642 q 233 693 290 693 l 125 693 l 125 742 l 317 901 l 56 901 l 56 970 z "},"":{"ha":1074,"x_min":13,"x_max":1168,"o":"m 483 554 q 514 547 496 554 q 549 527 532 539 q 581 497 566 514 q 602 461 595 480 q 602 455 602 458 q 600 450 602 452 q 590 445 597 447 q 570 444 583 444 l 246 444 l 246 554 q 286 554 263 554 q 333 554 309 554 q 381 554 357 554 q 426 554 406 554 q 461 554 446 554 q 483 554 477 554 m 623 945 q 623 892 623 922 q 623 834 623 861 q 623 788 623 807 q 623 768 623 768 q 621 762 623 763 q 616 761 619 762 q 600 771 606 763 q 589 790 593 779 q 581 813 585 801 q 570 837 576 826 q 553 854 564 847 q 527 863 543 862 l 371 863 q 309 848 336 859 q 261 812 281 836 q 229 747 241 787 q 216 648 218 707 l 216 136 q 222 85 217 104 q 235 58 228 67 q 252 45 243 49 q 268 37 260 41 q 279 26 275 33 q 283 3 283 19 q 283 1 283 2 q 279 0 283 0 l 161 0 l 18 0 q 14 1 14 0 q 14 4 14 3 q 18 26 13 19 q 31 37 23 33 q 47 44 39 41 q 64 55 56 47 q 78 76 73 62 q 85 115 84 90 l 85 628 q 91 710 85 671 q 106 783 96 749 q 131 844 116 817 q 165 892 146 872 q 214 934 189 918 q 266 961 239 951 q 318 977 292 972 q 371 984 345 982 l 581 984 q 610 972 597 984 q 623 945 623 961 m 897 648 q 990 669 948 668 q 1066 661 1033 671 q 1121 634 1099 651 q 1156 601 1144 617 q 1167 572 1167 584 q 1156 559 1168 559 q 1124 559 1139 559 q 1099 559 1109 559 l 1075 559 q 1015 556 1044 559 q 960 547 986 553 q 912 529 934 541 q 877 501 891 518 q 837 425 851 471 q 823 313 823 378 l 823 113 q 832 74 825 87 q 848 53 839 60 q 867 42 857 45 q 884 35 876 39 q 896 24 892 31 q 900 1 901 16 l 626 1 q 630 24 625 17 q 643 36 635 32 q 661 43 651 40 q 680 54 671 46 q 695 78 689 62 q 704 123 702 94 l 704 661 l 813 661 l 813 564 q 897 648 844 623 z "},"":{"ha":1074,"x_min":77,"x_max":1001,"o":"m 602 528 q 632 528 608 528 q 689 528 656 528 q 763 528 723 528 q 842 528 803 528 q 915 528 881 528 q 970 528 948 528 l 822 417 q 784 417 808 417 q 732 417 760 417 q 672 417 703 417 q 612 418 642 418 q 557 418 583 418 q 515 418 532 418 q 495 419 502 417 q 486 423 488 420 q 483 429 483 426 q 484 435 484 433 q 505 471 491 454 q 536 500 519 488 q 571 520 553 513 q 602 528 589 528 m 1001 498 q 1000 457 1001 484 q 993 393 999 429 q 974 315 987 357 q 935 227 960 272 q 871 138 910 182 q 777 54 833 93 q 664 0 724 17 q 538 -16 604 -16 q 363 22 447 -16 q 214 131 281 59 q 155 208 180 168 q 113 294 130 248 q 77 485 77 386 q 85 583 77 536 q 110 675 92 629 q 151 763 127 721 q 208 842 174 805 q 275 904 240 877 q 358 954 311 930 q 421 978 389 970 q 485 990 454 987 q 546 994 517 994 q 600 991 576 994 q 695 968 650 987 q 779 924 741 949 q 857 857 821 896 q 924 770 892 819 l 849 695 q 826 670 836 681 q 817 661 821 665 q 810 653 813 656 q 802 645 806 649 q 798 645 801 642 q 788 663 789 654 q 791 680 787 672 q 799 696 794 688 q 806 713 804 705 q 805 732 808 722 q 788 753 802 741 q 767 776 778 764 q 747 795 758 785 q 728 811 737 805 q 696 832 711 823 q 666 848 681 841 q 634 861 650 855 q 598 870 617 866 q 555 876 577 875 q 514 874 534 876 q 477 869 494 872 q 448 862 460 865 q 403 843 425 855 q 361 818 380 831 q 293 754 321 791 q 243 675 265 718 q 211 585 222 632 q 201 486 201 537 q 207 411 201 448 q 227 340 213 375 q 300 216 252 273 q 410 135 349 163 q 473 113 441 121 q 538 106 505 106 q 760 195 669 106 q 799 238 782 217 q 828 283 815 259 q 851 335 841 307 q 870 400 861 363 l 1001 498 m 347 1272 l 407 1272 q 443 1197 412 1221 q 538 1174 473 1174 q 633 1197 602 1174 q 669 1272 664 1221 l 730 1272 q 676 1133 722 1177 q 538 1089 630 1089 q 399 1134 446 1089 q 347 1272 353 1178 z "},"":{"ha":781,"x_min":48,"x_max":700,"o":"m 700 31 q 611 -228 700 -133 q 508 -302 566 -275 q 372 -330 449 -330 q 346 -330 363 -330 q 307 -330 329 -330 q 262 -330 286 -330 q 219 -329 239 -330 q 187 -328 200 -329 q 173 -325 174 -327 q 187 -263 176 -287 q 215 -228 198 -240 q 253 -210 231 -215 q 298 -203 274 -205 q 350 -200 323 -201 q 405 -194 377 -199 q 459 -177 432 -189 q 513 -142 487 -165 q 562 -73 541 -113 q 583 20 583 -33 l 583 328 q 525 500 583 434 q 375 566 467 566 q 225 500 284 566 q 175 333 167 436 q 185 286 177 308 q 207 245 194 264 q 234 211 219 227 q 264 185 249 196 q 323 161 287 169 q 397 149 359 153 q 469 144 435 145 q 523 143 503 144 l 517 18 q 485 12 511 14 q 421 12 458 9 q 338 24 383 15 q 249 51 293 33 q 164 96 204 68 q 98 165 124 124 q 61 242 75 201 q 48 330 48 283 q 140 580 48 481 q 374 679 233 679 q 545 630 467 679 q 664 496 622 582 q 692 412 684 456 q 700 275 700 366 l 700 31 m 199 953 l 259 953 q 295 878 264 901 q 390 854 326 854 q 485 878 454 854 q 521 953 516 901 l 582 953 q 528 813 574 857 q 390 770 482 770 q 251 814 298 770 q 199 953 205 859 z "},"":{"ha":315,"x_min":5,"x_max":306,"o":"m 221 120 q 232 78 224 93 q 249 56 239 63 q 269 45 258 48 q 288 37 279 41 q 301 24 296 33 q 304 -1 306 16 l 7 0 q 11 26 5 18 q 26 38 17 34 q 47 46 36 43 q 68 60 58 50 q 85 90 78 71 q 92 145 92 109 l 94 145 l 94 840 l 92 840 q 83 887 90 871 q 66 913 76 904 q 46 925 57 922 q 27 932 36 928 q 13 944 18 937 q 7 968 7 951 q 8 970 7 969 q 12 971 8 971 l 301 971 q 305 970 304 971 q 306 967 306 968 q 300 944 306 951 q 286 933 295 937 q 267 926 277 929 q 248 914 257 922 q 231 890 238 905 q 222 846 224 874 l 221 846 l 221 120 l 221 120 m 92 1181 q 112 1227 92 1207 q 159 1247 132 1247 q 207 1227 186 1247 q 227 1181 227 1207 q 208 1132 227 1152 q 159 1112 188 1112 q 111 1132 131 1112 q 92 1181 92 1152 z "},"":{"ha":729,"x_min":56,"x_max":683,"o":"m 56 1 l 56 199 q 59 202 56 201 q 84 191 78 201 q 93 168 90 180 q 101 143 96 155 q 125 130 107 132 l 387 130 q 508 161 467 130 q 549 252 549 192 q 517 334 549 300 q 399 412 486 369 l 237 496 q 104 601 148 541 q 60 736 60 661 q 140 908 60 844 q 233 957 180 940 q 355 973 286 973 l 638 973 q 637 962 638 971 q 630 938 636 952 q 610 908 623 924 q 571 879 596 892 q 506 854 545 865 q 410 842 467 844 l 315 843 q 226 814 259 843 q 193 741 193 787 q 222 667 193 699 q 271 630 237 652 q 359 581 305 609 l 501 509 q 639 401 595 461 q 683 259 683 339 q 599 68 683 136 q 363 1 515 1 l 152 1 l 56 1 z "},"":{"ha":602,"x_min":50,"x_max":555,"o":"m 50 -1 l 50 157 q 52 159 50 159 q 70 151 66 158 q 77 135 75 144 q 83 119 79 127 q 100 110 87 112 l 312 110 q 363 111 340 110 q 401 123 387 113 q 423 142 416 134 q 429 169 429 151 q 424 196 430 184 q 406 219 417 208 q 388 232 400 225 q 362 245 376 238 q 330 259 347 252 q 298 273 313 266 l 180 330 q 85 401 116 361 q 54 494 54 441 q 111 611 54 568 q 178 644 140 633 q 267 656 216 656 l 521 659 q 520 649 521 657 q 516 630 520 642 q 504 606 513 619 q 477 582 495 593 q 432 563 460 571 q 363 554 405 555 l 259 552 q 195 532 219 552 q 179 515 184 523 q 175 492 175 508 q 178 470 175 478 q 192 452 182 463 q 205 443 197 446 q 224 434 213 439 q 250 424 235 430 q 284 409 264 418 l 373 374 q 439 340 407 358 q 492 307 471 322 q 519 278 507 296 q 539 242 531 261 q 551 203 547 222 q 555 171 555 184 q 537 99 555 129 q 488 45 518 69 q 447 25 473 34 q 392 11 422 16 q 331 2 362 5 q 271 -1 299 -1 l 119 -1 l 50 -1 z "},"":{"ha":692,"x_min":0,"x_max":0,"o":""},"":{"ha":533,"x_min":0,"x_max":0,"o":""},"":{"ha":692,"x_min":269,"x_max":1056,"o":"m 697 758 q 583 487 583 658 q 697 216 583 315 q 973 117 800 125 q 999 133 991 118 q 1012 165 1007 147 q 1024 198 1017 182 q 1048 216 1031 213 q 1053 215 1051 216 q 1055 210 1055 214 l 1055 0 l 1018 0 q 828 18 911 0 q 690 68 745 34 q 513 246 574 140 q 452 487 452 353 q 513 726 452 620 q 690 903 574 832 q 828 954 745 937 q 1018 972 911 972 l 1055 971 l 1055 868 q 1055 830 1055 848 q 1056 797 1055 812 q 1056 773 1056 783 q 1056 764 1056 764 q 1054 759 1056 760 q 1048 758 1052 758 q 1031 768 1038 760 q 1020 787 1024 776 q 1012 810 1015 798 q 1004 833 1008 823 q 994 850 1000 843 q 977 857 987 857 q 697 758 802 850 m 269 1299 l 342 1299 l 464 1135 l 585 1299 l 657 1299 l 524 1063 l 403 1063 l 269 1299 z "},"":{"ha":533,"x_min":43,"x_max":536,"o":"m 241 488 q 166 329 166 427 q 241 171 166 231 q 243 170 241 171 l 240 172 q 274 149 257 159 q 407 113 331 117 l 429 113 q 445 120 439 115 q 452 134 450 126 q 457 151 455 142 q 461 166 458 159 q 470 179 465 174 q 488 184 476 184 q 491 182 491 184 l 490 -1 l 431 -1 l 423 -1 l 401 0 q 149 90 245 7 q 43 331 43 181 q 81 482 43 412 q 188 600 119 552 q 291 646 237 632 q 358 657 323 655 q 431 661 392 659 l 490 661 l 490 547 l 490 478 q 488 475 490 475 q 471 481 477 476 q 462 493 465 486 q 457 509 459 500 q 453 525 456 517 q 445 539 450 533 q 429 547 439 545 q 322 533 368 550 q 241 488 276 516 m 149 979 l 221 979 l 343 815 l 464 979 l 536 979 l 403 743 l 282 743 l 149 979 z "},"":{"ha":787,"x_min":45,"x_max":781,"o":"m 713 971 l 713 857 l 781 857 l 781 791 l 713 791 l 713 335 q 618 85 713 183 q 379 -12 523 -12 q 140 86 235 -12 q 45 334 45 184 q 140 577 45 477 q 372 676 235 676 q 467 665 422 676 q 553 631 511 654 l 553 503 q 469 549 509 534 q 386 564 429 564 q 229 498 290 564 q 167 329 167 433 q 227 164 167 228 q 380 100 287 100 q 533 164 474 100 q 593 334 593 229 l 593 791 l 371 791 l 371 857 l 593 857 l 593 971 l 713 971 z "},"":{"ha":458,"x_min":60,"x_max":396,"o":"m 62 384 q 170 383 121 383 q 211 383 191 383 q 248 383 231 383 q 276 383 265 383 q 291 383 288 383 q 328 379 312 384 q 354 368 343 375 q 373 350 366 360 q 385 330 380 340 q 395 273 396 305 l 167 273 q 130 278 145 273 q 102 292 114 283 q 83 310 91 300 q 71 330 76 319 q 62 384 60 353 z "},"":{"ha":378,"x_min":109,"x_max":269,"o":"m 109 494 q 132 552 109 528 q 189 575 155 575 q 246 552 223 575 q 269 494 269 528 q 246 438 269 461 q 189 415 222 415 q 132 438 155 415 q 109 494 109 461 z "},"":{"ha":755,"x_min":0,"x_max":0,"o":""},"":{"ha":755,"x_min":0,"x_max":0,"o":""}}}
